999
dxfrw 0.6.3
  0
SECTION
  2
HEADER
  9
$ACADVER
  1
AC1021
  9
$DWGCODEPAGE
  3
ANSI_1252
  9
$INSBASE
 10
0
 20
0
 30
0
  9
$EXTMIN
 10
-1576.605038780011
 20
-1185
 30
0
  9
$EXTMAX
 10
1905
 20
596.1126880014206
 30
0
  9
$LIMMIN
 10
0
 20
0
  9
$LIMMAX
 10
420
 20
297
  9
$ORTHOMODE
 70
    0
  9
$REGENMODE
 70
    1
  9
$FILLMODE
 70
    1
  9
$QTEXTMODE
 70
    0
  9
$MIRRTEXT
 70
    0
  9
$LTSCALE
 40
1
  9
$ATTMODE
 70
    0
  9
$TEXTSIZE
 40
2.5
  9
$TRACEWID
 40
15.68
  9
$TEXTSTYLE
  7
STANDARD
  9
$CLAYER
  8
1 Dims
  9
$CELTYPE
  6
BYLAYER
  9
$CECOLOR
 62
  256
  9
$CELTSCALE
 40
1
  9
$DISPSILH
 70
    0
  9
$DIMSCALE
 40
4
  9
$DIMASZ
 40
2.5
  9
$DIMEXO
 40
0.625
  9
$DIMDLI
 40
3.75
  9
$DIMRND
 40
0
  9
$DIMDLE
 40
0
  9
$DIMEXE
 40
1.25
  9
$DIMTP
 40
0
  9
$DIMTM
 40
0
  9
$DIMTXT
 40
2.5
  9
$DIMCEN
 40
2.5
  9
$DIMTSZ
 40
0
  9
$DIMTOL
 70
    0
  9
$DIMLIM
 70
    0
  9
$DIMTIH
 70
    0
  9
$DIMTOH
 70
    0
  9
$DIMSE1
 70
    0
  9
$DIMSE2
 70
    0
  9
$DIMTAD
 70
    1
  9
$DIMZIN
 70
    1
  9
$DIMBLK
  1

  9
$DIMASO
 70
    1
  9
$DIMSHO
 70
    1
  9
$DIMPOST
  1

  9
$DIMAPOST
  1

  9
$DIMALT
 70
    0
  9
$DIMALTD
 70
    3
  9
$DIMALTF
 40
0.03937
  9
$DIMLFAC
 40
1
  9
$DIMTOFL
 70
    1
  9
$DIMTVP
 40
0
  9
$DIMTIX
 70
    0
  9
$DIMSOXD
 70
    0
  9
$DIMSAH
 70
    0
  9
$DIMBLK1
  1

  9
$DIMBLK2
  1

  9
$DIMSTYLE
  2
STANDARD
  9
$DIMCLRD
 70
    0
  9
$DIMCLRE
 70
    0
  9
$DIMCLRT
 70
    0
  9
$DIMTFAC
 40
1
  9
$DIMGAP
 40
0.625
  9
$DIMJUST
 70
    0
  9
$DIMSD1
 70
    0
  9
$DIMSD2
 70
    0
  9
$DIMTOLJ
 70
    0
  9
$DIMTZIN
 70
    8
  9
$DIMALTZ
 70
    0
  9
$DIMALTTZ
 70
    0
  9
$DIMUPT
 70
    0
  9
$DIMDEC
 70
    0
  9
$DIMTDEC
 70
    2
  9
$DIMALTU
 70
    2
  9
$DIMALTTD
 70
    3
  9
$DIMTXSTY
  7
standard
  9
$DIMAUNIT
 70
    0
  9
$DIMADEC
 70
    2
  9
$DIMALTRND
 40
0
  9
$DIMAZIN
 70
    0
  9
$DIMDSEP
 70
    0
  9
$DIMATFIT
 70
    3
  9
$DIMFRAC
 70
    0
  9
$DIMLDRBLK
  1
STANDARD
  9
$DIMLUNIT
 70
    2
  9
$DIMLWD
 70
   -2
  9
$DIMLWE
 70
   -2
  9
$DIMTMOVE
 70
    0
  9
$DIMFXL
 40
1
  9
$DIMFXLON
 70
    0
  9
$DIMJOGANG
 40
0.7854
  9
$DIMTFILL
 70
    0
  9
$DIMTFILLCLR
 70
    0
  9
$DIMARCSYM
 70
    0
  9
$DIMLTYPE
  6

  9
$DIMLTEX1
  6

  9
$DIMLTEX2
  6

  9
$LUNITS
 70
    2
  9
$LUPREC
 70
    0
  9
$SKETCHINC
 40
1
  9
$FILLETRAD
 40
0
  9
$AUNITS
 70
    0
  9
$AUPREC
 70
    2
  9
$MENU
  1
.
  9
$ELEVATION
 40
0
  9
$PELEVATION
 40
0
  9
$THICKNESS
 40
0
  9
$LIMCHECK
 70
    0
  9
$CHAMFERA
 40
0
  9
$CHAMFERB
 40
0
  9
$CHAMFERC
 40
0
  9
$CHAMFERD
 40
0
  9
$SKPOLY
 70
    0
  9
$USRTIMER
 70
    1
  9
$ANGBASE
 50
0
  9
$ANGDIR
 70
    0
  9
$PDMODE
 70
   96
  9
$PDSIZE
 40
-2
  9
$PLINEWID
 40
0
  9
$SPLFRAME
 70
    0
  9
$SPLINETYPE
 70
    2
  9
$SPLINESEGS
 70
    8
  9
$HANDSEED
  5
20000
  9
$SURFTAB1
 70
    6
  9
$SURFTAB2
 70
    6
  9
$SURFTYPE
 70
    6
  9
$SURFU
 70
    6
  9
$SURFV
 70
    6
  9
$UCSBASE
  2

  9
$UCSNAME
  2

  9
$UCSORG
 10
0
 20
0
 30
0
  9
$UCSXDIR
 10
1
 20
0
 30
0
  9
$UCSYDIR
 10
0
 20
1
 30
0
  9
$UCSORTHOREF
  2

  9
$UCSORTHOVIEW
 70
    0
  9
$UCSORGTOP
 10
0
 20
0
 30
0
  9
$UCSORGBOTTOM
 10
0
 20
0
 30
0
  9
$UCSORGLEFT
 10
0
 20
0
 30
0
  9
$UCSORGRIGHT
 10
0
 20
0
 30
0
  9
$UCSORGFRONT
 10
0
 20
0
 30
0
  9
$UCSORGBACK
 10
0
 20
0
 30
0
  9
$PUCSBASE
  2

  9
$PUCSNAME
  2

  9
$PUCSORG
 10
0
 20
0
 30
0
  9
$PUCSXDIR
 10
1
 20
0
 30
0
  9
$PUCSYDIR
 10
0
 20
1
 30
0
  9
$PUCSORTHOREF
  2

  9
$PUCSORTHOVIEW
 70
    0
  9
$PUCSORGTOP
 10
0
 20
0
 30
0
  9
$PUCSORGBOTTOM
 10
0
 20
0
 30
0
  9
$PUCSORGLEFT
 10
0
 20
0
 30
0
  9
$PUCSORGRIGHT
 10
0
 20
0
 30
0
  9
$PUCSORGFRONT
 10
0
 20
0
 30
0
  9
$PUCSORGBACK
 10
0
 20
0
 30
0
  9
$USERI1
 70
    0
  9
$USERI2
 70
    0
  9
$USERI3
 70
    0
  9
$USERI4
 70
    0
  9
$USERI5
 70
    0
  9
$USERR1
 40
0
  9
$USERR2
 40
0
  9
$USERR3
 40
0
  9
$USERR4
 40
0
  9
$USERR5
 40
0
  9
$WORLDVIEW
 70
    1
  9
$SHADEDGE
 70
    3
  9
$SHADEDIF
 70
   70
  9
$TILEMODE
 70
    1
  9
$MAXACTVP
 70
   64
  9
$PINSBASE
 10
-202.5897379342764
 20
137.5909314931092
 30
0
  9
$PLIMCHECK
 70
    0
  9
$PEXTMIN
 10
0
 20
0
 30
0
  9
$PEXTMAX
 10
0
 20
0
 30
0
  9
$GRIDMODE
 70
    1
  9
$SNAPSTYLE
 70
    0
  9
$GRIDUNIT
 10
5
 20
5
  9
$PLIMMIN
 10
0
 20
0
  9
$PLIMMAX
 10
297
 20
210
  9
$UNITMODE
 70
    0
  9
$VISRETAIN
 70
    1
  9
$PLINEGEN
 70
    0
  9
$PSLTSCALE
 70
    1
  9
$TREEDEPTH
 70
 3020
  9
$CMLSTYLE
  2
Standard
  9
$CMLJUST
 70
    0
  9
$CMLSCALE
 40
20
  9
$PROXYGRAPHICS
 70
    1
  9
$MEASUREMENT
 70
    1
  9
$CELWEIGHT
370
   -1
  9
$ENDCAPS
280
    0
  9
$JOINSTYLE
280
    0
  9
$LWDISPLAY
290
    0
  9
$INSUNITS
 70
    4
  9
$HYPERLINKBASE
  1

  9
$STYLESHEET
  1

  9
$XEDIT
290
    1
  9
$CEPSNTYPE
380
    0
  9
$PSTYLEMODE
290
    1
  9
$EXTNAMES
290
    1
  9
$PSVPSCALE
 40
0.2
  9
$OLESTARTUP
290
    0
  9
$SORTENTS
280
  127
  9
$INDEXCTL
280
    0
  9
$HIDETEXT
280
    1
  9
$XCLIPFRAME
290
    0
  9
$HALOGAP
280
    0
  9
$OBSCOLOR
 70
  257
  9
$OBSLTYPE
280
    0
  9
$INTERSECTIONDISPLAY
280
    0
  9
$INTERSECTIONCOLOR
 70
  257
  9
$DIMASSOC
280
    1
  9
$PROJECTNAME
  1

  9
$CAMERADISPLAY
290
    0
  9
$LENSLENGTH
 40
50
  9
$CAMERAHEIGHT
 40
0
  9
$STEPSPERSEC
 40
2
  9
$STEPSIZE
 40
50
  9
$3DDWFPREC
 40
2
  9
$PSOLWIDTH
 40
5
  9
$PSOLHEIGHT
 40
80
  9
$LOFTANG1
 40
1.570796326794897
  9
$LOFTANG2
 40
1.570796326794897
  9
$LOFTMAG1
 40
0
  9
$LOFTMAG2
 40
0
  9
$LOFTPARAM
 70
    7
  9
$LOFTNORMALS
280
    1
  9
$LATITUDE
 40
1
  9
$LONGITUDE
 40
1
  9
$NORTHDIRECTION
 40
0
  9
$TIMEZONE
 70
-8000
  9
$LIGHTGLYPHDISPLAY
280
    1
  9
$TILEMODELIGHTSYNCH
280
    1
  9
$SOLIDHIST
280
    1
  9
$SHOWHIST
280
    1
  9
$DWFFRAME
280
    2
  9
$DGNFRAME
280
    0
  9
$REALWORLDSCALE
290
    1
  9
$INTERFERECOLOR
 62
    1
  9
$CSHADOW
280
    0
  9
$SHADOWPLANELOCATION
 40
0
  0
ENDSEC
  0
SECTION
  2
CLASSES
  0
ENDSEC
  0
SECTION
  2
TABLES
  0
TABLE
  2
VPORT
  5
8
330
0
100
AcDbSymbolTable
 70
    1
  0
VPORT
  5
31
330
2
100
AcDbSymbolTableRecord
100
AcDbViewportTableRecord
  2
*ACTIVE
 70
    0
 10
0
 20
0
 11
1
 21
1
 12
1085.163455339619
 22
577.9409863269431
 13
0
 23
0
 14
10
 24
10
 15
5
 25
5
 16
0
 26
0
 36
1
 17
0
 27
0
 37
0
 40
4038.271195600919
 41
0.9879227053140096
 42
50
 43
0
 44
0
 50
0
 51
0
 71
    0
 72
  100
 73
    1
 74
    3
 75
    0
 76
    1
 77
    0
 78
    0
281
    0
 65
    1
110
0
120
0
130
0
111
1
121
0
131
0
112
0
122
1
132
0
 79
    0
146
0
348
10020
 60
    3
 61
    5
292
1
282
    1
141
0
142
0
 63
  250
421
3358443
  0
ENDTAB
  0
TABLE
  2
LTYPE
  5
5
330
0
100
AcDbSymbolTable
 70
    4
  0
LTYPE
  5
14
330
5
100
AcDbSymbolTableRecord
100
AcDbLinetypeTableRecord
  2
ByBlock
 70
    0
  3

 72
   65
 73
    0
 40
0
  0
LTYPE
  5
15
330
5
100
AcDbSymbolTableRecord
100
AcDbLinetypeTableRecord
  2
ByLayer
 70
    0
  3

 72
   65
 73
    0
 40
0
  0
LTYPE
  5
16
330
5
100
AcDbSymbolTableRecord
100
AcDbLinetypeTableRecord
  2
Continuous
 70
    0
  3
Solid line
 72
   65
 73
    0
 40
0
  0
LTYPE
  5
32
330
5
100
AcDbSymbolTableRecord
100
AcDbLinetypeTableRecord
  2
DOT
 70
    0
  3
Dot . . . . . . . . . . . . . . . . . . . . . .
 72
   65
 73
    2
 40
6.35
 49
0
 74
    0
 49
-6.35
 74
    0
  0
LTYPE
  5
33
330
5
100
AcDbSymbolTableRecord
100
AcDbLinetypeTableRecord
  2
DOTTINY
 70
    0
  3
Dot (.15x) .....................................
 72
   65
 73
    2
 40
0.9525
 49
0
 74
    0
 49
-0.9525
 74
    0
  0
LTYPE
  5
34
330
5
100
AcDbSymbolTableRecord
100
AcDbLinetypeTableRecord
  2
DOT2
 70
    0
  3
Dot (.5x) .....................................
 72
   65
 73
    2
 40
3.175
 49
0
 74
    0
 49
-3.175
 74
    0
  0
LTYPE
  5
35
330
5
100
AcDbSymbolTableRecord
100
AcDbLinetypeTableRecord
  2
DOTX2
 70
    0
  3
Dot (2x) .  .  .  .  .  .  .  .  .  .  .  .  .
 72
   65
 73
    2
 40
12.7
 49
0
 74
    0
 49
-12.7
 74
    0
  0
LTYPE
  5
36
330
5
100
AcDbSymbolTableRecord
100
AcDbLinetypeTableRecord
  2
DASHED
 70
    0
  3
Dashed _ _ _ _ _ _ _ _ _ _ _ _ _ _ _ _ _
 72
   65
 73
    2
 40
19.05
 49
12.7
 74
    0
 49
-6.35
 74
    0
  0
LTYPE
  5
37
330
5
100
AcDbSymbolTableRecord
100
AcDbLinetypeTableRecord
  2
DASHEDTINY
 70
    0
  3
Dashed (.15x) _ _ _ _ _ _ _ _ _ _ _ _ _ _ _ _ _
 72
   65
 73
    2
 40
2.8575
 49
1.905
 74
    0
 49
-0.9525
 74
    0
  0
LTYPE
  5
38
330
5
100
AcDbSymbolTableRecord
100
AcDbLinetypeTableRecord
  2
DASHED2
 70
    0
  3
Dashed (.5x) _ _ _ _ _ _ _ _ _ _ _ _ _ _ _ _ _
 72
   65
 73
    2
 40
9.524999999999999
 49
6.35
 74
    0
 49
-3.175
 74
    0
  0
LTYPE
  5
39
330
5
100
AcDbSymbolTableRecord
100
AcDbLinetypeTableRecord
  2
DASHEDX2
 70
    0
  3
Dashed (2x) ____  ____  ____  ____  ____  ___
 72
   65
 73
    2
 40
38.09999999999999
 49
25.4
 74
    0
 49
-12.7
 74
    0
  0
LTYPE
  5
3A
330
5
100
AcDbSymbolTableRecord
100
AcDbLinetypeTableRecord
  2
DASHDOT
 70
    0
  3
Dash dot __ . __ . __ . __ . __ . __ . __ . __
 72
   65
 73
    4
 40
25.4
 49
12.7
 74
    0
 49
-6.35
 74
    0
 49
0
 74
    0
 49
-6.35
 74
    0
  0
LTYPE
  5
3B
330
5
100
AcDbSymbolTableRecord
100
AcDbLinetypeTableRecord
  2
DASHDOTTINY
 70
    0
  3
Dash dot (.15x) _._._._._._._._._._._._._._._.
 72
   65
 73
    4
 40
3.81
 49
1.905
 74
    0
 49
-0.9525
 74
    0
 49
0
 74
    0
 49
-0.9525
 74
    0
  0
LTYPE
  5
3C
330
5
100
AcDbSymbolTableRecord
100
AcDbLinetypeTableRecord
  2
DASHDOT2
 70
    0
  3
Dash dot (.5x) _._._._._._._._._._._._._._._.
 72
   65
 73
    4
 40
12.7
 49
6.35
 74
    0
 49
-3.175
 74
    0
 49
0
 74
    0
 49
-3.175
 74
    0
  0
LTYPE
  5
3D
330
5
100
AcDbSymbolTableRecord
100
AcDbLinetypeTableRecord
  2
DASHDOTX2
 70
    0
  3
Dash dot (2x) ____  .  ____  .  ____  .  ___
 72
   65
 73
    4
 40
50.8
 49
25.4
 74
    0
 49
-12.7
 74
    0
 49
0
 74
    0
 49
-12.7
 74
    0
  0
LTYPE
  5
3E
330
5
100
AcDbSymbolTableRecord
100
AcDbLinetypeTableRecord
  2
DIVIDE
 70
    0
  3
Divide ____ . . ____ . . ____ . . ____ . . ____
 72
   65
 73
    6
 40
31.75
 49
12.7
 74
    0
 49
-6.35
 74
    0
 49
0
 74
    0
 49
-6.35
 74
    0
 49
0
 74
    0
 49
-6.35
 74
    0
  0
LTYPE
  5
3F
330
5
100
AcDbSymbolTableRecord
100
AcDbLinetypeTableRecord
  2
DIVIDETINY
 70
    0
  3
Divide (.15x) __..__..__..__..__..__..__..__.._
 72
   65
 73
    6
 40
4.7625
 49
1.905
 74
    0
 49
-0.9525
 74
    0
 49
0
 74
    0
 49
-0.9525
 74
    0
 49
0
 74
    0
 49
-0.9525
 74
    0
  0
LTYPE
  5
40
330
5
100
AcDbSymbolTableRecord
100
AcDbLinetypeTableRecord
  2
DIVIDE2
 70
    0
  3
Divide (.5x) __..__..__..__..__..__..__..__.._
 72
   65
 73
    6
 40
15.875
 49
6.35
 74
    0
 49
-3.175
 74
    0
 49
0
 74
    0
 49
-3.175
 74
    0
 49
0
 74
    0
 49
-3.175
 74
    0
  0
LTYPE
  5
41
330
5
100
AcDbSymbolTableRecord
100
AcDbLinetypeTableRecord
  2
DIVIDEX2
 70
    0
  3
Divide (2x) ________  .  .  ________  .  .  _
 72
   65
 73
    6
 40
63.5
 49
25.4
 74
    0
 49
-12.7
 74
    0
 49
0
 74
    0
 49
-12.7
 74
    0
 49
0
 74
    0
 49
-12.7
 74
    0
  0
LTYPE
  5
42
330
5
100
AcDbSymbolTableRecord
100
AcDbLinetypeTableRecord
  2
BORDER
 70
    0
  3
Border __ __ . __ __ . __ __ . __ __ . __ __ .
 72
   65
 73
    6
 40
44.45
 49
12.7
 74
    0
 49
-6.35
 74
    0
 49
12.7
 74
    0
 49
-6.35
 74
    0
 49
0
 74
    0
 49
-6.35
 74
    0
  0
LTYPE
  5
43
330
5
100
AcDbSymbolTableRecord
100
AcDbLinetypeTableRecord
  2
BORDERTINY
 70
    0
  3
Border (.15x) __.__.__.__.__.__.__.__.__.__.__.
 72
   65
 73
    6
 40
6.6675
 49
1.905
 74
    0
 49
-0.9525
 74
    0
 49
1.905
 74
    0
 49
-0.9525
 74
    0
 49
0
 74
    0
 49
-0.9525
 74
    0
  0
LTYPE
  5
44
330
5
100
AcDbSymbolTableRecord
100
AcDbLinetypeTableRecord
  2
BORDER2
 70
    0
  3
Border (.5x) __.__.__.__.__.__.__.__.__.__.__.
 72
   65
 73
    6
 40
22.225
 49
6.35
 74
    0
 49
-3.175
 74
    0
 49
6.35
 74
    0
 49
-3.175
 74
    0
 49
0
 74
    0
 49
-3.175
 74
    0
  0
LTYPE
  5
45
330
5
100
AcDbSymbolTableRecord
100
AcDbLinetypeTableRecord
  2
BORDERX2
 70
    0
  3
Border (2x) ____  ____  .  ____  ____  .  ___
 72
   65
 73
    6
 40
88.89999999999999
 49
25.4
 74
    0
 49
-12.7
 74
    0
 49
25.4
 74
    0
 49
-12.7
 74
    0
 49
0
 74
    0
 49
-12.7
 74
    0
  0
LTYPE
  5
46
330
5
100
AcDbSymbolTableRecord
100
AcDbLinetypeTableRecord
  2
CENTER
 70
    0
  3
Center ____ _ ____ _ ____ _ ____ _ ____ _ ____
 72
   65
 73
    4
 40
50.8
 49
31.75
 74
    0
 49
-6.35
 74
    0
 49
6.35
 74
    0
 49
-6.35
 74
    0
  0
LTYPE
  5
47
330
5
100
AcDbSymbolTableRecord
100
AcDbLinetypeTableRecord
  2
CENTERTINY
 70
    0
  3
Center (.15x) ___ _ ___ _ ___ _ ___ _ ___ _ ___
 72
   65
 73
    4
 40
7.62
 49
4.7625
 74
    0
 49
-0.9525
 74
    0
 49
0.9525
 74
    0
 49
-0.9525
 74
    0
  0
LTYPE
  5
48
330
5
100
AcDbSymbolTableRecord
100
AcDbLinetypeTableRecord
  2
CENTER2
 70
    0
  3
Center (.5x) ___ _ ___ _ ___ _ ___ _ ___ _ ___
 72
   65
 73
    4
 40
28.575
 49
19.05
 74
    0
 49
-3.175
 74
    0
 49
3.175
 74
    0
 49
-3.175
 74
    0
  0
LTYPE
  5
49
330
5
100
AcDbSymbolTableRecord
100
AcDbLinetypeTableRecord
  2
CENTERX2
 70
    0
  3
Center (2x) ________  __  ________  __  _____
 72
   65
 73
    4
 40
101.6
 49
63.5
 74
    0
 49
-12.7
 74
    0
 49
12.7
 74
    0
 49
-12.7
 74
    0
  0
ENDTAB
  0
TABLE
  2
LAYER
  5
2
330
0
100
AcDbSymbolTable
 70
    1
  0
LAYER
  5
10
330
2
100
AcDbSymbolTableRecord
100
AcDbLayerTableRecord
  2
0
 70
    0
 62
   40
420
16755200
  6
DASHEDTINY
370
   18
390
F
  0
LAYER
  5
4A
330
2
100
AcDbSymbolTableRecord
100
AcDbLayerTableRecord
  2
1 Dims
 70
    0
 62
  136
420
32896
  6
CONTINUOUS
370
    9
390
F
  0
LAYER
  5
4B
330
2
100
AcDbSymbolTableRecord
100
AcDbLayerTableRecord
  2
2 Dashed
 70
    0
 62
    7
  6
DASHEDTINY
370
   18
390
F
  0
LAYER
  5
4C
330
2
100
AcDbSymbolTableRecord
100
AcDbLayerTableRecord
  2
3 Draw
 70
    0
 62
    7
  6
CONTINUOUS
370
   25
390
F
  0
ENDTAB
  0
TABLE
  2
STYLE
  5
3
330
0
100
AcDbSymbolTable
 70
    3
  0
STYLE
  5
4D
330
2
100
AcDbSymbolTableRecord
100
AcDbTextStyleTableRecord
  2
Standard
 70
    0
 40
0
 41
1
 50
0
 71
    0
 42
1
  3
txt
  4

  0
ENDTAB
  0
TABLE
  2
VIEW
  5
6
330
0
100
AcDbSymbolTable
 70
    0
  0
ENDTAB
  0
TABLE
  2
UCS
  5
7
330
0
100
AcDbSymbolTable
 70
    0
  0
ENDTAB
  0
TABLE
  2
APPID
  5
9
330
0
100
AcDbSymbolTable
 70
    1
  0
APPID
  5
12
330
9
100
AcDbSymbolTableRecord
100
AcDbRegAppTableRecord
  2
ACAD
 70
    0
  0
APPID
  5
4E
330
9
100
AcDbSymbolTableRecord
100
AcDbRegAppTableRecord
  2
LibreCad
 70
    0
  0
ENDTAB
  0
TABLE
  2
DIMSTYLE
  5
A
330
0
100
AcDbSymbolTable
 70
    1
100
AcDbDimStyleTable
 71
    1
  0
DIMSTYLE
105
4F
330
A
100
AcDbSymbolTableRecord
100
AcDbDimStyleTableRecord
  2
Standard
 70
    0
 40
4
 41
2.5
 42
0.625
 43
0.38
 44
1.25
 45
0
 46
0
 47
0
 48
0
 49
1
140
2.5
141
0.09
142
0
143
25.4
144
1
145
0
146
1
147
0.625
148
0
 71
    0
 72
    0
 73
    0
 74
    1
 75
    0
 76
    0
 77
    0
 78
    1
 79
    0
170
    0
171
    2
172
    0
173
    0
174
    0
175
    0
176
    0
177
    0
178
    0
179
    2
271
    0
272
    4
273
    2
274
    2
275
    0
276
    0
277
    2
278
    0
279
    0
280
    0
281
    0
282
    0
283
    1
284
    0
285
    0
286
    0
288
    0
289
    3
340
4D
  0
ENDTAB
  0
TABLE
  2
BLOCK_RECORD
  5
1
330
0
100
AcDbSymbolTable
 70
    2
  0
BLOCK_RECORD
  5
1F
330
1
100
AcDbSymbolTableRecord
100
AcDbBlockTableRecord
  2
*Model_Space
 70
    0
280
    1
281
    0
  0
BLOCK_RECORD
  5
1E
330
1
100
AcDbSymbolTableRecord
100
AcDbBlockTableRecord
  2
*Paper_Space
 70
    0
280
    1
281
    0
  0
BLOCK_RECORD
  5
50
330
1
100
AcDbSymbolTableRecord
100
AcDbBlockTableRecord
  2
*D2
 70
    0
280
    1
281
    0
  0
BLOCK_RECORD
  5
53
330
1
100
AcDbSymbolTableRecord
100
AcDbBlockTableRecord
  2
*D18
 70
    0
280
    1
281
    0
  0
BLOCK_RECORD
  5
56
330
1
100
AcDbSymbolTableRecord
100
AcDbBlockTableRecord
  2
*D48
 70
    0
280
    1
281
    0
  0
BLOCK_RECORD
  5
59
330
1
100
AcDbSymbolTableRecord
100
AcDbBlockTableRecord
  2
*D28
 70
    0
280
    1
281
    0
  0
BLOCK_RECORD
  5
5C
330
1
100
AcDbSymbolTableRecord
100
AcDbBlockTableRecord
  2
*D16
 70
    0
280
    1
281
    0
  0
BLOCK_RECORD
  5
5F
330
1
100
AcDbSymbolTableRecord
100
AcDbBlockTableRecord
  2
*D63
 70
    0
280
    1
281
    0
  0
BLOCK_RECORD
  5
62
330
1
100
AcDbSymbolTableRecord
100
AcDbBlockTableRecord
  2
*D53
 70
    0
280
    1
281
    0
  0
BLOCK_RECORD
  5
65
330
1
100
AcDbSymbolTableRecord
100
AcDbBlockTableRecord
  2
*D30
 70
    0
280
    1
281
    0
  0
BLOCK_RECORD
  5
68
330
1
100
AcDbSymbolTableRecord
100
AcDbBlockTableRecord
  2
*D39
 70
    0
280
    1
281
    0
  0
BLOCK_RECORD
  5
6B
330
1
100
AcDbSymbolTableRecord
100
AcDbBlockTableRecord
  2
*D11
 70
    0
280
    1
281
    0
  0
BLOCK_RECORD
  5
6E
330
1
100
AcDbSymbolTableRecord
100
AcDbBlockTableRecord
  2
*D54
 70
    0
280
    1
281
    0
  0
BLOCK_RECORD
  5
71
330
1
100
AcDbSymbolTableRecord
100
AcDbBlockTableRecord
  2
*D27
 70
    0
280
    1
281
    0
  0
BLOCK_RECORD
  5
74
330
1
100
AcDbSymbolTableRecord
100
AcDbBlockTableRecord
  2
*D17
 70
    0
280
    1
281
    0
  0
BLOCK_RECORD
  5
77
330
1
100
AcDbSymbolTableRecord
100
AcDbBlockTableRecord
  2
*D4
 70
    0
280
    1
281
    0
  0
BLOCK_RECORD
  5
7A
330
1
100
AcDbSymbolTableRecord
100
AcDbBlockTableRecord
  2
*D26
 70
    0
280
    1
281
    0
  0
BLOCK_RECORD
  5
7D
330
1
100
AcDbSymbolTableRecord
100
AcDbBlockTableRecord
  2
*D56
 70
    0
280
    1
281
    0
  0
BLOCK_RECORD
  5
80
330
1
100
AcDbSymbolTableRecord
100
AcDbBlockTableRecord
  2
*D10
 70
    0
280
    1
281
    0
  0
BLOCK_RECORD
  5
83
330
1
100
AcDbSymbolTableRecord
100
AcDbBlockTableRecord
  2
*D14
 70
    0
280
    1
281
    0
  0
BLOCK_RECORD
  5
86
330
1
100
AcDbSymbolTableRecord
100
AcDbBlockTableRecord
  2
*D12
 70
    0
280
    1
281
    0
  0
BLOCK_RECORD
  5
89
330
1
100
AcDbSymbolTableRecord
100
AcDbBlockTableRecord
  2
*D52
 70
    0
280
    1
281
    0
  0
BLOCK_RECORD
  5
8C
330
1
100
AcDbSymbolTableRecord
100
AcDbBlockTableRecord
  2
*D61
 70
    0
280
    1
281
    0
  0
BLOCK_RECORD
  5
8F
330
1
100
AcDbSymbolTableRecord
100
AcDbBlockTableRecord
  2
*D37
 70
    0
280
    1
281
    0
  0
BLOCK_RECORD
  5
92
330
1
100
AcDbSymbolTableRecord
100
AcDbBlockTableRecord
  2
*D6
 70
    0
280
    1
281
    0
  0
BLOCK_RECORD
  5
95
330
1
100
AcDbSymbolTableRecord
100
AcDbBlockTableRecord
  2
*D55
 70
    0
280
    1
281
    0
  0
BLOCK_RECORD
  5
98
330
1
100
AcDbSymbolTableRecord
100
AcDbBlockTableRecord
  2
*D8
 70
    0
280
    1
281
    0
  0
BLOCK_RECORD
  5
9B
330
1
100
AcDbSymbolTableRecord
100
AcDbBlockTableRecord
  2
*D1
 70
    0
280
    1
281
    0
  0
BLOCK_RECORD
  5
9E
330
1
100
AcDbSymbolTableRecord
100
AcDbBlockTableRecord
  2
*D29
 70
    0
280
    1
281
    0
  0
BLOCK_RECORD
  5
A1
330
1
100
AcDbSymbolTableRecord
100
AcDbBlockTableRecord
  2
*D38
 70
    0
280
    1
281
    0
  0
BLOCK_RECORD
  5
A4
330
1
100
AcDbSymbolTableRecord
100
AcDbBlockTableRecord
  2
*D36
 70
    0
280
    1
281
    0
  0
BLOCK_RECORD
  5
A7
330
1
100
AcDbSymbolTableRecord
100
AcDbBlockTableRecord
  2
*D46
 70
    0
280
    1
281
    0
  0
BLOCK_RECORD
  5
AA
330
1
100
AcDbSymbolTableRecord
100
AcDbBlockTableRecord
  2
*D51
 70
    0
280
    1
281
    0
  0
BLOCK_RECORD
  5
AD
330
1
100
AcDbSymbolTableRecord
100
AcDbBlockTableRecord
  2
*D24
 70
    0
280
    1
281
    0
  0
BLOCK_RECORD
  5
B0
330
1
100
AcDbSymbolTableRecord
100
AcDbBlockTableRecord
  2
*D19
 70
    0
280
    1
281
    0
  0
BLOCK_RECORD
  5
B3
330
1
100
AcDbSymbolTableRecord
100
AcDbBlockTableRecord
  2
*D40
 70
    0
280
    1
281
    0
  0
BLOCK_RECORD
  5
B6
330
1
100
AcDbSymbolTableRecord
100
AcDbBlockTableRecord
  2
*D62
 70
    0
280
    1
281
    0
  0
BLOCK_RECORD
  5
B9
330
1
100
AcDbSymbolTableRecord
100
AcDbBlockTableRecord
  2
*D50
 70
    0
280
    1
281
    0
  0
BLOCK_RECORD
  5
BC
330
1
100
AcDbSymbolTableRecord
100
AcDbBlockTableRecord
  2
*D22
 70
    0
280
    1
281
    0
  0
BLOCK_RECORD
  5
BF
330
1
100
AcDbSymbolTableRecord
100
AcDbBlockTableRecord
  2
*D45
 70
    0
280
    1
281
    0
  0
BLOCK_RECORD
  5
C2
330
1
100
AcDbSymbolTableRecord
100
AcDbBlockTableRecord
  2
*D15
 70
    0
280
    1
281
    0
  0
BLOCK_RECORD
  5
C5
330
1
100
AcDbSymbolTableRecord
100
AcDbBlockTableRecord
  2
*D34
 70
    0
280
    1
281
    0
  0
BLOCK_RECORD
  5
C8
330
1
100
AcDbSymbolTableRecord
100
AcDbBlockTableRecord
  2
*D7
 70
    0
280
    1
281
    0
  0
BLOCK_RECORD
  5
CB
330
1
100
AcDbSymbolTableRecord
100
AcDbBlockTableRecord
  2
*D43
 70
    0
280
    1
281
    0
  0
BLOCK_RECORD
  5
CE
330
1
100
AcDbSymbolTableRecord
100
AcDbBlockTableRecord
  2
*D47
 70
    0
280
    1
281
    0
  0
BLOCK_RECORD
  5
D1
330
1
100
AcDbSymbolTableRecord
100
AcDbBlockTableRecord
  2
*D25
 70
    0
280
    1
281
    0
  0
BLOCK_RECORD
  5
D4
330
1
100
AcDbSymbolTableRecord
100
AcDbBlockTableRecord
  2
*D60
 70
    0
280
    1
281
    0
  0
BLOCK_RECORD
  5
D7
330
1
100
AcDbSymbolTableRecord
100
AcDbBlockTableRecord
  2
*D33
 70
    0
280
    1
281
    0
  0
BLOCK_RECORD
  5
DA
330
1
100
AcDbSymbolTableRecord
100
AcDbBlockTableRecord
  2
*D20
 70
    0
280
    1
281
    0
  0
BLOCK_RECORD
  5
DD
330
1
100
AcDbSymbolTableRecord
100
AcDbBlockTableRecord
  2
*D13
 70
    0
280
    1
281
    0
  0
BLOCK_RECORD
  5
E0
330
1
100
AcDbSymbolTableRecord
100
AcDbBlockTableRecord
  2
*D3
 70
    0
280
    1
281
    0
  0
BLOCK_RECORD
  5
E3
330
1
100
AcDbSymbolTableRecord
100
AcDbBlockTableRecord
  2
*D21
 70
    0
280
    1
281
    0
  0
BLOCK_RECORD
  5
E6
330
1
100
AcDbSymbolTableRecord
100
AcDbBlockTableRecord
  2
*D41
 70
    0
280
    1
281
    0
  0
BLOCK_RECORD
  5
E9
330
1
100
AcDbSymbolTableRecord
100
AcDbBlockTableRecord
  2
*D9
 70
    0
280
    1
281
    0
  0
BLOCK_RECORD
  5
EC
330
1
100
AcDbSymbolTableRecord
100
AcDbBlockTableRecord
  2
*D32
 70
    0
280
    1
281
    0
  0
BLOCK_RECORD
  5
EF
330
1
100
AcDbSymbolTableRecord
100
AcDbBlockTableRecord
  2
*D5
 70
    0
280
    1
281
    0
  0
BLOCK_RECORD
  5
F2
330
1
100
AcDbSymbolTableRecord
100
AcDbBlockTableRecord
  2
*D57
 70
    0
280
    1
281
    0
  0
BLOCK_RECORD
  5
F5
330
1
100
AcDbSymbolTableRecord
100
AcDbBlockTableRecord
  2
*D35
 70
    0
280
    1
281
    0
  0
BLOCK_RECORD
  5
F8
330
1
100
AcDbSymbolTableRecord
100
AcDbBlockTableRecord
  2
*D49
 70
    0
280
    1
281
    0
  0
BLOCK_RECORD
  5
FB
330
1
100
AcDbSymbolTableRecord
100
AcDbBlockTableRecord
  2
*D58
 70
    0
280
    1
281
    0
  0
BLOCK_RECORD
  5
FE
330
1
100
AcDbSymbolTableRecord
100
AcDbBlockTableRecord
  2
*D42
 70
    0
280
    1
281
    0
  0
BLOCK_RECORD
  5
101
330
1
100
AcDbSymbolTableRecord
100
AcDbBlockTableRecord
  2
*D59
 70
    0
280
    1
281
    0
  0
BLOCK_RECORD
  5
104
330
1
100
AcDbSymbolTableRecord
100
AcDbBlockTableRecord
  2
*D31
 70
    0
280
    1
281
    0
  0
BLOCK_RECORD
  5
107
330
1
100
AcDbSymbolTableRecord
100
AcDbBlockTableRecord
  2
*D44
 70
    0
280
    1
281
    0
  0
BLOCK_RECORD
  5
10A
330
1
100
AcDbSymbolTableRecord
100
AcDbBlockTableRecord
  2
*D23
 70
    0
280
    1
281
    0
  0
ENDTAB
  0
ENDSEC
  0
SECTION
  2
BLOCKS
  0
BLOCK
  5
20
330
1F
100
AcDbEntity
  8
0
100
AcDbBlockBegin
  2
*Model_Space
 70
    0
 10
0
 20
0
 30
0
  3
*Model_Space
  1

  0
ENDBLK
  5
21
330
1F
100
AcDbEntity
  8
0
100
AcDbBlockEnd
  0
BLOCK
  5
1C
330
1B
100
AcDbEntity
  8
0
100
AcDbBlockBegin
  2
*Paper_Space
 70
    0
 10
0
 20
0
 30
0
  3
*Paper_Space
  1

  0
ENDBLK
  5
1D
330
1F
100
AcDbEntity
  8
0
100
AcDbBlockEnd
  0
BLOCK
  5
51
330
50
100
AcDbEntity
  8
0
100
AcDbBlockBegin
  2
*D2
 70
    1
 10
0
 20
0
  3
*D2
  1

  0
LINE
  5
10D
100
AcDbEntity
  8
1 Dims
  6
ByBlock
 62
    0
370
   -2
100
AcDbLine
 10
-815
 20
465
 11
-765
 21
465
  0
MTEXT
  5
10E
100
AcDbEntity
  8
1 Dims
  6
CONTINUOUS
 62
    0
370
   -2
100
AcDbMText
 10
-790
 20
472.5
 30
0
 40
10
 41
12.22222222222284
 71
    5
 72
    1
  1
50
  7
standard
210
0
220
0
230
1
 50
0
 73
    2
 44
1
  0
SOLID
  5
10F
100
AcDbEntity
  8
1 Dims
  6
ByBlock
 62
    0
370
   -2
100
AcDbTrace
 10
-815
 20
465
 30
0
 11
-805
 21
466.6651386310913
 31
0
 12
-805
 22
463.3348613689087
 32
0
 13
-805
 23
463.3348613689087
 33
0
  0
SOLID
  5
110
100
AcDbEntity
  8
1 Dims
  6
ByBlock
 62
    0
370
   -2
100
AcDbTrace
 10
-765
 20
465
 30
0
 11
-775
 21
463.3348613689087
 31
0
 12
-775
 22
466.6651386310913
 32
0
 13
-775
 23
466.6651386310913
 33
0
  0
LINE
  5
111
100
AcDbEntity
  8
1 Dims
  6
ByBlock
 62
    0
370
   -2
100
AcDbLine
 10
-815
 20
447.5
 11
-815
 21
470
  0
LINE
  5
112
100
AcDbEntity
  8
1 Dims
  6
ByBlock
 62
    0
370
   -2
100
AcDbLine
 10
-765
 20
447.5
 11
-765
 21
470
  0
ENDBLK
  5
52
330
50
100
AcDbEntity
  8
0
100
AcDbBlockEnd
  0
BLOCK
  5
54
330
53
100
AcDbEntity
  8
0
100
AcDbBlockBegin
  2
*D18
 70
    1
 10
0
 20
0
  3
*D18
  1

  0
LINE
  5
113
100
AcDbEntity
  8
1 Dims
  6
ByBlock
 62
    0
370
   -2
100
AcDbLine
 10
-935
 20
65
 11
-815
 21
65
  0
MTEXT
  5
114
100
AcDbEntity
  8
1 Dims
  6
CONTINUOUS
 62
    0
370
   -2
100
AcDbMText
 10
-875
 20
72.5
 30
0
 40
10
 41
17.77777777777778
 71
    5
 72
    1
  1
120
  7
standard
210
0
220
0
230
1
 50
0
 73
    2
 44
1
  0
SOLID
  5
115
100
AcDbEntity
  8
1 Dims
  6
ByBlock
 62
    0
370
   -2
100
AcDbTrace
 10
-935
 20
65
 30
0
 11
-925
 21
66.66513863109137
 31
0
 12
-925
 22
63.33486136890863
 32
0
 13
-925
 23
63.33486136890863
 33
0
  0
SOLID
  5
116
100
AcDbEntity
  8
1 Dims
  6
ByBlock
 62
    0
370
   -2
100
AcDbTrace
 10
-815
 20
65
 30
0
 11
-825
 21
63.33486136890864
 31
0
 12
-825
 22
66.66513863109137
 32
0
 13
-825
 23
66.66513863109137
 33
0
  0
LINE
  5
117
100
AcDbEntity
  8
1 Dims
  6
ByBlock
 62
    0
370
   -2
100
AcDbLine
 10
-935
 20
97.5
 11
-935
 21
60
  0
LINE
  5
118
100
AcDbEntity
  8
1 Dims
  6
ByBlock
 62
    0
370
   -2
100
AcDbLine
 10
-815
 20
82.49999999999999
 11
-815
 21
60
  0
ENDBLK
  5
55
330
53
100
AcDbEntity
  8
0
100
AcDbBlockEnd
  0
BLOCK
  5
57
330
56
100
AcDbEntity
  8
0
100
AcDbBlockBegin
  2
*D48
 70
    1
 10
0
 20
0
  3
*D48
  1

  0
LINE
  5
119
100
AcDbEntity
  8
1 Dims
  6
ByBlock
 62
    0
370
   -2
100
AcDbLine
 10
1802.5
 20
200
 11
1855
 21
200
  0
LINE
  5
11A
100
AcDbEntity
  8
1 Dims
  6
ByBlock
 62
    0
370
   -2
100
AcDbLine
 10
1802.5
 20
-650
 11
1855
 21
-650
  0
LINE
  5
11B
100
AcDbEntity
  8
1 Dims
  6
ByBlock
 62
    0
370
   -2
100
AcDbLine
 10
1850
 20
200
 11
1850
 21
-650
  0
MTEXT
  5
11C
100
AcDbEntity
  8
1 Dims
  6
CONTINUOUS
 62
    0
370
   -2
100
AcDbMText
 10
1842.5
 20
-225
 30
0
 40
10
 41
20.00000000000063
 71
    5
 72
    1
  1
850
  7
standard
210
0
220
0
230
1
 50
90
 73
    2
 44
1
  0
SOLID
  5
11D
100
AcDbEntity
  8
1 Dims
  6
ByBlock
 62
    0
370
   -2
100
AcDbTrace
 10
1850
 20
200
 30
0
 11
1851.665138631091
 21
190
 31
0
 12
1848.334861368909
 22
190
 32
0
 13
1848.334861368909
 23
190
 33
0
  0
SOLID
  5
11E
100
AcDbEntity
  8
1 Dims
  6
ByBlock
 62
    0
370
   -2
100
AcDbTrace
 10
1850
 20
-650
 30
0
 11
1848.334861368909
 21
-640
 31
0
 12
1851.665138631091
 22
-640
 32
0
 13
1851.665138631091
 23
-640
 33
0
  0
ENDBLK
  5
58
330
56
100
AcDbEntity
  8
0
100
AcDbBlockEnd
  0
BLOCK
  5
5A
330
59
100
AcDbEntity
  8
0
100
AcDbBlockBegin
  2
*D28
 70
    1
 10
0
 20
0
  3
*D28
  1

  0
LINE
  5
11F
100
AcDbEntity
  8
1 Dims
  6
ByBlock
 62
    0
370
   -2
100
AcDbLine
 10
-885
 20
290
 11
-885
 21
259.9999999999999
  0
MTEXT
  5
120
100
AcDbEntity
  8
1 Dims
  6
CONTINUOUS
 62
    0
370
   -2
100
AcDbMText
 10
-892.5
 20
274.9999999999999
 30
0
 40
10
 41
12.22222222222284
 71
    5
 72
    1
  1
30
  7
standard
210
0
220
0
230
1
 50
90
 73
    2
 44
1
  0
SOLID
  5
121
100
AcDbEntity
  8
1 Dims
  6
ByBlock
 62
    0
370
   -2
100
AcDbTrace
 10
-885
 20
290
 30
0
 11
-883.3348613689086
 21
280
 31
0
 12
-886.6651386310914
 22
280
 32
0
 13
-886.6651386310914
 23
280
 33
0
  0
SOLID
  5
122
100
AcDbEntity
  8
1 Dims
  6
ByBlock
 62
    0
370
   -2
100
AcDbTrace
 10
-885
 20
259.9999999999999
 30
0
 11
-886.6651386310914
 21
269.9999999999999
 31
0
 12
-883.3348613689086
 22
269.9999999999999
 32
0
 13
-883.3348613689086
 23
269.9999999999999
 33
0
  0
LINE
  5
123
100
AcDbEntity
  8
1 Dims
  6
ByBlock
 62
    0
370
   -2
100
AcDbLine
 10
-902.5
 20
290
 11
-880
 21
290
  0
LINE
  5
124
100
AcDbEntity
  8
1 Dims
  6
ByBlock
 62
    0
370
   -2
100
AcDbLine
 10
-902.5000000000001
 20
259.9999999999999
 11
-880
 21
259.9999999999999
  0
ENDBLK
  5
5B
330
59
100
AcDbEntity
  8
0
100
AcDbBlockEnd
  0
BLOCK
  5
5D
330
5C
100
AcDbEntity
  8
0
100
AcDbBlockBegin
  2
*D16
 70
    1
 10
0
 20
0
  3
*D16
  1

  0
LINE
  5
125
100
AcDbEntity
  8
1 Dims
  6
ByBlock
 62
    0
370
   -2
100
AcDbLine
 10
-885
 20
-145
 11
-885
 21
-475
  0
MTEXT
  5
126
100
AcDbEntity
  8
1 Dims
  6
CONTINUOUS
 62
    0
370
   -2
100
AcDbMText
 10
-892.5
 20
-310
 30
0
 40
10
 41
20.00000000000124
 71
    5
 72
    1
  1
330
  7
standard
210
0
220
0
230
1
 50
90
 73
    2
 44
1
  0
SOLID
  5
127
100
AcDbEntity
  8
1 Dims
  6
ByBlock
 62
    0
370
   -2
100
AcDbTrace
 10
-885
 20
-145
 30
0
 11
-883.3348613689086
 21
-155
 31
0
 12
-886.6651386310914
 22
-155
 32
0
 13
-886.6651386310914
 23
-155
 33
0
  0
SOLID
  5
128
100
AcDbEntity
  8
1 Dims
  6
ByBlock
 62
    0
370
   -2
100
AcDbTrace
 10
-885
 20
-475
 30
0
 11
-886.6651386310914
 21
-465
 31
0
 12
-883.3348613689086
 22
-465
 32
0
 13
-883.3348613689086
 23
-465
 33
0
  0
LINE
  5
129
100
AcDbEntity
  8
1 Dims
  6
ByBlock
 62
    0
370
   -2
100
AcDbLine
 10
-902.5
 20
-145
 11
-880
 21
-145
  0
LINE
  5
12A
100
AcDbEntity
  8
1 Dims
  6
ByBlock
 62
    0
370
   -2
100
AcDbLine
 10
-902.5
 20
-475
 11
-880
 21
-475
  0
ENDBLK
  5
5E
330
5C
100
AcDbEntity
  8
0
100
AcDbBlockEnd
  0
BLOCK
  5
60
330
5F
100
AcDbEntity
  8
0
100
AcDbBlockBegin
  2
*D63
 70
    1
 10
0
 20
0
  3
*D63
  1

  0
LINE
  5
12B
100
AcDbEntity
  8
1 Dims
  6
ByBlock
 62
    0
370
   -2
100
AcDbLine
 10
1027.5
 20
-220
 11
945
 21
-220
  0
LINE
  5
12C
100
AcDbEntity
  8
1 Dims
  6
ByBlock
 62
    0
370
   -2
100
AcDbLine
 10
1027.5
 20
-640
 11
945
 21
-640
  0
LINE
  5
12D
100
AcDbEntity
  8
1 Dims
  6
ByBlock
 62
    0
370
   -2
100
AcDbLine
 10
950
 20
-220
 11
950
 21
-640
  0
MTEXT
  5
12E
100
AcDbEntity
  8
1 Dims
  6
CONTINUOUS
 62
    0
370
   -2
100
AcDbMText
 10
942.5
 20
-430
 30
0
 40
10
 41
21.11111111111111
 71
    5
 72
    1
  1
420
  7
standard
210
0
220
0
230
1
 50
90
 73
    2
 44
1
  0
SOLID
  5
12F
100
AcDbEntity
  8
1 Dims
  6
ByBlock
 62
    0
370
   -2
100
AcDbTrace
 10
950
 20
-220
 30
0
 11
951.6651386310914
 21
-230
 31
0
 12
948.3348613689086
 22
-230
 32
0
 13
948.3348613689086
 23
-230
 33
0
  0
SOLID
  5
130
100
AcDbEntity
  8
1 Dims
  6
ByBlock
 62
    0
370
   -2
100
AcDbTrace
 10
950
 20
-640
 30
0
 11
948.3348613689086
 21
-630
 31
0
 12
951.6651386310914
 22
-630
 32
0
 13
951.6651386310914
 23
-630
 33
0
  0
ENDBLK
  5
61
330
5F
100
AcDbEntity
  8
0
100
AcDbBlockEnd
  0
BLOCK
  5
63
330
62
100
AcDbEntity
  8
0
100
AcDbBlockBegin
  2
*D53
 70
    1
 10
0
 20
0
  3
*D53
  1

  0
LINE
  5
131
100
AcDbEntity
  8
1 Dims
  6
ByBlock
 62
    0
370
   -2
100
AcDbLine
 10
1380
 20
202.5
 11
1380
 21
255
  0
LINE
  5
132
100
AcDbEntity
  8
1 Dims
  6
ByBlock
 62
    0
370
   -2
100
AcDbLine
 10
1080
 20
202.5
 11
1080
 21
255
  0
LINE
  5
133
100
AcDbEntity
  8
1 Dims
  6
ByBlock
 62
    0
370
   -2
100
AcDbLine
 10
1380
 20
250
 11
1080
 21
250
  0
MTEXT
  5
134
100
AcDbEntity
  8
1 Dims
  6
CONTINUOUS
 62
    0
370
   -2
100
AcDbMText
 10
1230
 20
257.5
 30
0
 40
10
 41
20.00000000000062
 71
    5
 72
    1
  1
300
  7
standard
210
0
220
0
230
1
 50
0
 73
    2
 44
1
  0
SOLID
  5
135
100
AcDbEntity
  8
1 Dims
  6
ByBlock
 62
    0
370
   -2
100
AcDbTrace
 10
1380
 20
250
 30
0
 11
1370
 21
248.3348613689086
 31
0
 12
1370
 22
251.6651386310914
 32
0
 13
1370
 23
251.6651386310914
 33
0
  0
SOLID
  5
136
100
AcDbEntity
  8
1 Dims
  6
ByBlock
 62
    0
370
   -2
100
AcDbTrace
 10
1080
 20
250
 30
0
 11
1090
 21
251.6651386310914
 31
0
 12
1090
 22
248.3348613689086
 32
0
 13
1090
 23
248.3348613689086
 33
0
  0
ENDBLK
  5
64
330
62
100
AcDbEntity
  8
0
100
AcDbBlockEnd
  0
BLOCK
  5
66
330
65
100
AcDbEntity
  8
0
100
AcDbBlockBegin
  2
*D30
 70
    1
 10
0
 20
0
  3
*D30
  1

  0
LINE
  5
137
100
AcDbEntity
  8
1 Dims
  6
ByBlock
 62
    0
370
   -2
100
AcDbLine
 10
-935
 20
-1160
 11
-815
 21
-1160
  0
MTEXT
  5
138
100
AcDbEntity
  8
1 Dims
  6
CONTINUOUS
 62
    0
370
   -2
100
AcDbMText
 10
-875
 20
-1152.5
 30
0
 40
10
 41
17.77777777777778
 71
    5
 72
    1
  1
120
  7
standard
210
0
220
0
230
1
 50
0
 73
    2
 44
1
  0
SOLID
  5
139
100
AcDbEntity
  8
1 Dims
  6
ByBlock
 62
    0
370
   -2
100
AcDbTrace
 10
-935
 20
-1160
 30
0
 11
-925
 21
-1158.334861368909
 31
0
 12
-925
 22
-1161.665138631091
 32
0
 13
-925
 23
-1161.665138631091
 33
0
  0
SOLID
  5
13A
100
AcDbEntity
  8
1 Dims
  6
ByBlock
 62
    0
370
   -2
100
AcDbTrace
 10
-815
 20
-1160
 30
0
 11
-825
 21
-1161.665138631091
 31
0
 12
-825
 22
-1158.334861368909
 32
0
 13
-825
 23
-1158.334861368909
 33
0
  0
LINE
  5
13B
100
AcDbEntity
  8
1 Dims
  6
ByBlock
 62
    0
370
   -2
100
AcDbLine
 10
-935
 20
-1142.5
 11
-935
 21
-1165
  0
LINE
  5
13C
100
AcDbEntity
  8
1 Dims
  6
ByBlock
 62
    0
370
   -2
100
AcDbLine
 10
-815
 20
-1142.5
 11
-815
 21
-1165
  0
ENDBLK
  5
67
330
65
100
AcDbEntity
  8
0
100
AcDbBlockEnd
  0
BLOCK
  5
69
330
68
100
AcDbEntity
  8
0
100
AcDbBlockBegin
  2
*D39
 70
    1
 10
0
 20
0
  3
*D39
  1

  0
LINE
  5
13D
100
AcDbEntity
  8
1 Dims
  6
ByBlock
 62
    0
370
   -2
100
AcDbLine
 10
-935
 20
-680
 11
-815
 21
-680
  0
MTEXT
  5
13E
100
AcDbEntity
  8
1 Dims
  6
CONTINUOUS
 62
    0
370
   -2
100
AcDbMText
 10
-875
 20
-672.5
 30
0
 40
10
 41
17.77777777777778
 71
    5
 72
    1
  1
120
  7
standard
210
0
220
0
230
1
 50
0
 73
    2
 44
1
  0
SOLID
  5
13F
100
AcDbEntity
  8
1 Dims
  6
ByBlock
 62
    0
370
   -2
100
AcDbTrace
 10
-935
 20
-680
 30
0
 11
-925
 21
-678.3348613689086
 31
0
 12
-925
 22
-681.6651386310914
 32
0
 13
-925
 23
-681.6651386310914
 33
0
  0
SOLID
  5
140
100
AcDbEntity
  8
1 Dims
  6
ByBlock
 62
    0
370
   -2
100
AcDbTrace
 10
-815
 20
-680
 30
0
 11
-825
 21
-681.6651386310914
 31
0
 12
-825
 22
-678.3348613689086
 32
0
 13
-825
 23
-678.3348613689086
 33
0
  0
LINE
  5
141
100
AcDbEntity
  8
1 Dims
  6
ByBlock
 62
    0
370
   -2
100
AcDbLine
 10
-935
 20
-717.5
 11
-935
 21
-675
  0
LINE
  5
142
100
AcDbEntity
  8
1 Dims
  6
ByBlock
 62
    0
370
   -2
100
AcDbLine
 10
-815
 20
-717.5
 11
-815
 21
-675
  0
ENDBLK
  5
6A
330
68
100
AcDbEntity
  8
0
100
AcDbBlockEnd
  0
BLOCK
  5
6C
330
6B
100
AcDbEntity
  8
0
100
AcDbBlockBegin
  2
*D11
 70
    1
 10
0
 20
0
  3
*D11
  1

  0
LINE
  5
143
100
AcDbEntity
  8
1 Dims
  6
ByBlock
 62
    0
370
   -2
100
AcDbLine
 10
-145
 20
-145
 11
-145
 21
-115
  0
MTEXT
  5
144
100
AcDbEntity
  8
1 Dims
  6
CONTINUOUS
 62
    0
370
   -2
100
AcDbMText
 10
-152.5
 20
-130
 30
0
 40
10
 41
12.22222222222284
 71
    5
 72
    1
  1
30
  7
standard
210
0
220
0
230
1
 50
90
 73
    2
 44
1
  0
SOLID
  5
145
100
AcDbEntity
  8
1 Dims
  6
ByBlock
 62
    0
370
   -2
100
AcDbTrace
 10
-145
 20
-145
 30
0
 11
-146.6651386310914
 21
-135
 31
0
 12
-143.3348613689086
 22
-135
 32
0
 13
-143.3348613689086
 23
-135
 33
0
  0
SOLID
  5
146
100
AcDbEntity
  8
1 Dims
  6
ByBlock
 62
    0
370
   -2
100
AcDbTrace
 10
-145
 20
-115
 30
0
 11
-143.3348613689086
 21
-125
 31
0
 12
-146.6651386310914
 22
-125
 32
0
 13
-146.6651386310914
 23
-125
 33
0
  0
LINE
  5
147
100
AcDbEntity
  8
1 Dims
  6
ByBlock
 62
    0
370
   -2
100
AcDbLine
 10
-147.5
 20
-145
 11
-150
 21
-145
  0
LINE
  5
148
100
AcDbEntity
  8
1 Dims
  6
ByBlock
 62
    0
370
   -2
100
AcDbLine
 10
-147.5
 20
-115
 11
-150
 21
-115
  0
ENDBLK
  5
6D
330
6B
100
AcDbEntity
  8
0
100
AcDbBlockEnd
  0
BLOCK
  5
6F
330
6E
100
AcDbEntity
  8
0
100
AcDbBlockBegin
  2
*D54
 70
    1
 10
0
 20
0
  3
*D54
  1

  0
LINE
  5
149
100
AcDbEntity
  8
1 Dims
  6
ByBlock
 62
    0
370
   -2
100
AcDbLine
 10
1080
 20
202.5
 11
1080
 21
255
  0
LINE
  5
14A
100
AcDbEntity
  8
1 Dims
  6
ByBlock
 62
    0
370
   -2
100
AcDbLine
 10
1030
 20
202.5
 11
1030
 21
255
  0
LINE
  5
14B
100
AcDbEntity
  8
1 Dims
  6
ByBlock
 62
    0
370
   -2
100
AcDbLine
 10
1080
 20
250
 11
1030
 21
250
  0
MTEXT
  5
14C
100
AcDbEntity
  8
1 Dims
  6
CONTINUOUS
 62
    0
370
   -2
100
AcDbMText
 10
1055
 20
257.5
 30
0
 40
10
 41
12.22222222222284
 71
    5
 72
    1
  1
50
  7
standard
210
0
220
0
230
1
 50
0
 73
    2
 44
1
  0
SOLID
  5
14D
100
AcDbEntity
  8
1 Dims
  6
ByBlock
 62
    0
370
   -2
100
AcDbTrace
 10
1080
 20
250
 30
0
 11
1070
 21
248.3348613689086
 31
0
 12
1070
 22
251.6651386310914
 32
0
 13
1070
 23
251.6651386310914
 33
0
  0
SOLID
  5
14E
100
AcDbEntity
  8
1 Dims
  6
ByBlock
 62
    0
370
   -2
100
AcDbTrace
 10
1030
 20
250
 30
0
 11
1040
 21
251.6651386310914
 31
0
 12
1040
 22
248.3348613689086
 32
0
 13
1040
 23
248.3348613689086
 33
0
  0
ENDBLK
  5
70
330
6E
100
AcDbEntity
  8
0
100
AcDbBlockEnd
  0
BLOCK
  5
72
330
71
100
AcDbEntity
  8
0
100
AcDbBlockBegin
  2
*D27
 70
    1
 10
0
 20
0
  3
*D27
  1

  0
LINE
  5
14F
100
AcDbEntity
  8
1 Dims
  6
ByBlock
 62
    0
370
   -2
100
AcDbLine
 10
-1005
 20
300
 11
-1005
 21
250
  0
MTEXT
  5
150
100
AcDbEntity
  8
1 Dims
  6
CONTINUOUS
 62
    0
370
   -2
100
AcDbMText
 10
-1012.5
 20
275
 30
0
 40
10
 41
12.22222222222284
 71
    5
 72
    1
  1
50
  7
standard
210
0
220
0
230
1
 50
90
 73
    2
 44
1
  0
SOLID
  5
151
100
AcDbEntity
  8
1 Dims
  6
ByBlock
 62
    0
370
   -2
100
AcDbTrace
 10
-1005
 20
300
 30
0
 11
-1003.334861368909
 21
290
 31
0
 12
-1006.665138631091
 22
290
 32
0
 13
-1006.665138631091
 23
290
 33
0
  0
SOLID
  5
152
100
AcDbEntity
  8
1 Dims
  6
ByBlock
 62
    0
370
   -2
100
AcDbTrace
 10
-1005
 20
250
 30
0
 11
-1006.665138631091
 21
260
 31
0
 12
-1003.334861368909
 22
260
 32
0
 13
-1003.334861368909
 23
260
 33
0
  0
LINE
  5
153
100
AcDbEntity
  8
1 Dims
  6
ByBlock
 62
    0
370
   -2
100
AcDbLine
 10
-982.5
 20
300
 11
-1010
 21
300
  0
LINE
  5
154
100
AcDbEntity
  8
1 Dims
  6
ByBlock
 62
    0
370
   -2
100
AcDbLine
 10
-982.5
 20
250
 11
-1010
 21
250
  0
ENDBLK
  5
73
330
71
100
AcDbEntity
  8
0
100
AcDbBlockEnd
  0
BLOCK
  5
75
330
74
100
AcDbEntity
  8
0
100
AcDbBlockBegin
  2
*D17
 70
    1
 10
0
 20
0
  3
*D17
  1

  0
LINE
  5
155
100
AcDbEntity
  8
1 Dims
  6
ByBlock
 62
    0
370
   -2
100
AcDbLine
 10
114.9999999999999
 20
65
 11
504.9999999999999
 21
65
  0
MTEXT
  5
156
100
AcDbEntity
  8
1 Dims
  6
CONTINUOUS
 62
    0
370
   -2
100
AcDbMText
 10
309.9999999999999
 20
72.5
 30
0
 40
10
 41
20.00000000000124
 71
    5
 72
    1
  1
390
  7
standard
210
0
220
0
230
1
 50
0
 73
    2
 44
1
  0
SOLID
  5
157
100
AcDbEntity
  8
1 Dims
  6
ByBlock
 62
    0
370
   -2
100
AcDbTrace
 10
114.9999999999999
 20
65
 30
0
 11
124.9999999999999
 21
66.66513863109137
 31
0
 12
124.9999999999999
 22
63.33486136890863
 32
0
 13
124.9999999999999
 23
63.33486136890863
 33
0
  0
SOLID
  5
158
100
AcDbEntity
  8
1 Dims
  6
ByBlock
 62
    0
370
   -2
100
AcDbTrace
 10
504.9999999999999
 20
65
 30
0
 11
494.9999999999999
 21
63.33486136890864
 31
0
 12
494.9999999999999
 22
66.66513863109137
 32
0
 13
494.9999999999999
 23
66.66513863109137
 33
0
  0
LINE
  5
159
100
AcDbEntity
  8
1 Dims
  6
ByBlock
 62
    0
370
   -2
100
AcDbLine
 10
114.9999999999999
 20
97.4999999999999
 11
114.9999999999999
 21
60
  0
LINE
  5
15A
100
AcDbEntity
  8
1 Dims
  6
ByBlock
 62
    0
370
   -2
100
AcDbLine
 10
504.9999999999999
 20
97.4999999999999
 11
504.9999999999999
 21
60
  0
ENDBLK
  5
76
330
74
100
AcDbEntity
  8
0
100
AcDbBlockEnd
  0
BLOCK
  5
78
330
77
100
AcDbEntity
  8
0
100
AcDbBlockBegin
  2
*D4
 70
    1
 10
0
 20
0
  3
*D4
  1

  0
LINE
  5
15B
100
AcDbEntity
  8
1 Dims
  6
ByBlock
 62
    0
370
   -2
100
AcDbLine
 10
-285
 20
465
 11
-235
 21
465
  0
MTEXT
  5
15C
100
AcDbEntity
  8
1 Dims
  6
CONTINUOUS
 62
    0
370
   -2
100
AcDbMText
 10
-260
 20
472.5
 30
0
 40
10
 41
12.22222222222284
 71
    5
 72
    1
  1
50
  7
standard
210
0
220
0
230
1
 50
0
 73
    2
 44
1
  0
SOLID
  5
15D
100
AcDbEntity
  8
1 Dims
  6
ByBlock
 62
    0
370
   -2
100
AcDbTrace
 10
-285
 20
465
 30
0
 11
-275
 21
466.6651386310913
 31
0
 12
-275
 22
463.3348613689087
 32
0
 13
-275
 23
463.3348613689087
 33
0
  0
SOLID
  5
15E
100
AcDbEntity
  8
1 Dims
  6
ByBlock
 62
    0
370
   -2
100
AcDbTrace
 10
-235
 20
465
 30
0
 11
-245
 21
463.3348613689087
 31
0
 12
-245
 22
466.6651386310913
 32
0
 13
-245
 23
466.6651386310913
 33
0
  0
LINE
  5
15F
100
AcDbEntity
  8
1 Dims
  6
ByBlock
 62
    0
370
   -2
100
AcDbLine
 10
-285
 20
447.5
 11
-285
 21
470
  0
LINE
  5
160
100
AcDbEntity
  8
1 Dims
  6
ByBlock
 62
    0
370
   -2
100
AcDbLine
 10
-235
 20
447.5
 11
-235
 21
470
  0
ENDBLK
  5
79
330
77
100
AcDbEntity
  8
0
100
AcDbBlockEnd
  0
BLOCK
  5
7B
330
7A
100
AcDbEntity
  8
0
100
AcDbBlockBegin
  2
*D26
 70
    1
 10
0
 20
0
  3
*D26
  1

  0
LINE
  5
161
100
AcDbEntity
  8
1 Dims
  6
ByBlock
 62
    0
370
   -2
100
AcDbLine
 10
-135
 20
465
 11
-80
 21
465
  0
MTEXT
  5
162
100
AcDbEntity
  8
1 Dims
  6
CONTINUOUS
 62
    0
370
   -2
100
AcDbMText
 10
-107.5
 20
472.5
 30
0
 40
10
 41
10.00000000000062
 71
    5
 72
    1
  1
15
  7
standard
210
0
220
0
230
1
 50
0
 73
    2
 44
1
  0
SOLID
  5
163
100
AcDbEntity
  8
1 Dims
  6
ByBlock
 62
    0
370
   -2
100
AcDbTrace
 10
-115
 20
465
 30
0
 11
-125
 21
463.3348613689087
 31
0
 12
-125
 22
466.6651386310913
 32
0
 13
-125
 23
466.6651386310913
 33
0
  0
SOLID
  5
164
100
AcDbEntity
  8
1 Dims
  6
ByBlock
 62
    0
370
   -2
100
AcDbTrace
 10
-100
 20
465
 30
0
 11
-90
 21
466.6651386310913
 31
0
 12
-90
 22
463.3348613689087
 32
0
 13
-90
 23
463.3348613689087
 33
0
  0
LINE
  5
165
100
AcDbEntity
  8
1 Dims
  6
ByBlock
 62
    0
370
   -2
100
AcDbLine
 10
-115
 20
432.5
 11
-115
 21
470
  0
LINE
  5
166
100
AcDbEntity
  8
1 Dims
  6
ByBlock
 62
    0
370
   -2
100
AcDbLine
 10
-100
 20
432.5
 11
-100
 21
470
  0
ENDBLK
  5
7C
330
7A
100
AcDbEntity
  8
0
100
AcDbBlockEnd
  0
BLOCK
  5
7E
330
7D
100
AcDbEntity
  8
0
100
AcDbBlockBegin
  2
*D56
 70
    1
 10
0
 20
0
  3
*D56
  1

  0
LINE
  5
167
100
AcDbEntity
  8
1 Dims
  6
ByBlock
 62
    0
370
   -2
100
AcDbLine
 10
1800
 20
-1050
 11
1410
 21
-1050
  0
MTEXT
  5
168
100
AcDbEntity
  8
1 Dims
  6
CONTINUOUS
 62
    0
370
   -2
100
AcDbMText
 10
1605
 20
-1042.5
 30
0
 40
10
 41
20.00000000000124
 71
    5
 72
    1
  1
390
  7
standard
210
0
220
0
230
1
 50
0
 73
    2
 44
1
  0
SOLID
  5
169
100
AcDbEntity
  8
1 Dims
  6
ByBlock
 62
    0
370
   -2
100
AcDbTrace
 10
1800
 20
-1050
 30
0
 11
1790
 21
-1051.665138631091
 31
0
 12
1790
 22
-1048.334861368909
 32
0
 13
1790
 23
-1048.334861368909
 33
0
  0
SOLID
  5
16A
100
AcDbEntity
  8
1 Dims
  6
ByBlock
 62
    0
370
   -2
100
AcDbTrace
 10
1410
 20
-1050
 30
0
 11
1420
 21
-1048.334861368909
 31
0
 12
1420
 22
-1051.665138631091
 32
0
 13
1420
 23
-1051.665138631091
 33
0
  0
LINE
  5
16B
100
AcDbEntity
  8
1 Dims
  6
ByBlock
 62
    0
370
   -2
100
AcDbLine
 10
1800
 20
-1002.5
 11
1800
 21
-1055
  0
LINE
  5
16C
100
AcDbEntity
  8
1 Dims
  6
ByBlock
 62
    0
370
   -2
100
AcDbLine
 10
1410
 20
-982.5
 11
1410
 21
-1055
  0
ENDBLK
  5
7F
330
7D
100
AcDbEntity
  8
0
100
AcDbBlockEnd
  0
BLOCK
  5
81
330
80
100
AcDbEntity
  8
0
100
AcDbBlockBegin
  2
*D10
 70
    1
 10
0
 20
0
  3
*D10
  1

  0
LINE
  5
16D
100
AcDbEntity
  8
1 Dims
  6
ByBlock
 62
    0
370
   -2
100
AcDbLine
 10
-145
 20
-505
 11
-145
 21
-475
  0
MTEXT
  5
16E
100
AcDbEntity
  8
1 Dims
  6
CONTINUOUS
 62
    0
370
   -2
100
AcDbMText
 10
-152.5
 20
-490
 30
0
 40
10
 41
12.22222222222284
 71
    5
 72
    1
  1
30
  7
standard
210
0
220
0
230
1
 50
90
 73
    2
 44
1
  0
SOLID
  5
16F
100
AcDbEntity
  8
1 Dims
  6
ByBlock
 62
    0
370
   -2
100
AcDbTrace
 10
-145
 20
-505
 30
0
 11
-146.6651386310914
 21
-495
 31
0
 12
-143.3348613689086
 22
-495
 32
0
 13
-143.3348613689086
 23
-495
 33
0
  0
SOLID
  5
170
100
AcDbEntity
  8
1 Dims
  6
ByBlock
 62
    0
370
   -2
100
AcDbTrace
 10
-145
 20
-475
 30
0
 11
-143.3348613689086
 21
-485
 31
0
 12
-146.6651386310914
 22
-485
 32
0
 13
-146.6651386310914
 23
-485
 33
0
  0
LINE
  5
171
100
AcDbEntity
  8
1 Dims
  6
ByBlock
 62
    0
370
   -2
100
AcDbLine
 10
-147.5
 20
-505
 11
-150
 21
-505
  0
LINE
  5
172
100
AcDbEntity
  8
1 Dims
  6
ByBlock
 62
    0
370
   -2
100
AcDbLine
 10
-147.5
 20
-475
 11
-150
 21
-475
  0
ENDBLK
  5
82
330
80
100
AcDbEntity
  8
0
100
AcDbBlockEnd
  0
BLOCK
  5
84
330
83
100
AcDbEntity
  8
0
100
AcDbBlockBegin
  2
*D14
 70
    1
 10
0
 20
0
  3
*D14
  1

  0
LINE
  5
173
100
AcDbEntity
  8
1 Dims
  6
ByBlock
 62
    0
370
   -2
100
AcDbLine
 10
-950
 20
-80
 11
-100
 21
-80
  0
MTEXT
  5
174
100
AcDbEntity
  8
1 Dims
  6
CONTINUOUS
 62
    0
370
   -2
100
AcDbMText
 10
-525
 20
-72.5
 30
0
 40
10
 41
20.00000000000063
 71
    5
 72
    1
  1
850
  7
standard
210
0
220
0
230
1
 50
0
 73
    2
 44
1
  0
SOLID
  5
175
100
AcDbEntity
  8
1 Dims
  6
ByBlock
 62
    0
370
   -2
100
AcDbTrace
 10
-950
 20
-80
 30
0
 11
-940
 21
-78.33486136890863
 31
0
 12
-940
 22
-81.66513863109137
 32
0
 13
-940
 23
-81.66513863109137
 33
0
  0
SOLID
  5
176
100
AcDbEntity
  8
1 Dims
  6
ByBlock
 62
    0
370
   -2
100
AcDbTrace
 10
-100
 20
-80
 30
0
 11
-110
 21
-81.66513863109137
 31
0
 12
-110
 22
-78.33486136890863
 32
0
 13
-110
 23
-78.33486136890863
 33
0
  0
LINE
  5
177
100
AcDbEntity
  8
1 Dims
  6
ByBlock
 62
    0
370
   -2
100
AcDbLine
 10
-950
 20
-97.5
 11
-950
 21
-75
  0
LINE
  5
178
100
AcDbEntity
  8
1 Dims
  6
ByBlock
 62
    0
370
   -2
100
AcDbLine
 10
-100
 20
-97.5
 11
-100
 21
-75
  0
ENDBLK
  5
85
330
83
100
AcDbEntity
  8
0
100
AcDbBlockEnd
  0
BLOCK
  5
87
330
86
100
AcDbEntity
  8
0
100
AcDbBlockBegin
  2
*D12
 70
    1
 10
0
 20
0
  3
*D12
  1

  0
LINE
  5
179
100
AcDbEntity
  8
1 Dims
  6
ByBlock
 62
    0
370
   -2
100
AcDbLine
 10
-80
 20
-115
 11
-80
 21
-165
  0
MTEXT
  5
17A
100
AcDbEntity
  8
1 Dims
  6
CONTINUOUS
 62
    0
370
   -2
100
AcDbMText
 10
-87.5
 20
-140
 30
0
 40
10
 41
12.22222222222284
 71
    5
 72
    1
  1
50
  7
standard
210
0
220
0
230
1
 50
90
 73
    2
 44
1
  0
SOLID
  5
17B
100
AcDbEntity
  8
1 Dims
  6
ByBlock
 62
    0
370
   -2
100
AcDbTrace
 10
-80
 20
-115
 30
0
 11
-78.33486136890863
 21
-125
 31
0
 12
-81.66513863109137
 22
-125
 32
0
 13
-81.66513863109137
 23
-125
 33
0
  0
SOLID
  5
17C
100
AcDbEntity
  8
1 Dims
  6
ByBlock
 62
    0
370
   -2
100
AcDbTrace
 10
-80
 20
-165
 30
0
 11
-81.66513863109137
 21
-155
 31
0
 12
-78.33486136890863
 22
-155
 32
0
 13
-78.33486136890863
 23
-155
 33
0
  0
LINE
  5
17D
100
AcDbEntity
  8
1 Dims
  6
ByBlock
 62
    0
370
   -2
100
AcDbLine
 10
-97.5
 20
-115
 11
-75
 21
-115
  0
LINE
  5
17E
100
AcDbEntity
  8
1 Dims
  6
ByBlock
 62
    0
370
   -2
100
AcDbLine
 10
-97.5
 20
-165
 11
-75
 21
-165
  0
ENDBLK
  5
88
330
86
100
AcDbEntity
  8
0
100
AcDbBlockEnd
  0
BLOCK
  5
8A
330
89
100
AcDbEntity
  8
0
100
AcDbBlockBegin
  2
*D52
 70
    1
 10
0
 20
0
  3
*D52
  1

  0
LINE
  5
17F
100
AcDbEntity
  8
1 Dims
  6
ByBlock
 62
    0
370
   -2
100
AcDbLine
 10
1800
 20
202.5
 11
1800
 21
255
  0
LINE
  5
180
100
AcDbEntity
  8
1 Dims
  6
ByBlock
 62
    0
370
   -2
100
AcDbLine
 10
1380
 20
202.5
 11
1380
 21
255
  0
LINE
  5
181
100
AcDbEntity
  8
1 Dims
  6
ByBlock
 62
    0
370
   -2
100
AcDbLine
 10
1800
 20
250
 11
1380
 21
250
  0
MTEXT
  5
182
100
AcDbEntity
  8
1 Dims
  6
CONTINUOUS
 62
    0
370
   -2
100
AcDbMText
 10
1590
 20
257.5
 30
0
 40
10
 41
21.11111111111111
 71
    5
 72
    1
  1
420
  7
standard
210
0
220
0
230
1
 50
0
 73
    2
 44
1
  0
SOLID
  5
183
100
AcDbEntity
  8
1 Dims
  6
ByBlock
 62
    0
370
   -2
100
AcDbTrace
 10
1800
 20
250
 30
0
 11
1790
 21
248.3348613689086
 31
0
 12
1790
 22
251.6651386310914
 32
0
 13
1790
 23
251.6651386310914
 33
0
  0
SOLID
  5
184
100
AcDbEntity
  8
1 Dims
  6
ByBlock
 62
    0
370
   -2
100
AcDbTrace
 10
1380
 20
250
 30
0
 11
1390
 21
251.6651386310914
 31
0
 12
1390
 22
248.3348613689086
 32
0
 13
1390
 23
248.3348613689086
 33
0
  0
ENDBLK
  5
8B
330
89
100
AcDbEntity
  8
0
100
AcDbBlockEnd
  0
BLOCK
  5
8D
330
8C
100
AcDbEntity
  8
0
100
AcDbBlockBegin
  2
*D61
 70
    1
 10
0
 20
0
  3
*D61
  1

  0
LINE
  5
185
100
AcDbEntity
  8
1 Dims
  6
ByBlock
 62
    0
370
   -2
100
AcDbLine
 10
1077.5
 20
-700
 11
945
 21
-700
  0
LINE
  5
186
100
AcDbEntity
  8
1 Dims
  6
ByBlock
 62
    0
370
   -2
100
AcDbLine
 10
1077.5
 20
-650
 11
945
 21
-650
  0
LINE
  5
187
100
AcDbEntity
  8
1 Dims
  6
ByBlock
 62
    0
370
   -2
100
AcDbLine
 10
950
 20
-700
 11
950
 21
-650
  0
MTEXT
  5
188
100
AcDbEntity
  8
1 Dims
  6
CONTINUOUS
 62
    0
370
   -2
100
AcDbMText
 10
942.5
 20
-675
 30
0
 40
10
 41
12.22222222222284
 71
    5
 72
    1
  1
50
  7
standard
210
0
220
0
230
1
 50
90
 73
    2
 44
1
  0
SOLID
  5
189
100
AcDbEntity
  8
1 Dims
  6
ByBlock
 62
    0
370
   -2
100
AcDbTrace
 10
950
 20
-700
 30
0
 11
948.3348613689086
 21
-690
 31
0
 12
951.6651386310914
 22
-690
 32
0
 13
951.6651386310914
 23
-690
 33
0
  0
SOLID
  5
18A
100
AcDbEntity
  8
1 Dims
  6
ByBlock
 62
    0
370
   -2
100
AcDbTrace
 10
950
 20
-650
 30
0
 11
951.6651386310914
 21
-660
 31
0
 12
948.3348613689086
 22
-660
 32
0
 13
948.3348613689086
 23
-660
 33
0
  0
ENDBLK
  5
8E
330
8C
100
AcDbEntity
  8
0
100
AcDbBlockEnd
  0
BLOCK
  5
90
330
8F
100
AcDbEntity
  8
0
100
AcDbBlockBegin
  2
*D37
 70
    1
 10
0
 20
0
  3
*D37
  1

  0
LINE
  5
18B
100
AcDbEntity
  8
1 Dims
  6
ByBlock
 62
    0
370
   -2
100
AcDbLine
 10
-935
 20
-700
 11
-865
 21
-700
  0
MTEXT
  5
18C
100
AcDbEntity
  8
1 Dims
  6
CONTINUOUS
 62
    0
370
   -2
100
AcDbMText
 10
-900
 20
-692.5
 30
0
 40
10
 41
12.22222222222222
 71
    5
 72
    1
  1
70
  7
standard
210
0
220
0
230
1
 50
0
 73
    2
 44
1
  0
SOLID
  5
18D
100
AcDbEntity
  8
1 Dims
  6
ByBlock
 62
    0
370
   -2
100
AcDbTrace
 10
-935
 20
-700
 30
0
 11
-925
 21
-698.3348613689086
 31
0
 12
-925
 22
-701.6651386310914
 32
0
 13
-925
 23
-701.6651386310914
 33
0
  0
SOLID
  5
18E
100
AcDbEntity
  8
1 Dims
  6
ByBlock
 62
    0
370
   -2
100
AcDbTrace
 10
-865
 20
-700
 30
0
 11
-875
 21
-701.6651386310914
 31
0
 12
-875
 22
-698.3348613689086
 32
0
 13
-875
 23
-698.3348613689086
 33
0
  0
LINE
  5
18F
100
AcDbEntity
  8
1 Dims
  6
ByBlock
 62
    0
370
   -2
100
AcDbLine
 10
-935
 20
-717.5
 11
-935
 21
-695
  0
LINE
  5
190
100
AcDbEntity
  8
1 Dims
  6
ByBlock
 62
    0
370
   -2
100
AcDbLine
 10
-865
 20
-717.5
 11
-865
 21
-695
  0
ENDBLK
  5
91
330
8F
100
AcDbEntity
  8
0
100
AcDbBlockEnd
  0
BLOCK
  5
93
330
92
100
AcDbEntity
  8
0
100
AcDbBlockBegin
  2
*D6
 70
    1
 10
0
 20
0
  3
*D6
  1

  0
LINE
  5
191
100
AcDbEntity
  8
1 Dims
  6
ByBlock
 62
    0
370
   -2
100
AcDbLine
 10
99.99999999999983
 20
465
 11
520
 21
465
  0
MTEXT
  5
192
100
AcDbEntity
  8
1 Dims
  6
CONTINUOUS
 62
    0
370
   -2
100
AcDbMText
 10
309.9999999999999
 20
472.5
 30
0
 40
10
 41
21.11111111111111
 71
    5
 72
    1
  1
420
  7
standard
210
0
220
0
230
1
 50
0
 73
    2
 44
1
  0
SOLID
  5
193
100
AcDbEntity
  8
1 Dims
  6
ByBlock
 62
    0
370
   -2
100
AcDbTrace
 10
99.99999999999983
 20
465
 30
0
 11
109.9999999999998
 21
466.6651386310913
 31
0
 12
109.9999999999998
 22
463.3348613689087
 32
0
 13
109.9999999999998
 23
463.3348613689087
 33
0
  0
SOLID
  5
194
100
AcDbEntity
  8
1 Dims
  6
ByBlock
 62
    0
370
   -2
100
AcDbTrace
 10
520
 20
465
 30
0
 11
510
 21
463.3348613689087
 31
0
 12
510
 22
466.6651386310913
 32
0
 13
510
 23
466.6651386310913
 33
0
  0
LINE
  5
195
100
AcDbEntity
  8
1 Dims
  6
ByBlock
 62
    0
370
   -2
100
AcDbLine
 10
99.99999999999989
 20
432.4999999999999
 11
99.99999999999982
 21
470
  0
LINE
  5
196
100
AcDbEntity
  8
1 Dims
  6
ByBlock
 62
    0
370
   -2
100
AcDbLine
 10
520
 20
432.5
 11
520
 21
470
  0
ENDBLK
  5
94
330
92
100
AcDbEntity
  8
0
100
AcDbBlockEnd
  0
BLOCK
  5
96
330
95
100
AcDbEntity
  8
0
100
AcDbBlockBegin
  2
*D55
 70
    1
 10
0
 20
0
  3
*D55
  1

  0
LINE
  5
197
100
AcDbEntity
  8
1 Dims
  6
ByBlock
 62
    0
370
   -2
100
AcDbLine
 10
1000
 20
202.5
 11
1000
 21
305
  0
LINE
  5
198
100
AcDbEntity
  8
1 Dims
  6
ByBlock
 62
    0
370
   -2
100
AcDbLine
 10
1800
 20
202.5
 11
1800
 21
305
  0
LINE
  5
199
100
AcDbEntity
  8
1 Dims
  6
ByBlock
 62
    0
370
   -2
100
AcDbLine
 10
1000
 20
300
 11
1800
 21
300
  0
MTEXT
  5
19A
100
AcDbEntity
  8
1 Dims
  6
CONTINUOUS
 62
    0
370
   -2
100
AcDbMText
 10
1400
 20
307.5
 30
0
 40
10
 41
20
 71
    5
 72
    1
  1
800
  7
standard
210
0
220
0
230
1
 50
0
 73
    2
 44
1
  0
SOLID
  5
19B
100
AcDbEntity
  8
1 Dims
  6
ByBlock
 62
    0
370
   -2
100
AcDbTrace
 10
1000
 20
300
 30
0
 11
1010
 21
301.6651386310913
 31
0
 12
1010
 22
298.3348613689087
 32
0
 13
1010
 23
298.3348613689087
 33
0
  0
SOLID
  5
19C
100
AcDbEntity
  8
1 Dims
  6
ByBlock
 62
    0
370
   -2
100
AcDbTrace
 10
1800
 20
300
 30
0
 11
1790
 21
298.3348613689087
 31
0
 12
1790
 22
301.6651386310913
 32
0
 13
1790
 23
301.6651386310913
 33
0
  0
ENDBLK
  5
97
330
95
100
AcDbEntity
  8
0
100
AcDbBlockEnd
  0
BLOCK
  5
99
330
98
100
AcDbEntity
  8
0
100
AcDbBlockBegin
  2
*D8
 70
    1
 10
0
 20
0
  3
*D8
  1

  0
LINE
  5
19D
100
AcDbEntity
  8
1 Dims
  6
ByBlock
 62
    0
370
   -2
100
AcDbLine
 10
522.4999999999999
 20
429.9999999999999
 11
565
 21
429.9999999999999
  0
LINE
  5
19E
100
AcDbEntity
  8
1 Dims
  6
ByBlock
 62
    0
370
   -2
100
AcDbLine
 10
522.4999999999999
 20
99.9999999999999
 11
565
 21
99.9999999999999
  0
LINE
  5
19F
100
AcDbEntity
  8
1 Dims
  6
ByBlock
 62
    0
370
   -2
100
AcDbLine
 10
560
 20
429.9999999999999
 11
560
 21
99.9999999999999
  0
MTEXT
  5
1A0
100
AcDbEntity
  8
1 Dims
  6
CONTINUOUS
 62
    0
370
   -2
100
AcDbMText
 10
552.5
 20
264.9999999999999
 30
0
 40
10
 41
20.00000000000124
 71
    5
 72
    1
  1
330
  7
standard
210
0
220
0
230
1
 50
90
 73
    2
 44
1
  0
SOLID
  5
1A1
100
AcDbEntity
  8
1 Dims
  6
ByBlock
 62
    0
370
   -2
100
AcDbTrace
 10
560
 20
429.9999999999999
 30
0
 11
561.6651386310914
 21
419.9999999999999
 31
0
 12
558.3348613689086
 22
419.9999999999999
 32
0
 13
558.3348613689086
 23
419.9999999999999
 33
0
  0
SOLID
  5
1A2
100
AcDbEntity
  8
1 Dims
  6
ByBlock
 62
    0
370
   -2
100
AcDbTrace
 10
560
 20
99.9999999999999
 30
0
 11
558.3348613689086
 21
109.9999999999999
 31
0
 12
561.6651386310914
 22
109.9999999999999
 32
0
 13
561.6651386310914
 23
109.9999999999999
 33
0
  0
ENDBLK
  5
9A
330
98
100
AcDbEntity
  8
0
100
AcDbBlockEnd
  0
BLOCK
  5
9C
330
9B
100
AcDbEntity
  8
0
100
AcDbBlockBegin
  2
*D1
 70
    1
 10
0
 20
0
  3
*D1
  1

  0
LINE
  5
1A3
100
AcDbEntity
  8
1 Dims
  6
ByBlock
 62
    0
370
   -2
100
AcDbLine
 10
-935
 20
465
 11
-815
 21
465
  0
MTEXT
  5
1A4
100
AcDbEntity
  8
1 Dims
  6
CONTINUOUS
 62
    0
370
   -2
100
AcDbMText
 10
-875
 20
472.5
 30
0
 40
10
 41
17.77777777777778
 71
    5
 72
    1
  1
120
  7
standard
210
0
220
0
230
1
 50
0
 73
    2
 44
1
  0
SOLID
  5
1A5
100
AcDbEntity
  8
1 Dims
  6
ByBlock
 62
    0
370
   -2
100
AcDbTrace
 10
-935
 20
465
 30
0
 11
-925
 21
466.6651386310913
 31
0
 12
-925
 22
463.3348613689087
 32
0
 13
-925
 23
463.3348613689087
 33
0
  0
SOLID
  5
1A6
100
AcDbEntity
  8
1 Dims
  6
ByBlock
 62
    0
370
   -2
100
AcDbTrace
 10
-815
 20
465
 30
0
 11
-825
 21
463.3348613689087
 31
0
 12
-825
 22
466.6651386310913
 32
0
 13
-825
 23
466.6651386310913
 33
0
  0
LINE
  5
1A7
100
AcDbEntity
  8
1 Dims
  6
ByBlock
 62
    0
370
   -2
100
AcDbLine
 10
-935
 20
432.5
 11
-935
 21
470
  0
LINE
  5
1A8
100
AcDbEntity
  8
1 Dims
  6
ByBlock
 62
    0
370
   -2
100
AcDbLine
 10
-815
 20
447.5
 11
-815
 21
470
  0
ENDBLK
  5
9D
330
9B
100
AcDbEntity
  8
0
100
AcDbBlockEnd
  0
BLOCK
  5
9F
330
9E
100
AcDbEntity
  8
0
100
AcDbBlockBegin
  2
*D29
 70
    1
 10
0
 20
0
  3
*D29
  1

  0
LINE
  5
1A9
100
AcDbEntity
  8
1 Dims
  6
ByBlock
 62
    0
370
   -2
100
AcDbLine
 10
-985
 20
-540
 11
-935
 21
-540
  0
MTEXT
  5
1AA
100
AcDbEntity
  8
1 Dims
  6
CONTINUOUS
 62
    0
370
   -2
100
AcDbMText
 10
-960
 20
-532.5
 30
0
 40
10
 41
12.22222222222284
 71
    5
 72
    1
  1
50
  7
standard
210
0
220
0
230
1
 50
0
 73
    2
 44
1
  0
SOLID
  5
1AB
100
AcDbEntity
  8
1 Dims
  6
ByBlock
 62
    0
370
   -2
100
AcDbTrace
 10
-985
 20
-540
 30
0
 11
-975
 21
-538.3348613689086
 31
0
 12
-975
 22
-541.6651386310914
 32
0
 13
-975
 23
-541.6651386310914
 33
0
  0
SOLID
  5
1AC
100
AcDbEntity
  8
1 Dims
  6
ByBlock
 62
    0
370
   -2
100
AcDbTrace
 10
-935
 20
-540
 30
0
 11
-945
 21
-541.6651386310914
 31
0
 12
-945
 22
-538.3348613689086
 32
0
 13
-945
 23
-538.3348613689086
 33
0
  0
LINE
  5
1AD
100
AcDbEntity
  8
1 Dims
  6
ByBlock
 62
    0
370
   -2
100
AcDbLine
 10
-985
 20
-457.5
 11
-985
 21
-545
  0
LINE
  5
1AE
100
AcDbEntity
  8
1 Dims
  6
ByBlock
 62
    0
370
   -2
100
AcDbLine
 10
-935
 20
-457.5
 11
-935
 21
-545
  0
ENDBLK
  5
A0
330
9E
100
AcDbEntity
  8
0
100
AcDbBlockEnd
  0
BLOCK
  5
A2
330
A1
100
AcDbEntity
  8
0
100
AcDbBlockBegin
  2
*D38
 70
    1
 10
0
 20
0
  3
*D38
  1

  0
LINE
  5
1AF
100
AcDbEntity
  8
1 Dims
  6
ByBlock
 62
    0
370
   -2
100
AcDbLine
 10
-185
 20
-700
 11
-115
 21
-700
  0
MTEXT
  5
1B0
100
AcDbEntity
  8
1 Dims
  6
CONTINUOUS
 62
    0
370
   -2
100
AcDbMText
 10
-150
 20
-692.5
 30
0
 40
10
 41
12.22222222222222
 71
    5
 72
    1
  1
70
  7
standard
210
0
220
0
230
1
 50
0
 73
    2
 44
1
  0
SOLID
  5
1B1
100
AcDbEntity
  8
1 Dims
  6
ByBlock
 62
    0
370
   -2
100
AcDbTrace
 10
-185
 20
-700
 30
0
 11
-175
 21
-698.3348613689086
 31
0
 12
-175
 22
-701.6651386310914
 32
0
 13
-175
 23
-701.6651386310914
 33
0
  0
SOLID
  5
1B2
100
AcDbEntity
  8
1 Dims
  6
ByBlock
 62
    0
370
   -2
100
AcDbTrace
 10
-115
 20
-700
 30
0
 11
-125
 21
-701.6651386310914
 31
0
 12
-125
 22
-698.3348613689086
 32
0
 13
-125
 23
-698.3348613689086
 33
0
  0
LINE
  5
1B3
100
AcDbEntity
  8
1 Dims
  6
ByBlock
 62
    0
370
   -2
100
AcDbLine
 10
-185
 20
-717.5
 11
-185
 21
-695
  0
LINE
  5
1B4
100
AcDbEntity
  8
1 Dims
  6
ByBlock
 62
    0
370
   -2
100
AcDbLine
 10
-115
 20
-717.5
 11
-115
 21
-695
  0
ENDBLK
  5
A3
330
A1
100
AcDbEntity
  8
0
100
AcDbBlockEnd
  0
BLOCK
  5
A5
330
A4
100
AcDbEntity
  8
0
100
AcDbBlockBegin
  2
*D36
 70
    1
 10
0
 20
0
  3
*D36
  1

  0
LINE
  5
1B5
100
AcDbEntity
  8
1 Dims
  6
ByBlock
 62
    0
370
   -2
100
AcDbLine
 10
-935
 20
-1180
 11
-115
 21
-1180
  0
MTEXT
  5
1B6
100
AcDbEntity
  8
1 Dims
  6
CONTINUOUS
 62
    0
370
   -2
100
AcDbMText
 10
-525
 20
-1172.5
 30
0
 40
10
 41
20
 71
    5
 72
    1
  1
820
  7
standard
210
0
220
0
230
1
 50
0
 73
    2
 44
1
  0
SOLID
  5
1B7
100
AcDbEntity
  8
1 Dims
  6
ByBlock
 62
    0
370
   -2
100
AcDbTrace
 10
-935
 20
-1180
 30
0
 11
-925
 21
-1178.334861368909
 31
0
 12
-925
 22
-1181.665138631091
 32
0
 13
-925
 23
-1181.665138631091
 33
0
  0
SOLID
  5
1B8
100
AcDbEntity
  8
1 Dims
  6
ByBlock
 62
    0
370
   -2
100
AcDbTrace
 10
-115
 20
-1180
 30
0
 11
-125
 21
-1181.665138631091
 31
0
 12
-125
 22
-1178.334861368909
 32
0
 13
-125
 23
-1178.334861368909
 33
0
  0
LINE
  5
1B9
100
AcDbEntity
  8
1 Dims
  6
ByBlock
 62
    0
370
   -2
100
AcDbLine
 10
-935
 20
-1142.5
 11
-935
 21
-1185
  0
LINE
  5
1BA
100
AcDbEntity
  8
1 Dims
  6
ByBlock
 62
    0
370
   -2
100
AcDbLine
 10
-115
 20
-1142.5
 11
-115
 21
-1185
  0
ENDBLK
  5
A6
330
A4
100
AcDbEntity
  8
0
100
AcDbBlockEnd
  0
BLOCK
  5
A8
330
A7
100
AcDbEntity
  8
0
100
AcDbBlockBegin
  2
*D46
 70
    1
 10
0
 20
0
  3
*D46
  1

  0
LINE
  5
1BB
100
AcDbEntity
  8
1 Dims
  6
ByBlock
 62
    0
370
   -2
100
AcDbLine
 10
-920
 20
-507.5
 11
-920
 21
-555
  0
LINE
  5
1BC
100
AcDbEntity
  8
1 Dims
  6
ByBlock
 62
    0
370
   -2
100
AcDbLine
 10
-130
 20
-507.5
 11
-130
 21
-555
  0
LINE
  5
1BD
100
AcDbEntity
  8
1 Dims
  6
ByBlock
 62
    0
370
   -2
100
AcDbLine
 10
-920
 20
-550
 11
-130
 21
-550
  0
MTEXT
  5
1BE
100
AcDbEntity
  8
1 Dims
  6
CONTINUOUS
 62
    0
370
   -2
100
AcDbMText
 10
-525
 20
-542.5
 30
0
 40
10
 41
20.00000000000063
 71
    5
 72
    1
  1
790
  7
standard
210
0
220
0
230
1
 50
0
 73
    2
 44
1
  0
SOLID
  5
1BF
100
AcDbEntity
  8
1 Dims
  6
ByBlock
 62
    0
370
   -2
100
AcDbTrace
 10
-920
 20
-550
 30
0
 11
-910
 21
-548.3348613689086
 31
0
 12
-910
 22
-551.6651386310914
 32
0
 13
-910
 23
-551.6651386310914
 33
0
  0
SOLID
  5
1C0
100
AcDbEntity
  8
1 Dims
  6
ByBlock
 62
    0
370
   -2
100
AcDbTrace
 10
-130
 20
-550
 30
0
 11
-140
 21
-551.6651386310914
 31
0
 12
-140
 22
-548.3348613689086
 32
0
 13
-140
 23
-548.3348613689086
 33
0
  0
ENDBLK
  5
A9
330
A7
100
AcDbEntity
  8
0
100
AcDbBlockEnd
  0
BLOCK
  5
AB
330
AA
100
AcDbEntity
  8
0
100
AcDbBlockBegin
  2
*D51
 70
    1
 10
0
 20
0
  3
*D51
  1

  0
LINE
  5
1C1
100
AcDbEntity
  8
1 Dims
  6
ByBlock
 62
    0
370
   -2
100
AcDbLine
 10
1802.5
 20
200
 11
1905
 21
200
  0
LINE
  5
1C2
100
AcDbEntity
  8
1 Dims
  6
ByBlock
 62
    0
370
   -2
100
AcDbLine
 10
1802.5
 20
-1000
 11
1905
 21
-1000
  0
LINE
  5
1C3
100
AcDbEntity
  8
1 Dims
  6
ByBlock
 62
    0
370
   -2
100
AcDbLine
 10
1900
 20
200
 11
1900
 21
-1000
  0
MTEXT
  5
1C4
100
AcDbEntity
  8
1 Dims
  6
CONTINUOUS
 62
    0
370
   -2
100
AcDbMText
 10
1892.5
 20
-400
 30
0
 40
10
 41
25.55555555555556
 71
    5
 72
    1
  1
1200
  7
standard
210
0
220
0
230
1
 50
90
 73
    2
 44
1
  0
SOLID
  5
1C5
100
AcDbEntity
  8
1 Dims
  6
ByBlock
 62
    0
370
   -2
100
AcDbTrace
 10
1900
 20
200
 30
0
 11
1901.665138631091
 21
190
 31
0
 12
1898.334861368909
 22
190
 32
0
 13
1898.334861368909
 23
190
 33
0
  0
SOLID
  5
1C6
100
AcDbEntity
  8
1 Dims
  6
ByBlock
 62
    0
370
   -2
100
AcDbTrace
 10
1900
 20
-1000
 30
0
 11
1898.334861368909
 21
-990
 31
0
 12
1901.665138631091
 22
-990
 32
0
 13
1901.665138631091
 23
-990
 33
0
  0
ENDBLK
  5
AC
330
AA
100
AcDbEntity
  8
0
100
AcDbBlockEnd
  0
BLOCK
  5
AE
330
AD
100
AcDbEntity
  8
0
100
AcDbBlockBegin
  2
*D24
 70
    1
 10
0
 20
0
  3
*D24
  1

  0
LINE
  5
1C7
100
AcDbEntity
  8
1 Dims
  6
ByBlock
 62
    0
370
   -2
100
AcDbLine
 10
-235
 20
65
 11
-115
 21
65
  0
MTEXT
  5
1C8
100
AcDbEntity
  8
1 Dims
  6
CONTINUOUS
 62
    0
370
   -2
100
AcDbMText
 10
-175
 20
72.5
 30
0
 40
10
 41
17.77777777777778
 71
    5
 72
    1
  1
120
  7
standard
210
0
220
0
230
1
 50
0
 73
    2
 44
1
  0
SOLID
  5
1C9
100
AcDbEntity
  8
1 Dims
  6
ByBlock
 62
    0
370
   -2
100
AcDbTrace
 10
-235
 20
65
 30
0
 11
-225
 21
66.66513863109137
 31
0
 12
-225
 22
63.33486136890863
 32
0
 13
-225
 23
63.33486136890863
 33
0
  0
SOLID
  5
1CA
100
AcDbEntity
  8
1 Dims
  6
ByBlock
 62
    0
370
   -2
100
AcDbTrace
 10
-115
 20
65
 30
0
 11
-125
 21
63.33486136890864
 31
0
 12
-125
 22
66.66513863109137
 32
0
 13
-125
 23
66.66513863109137
 33
0
  0
LINE
  5
1CB
100
AcDbEntity
  8
1 Dims
  6
ByBlock
 62
    0
370
   -2
100
AcDbLine
 10
-235
 20
82.49999999999999
 11
-235
 21
60
  0
LINE
  5
1CC
100
AcDbEntity
  8
1 Dims
  6
ByBlock
 62
    0
370
   -2
100
AcDbLine
 10
-115
 20
97.5
 11
-115
 21
60
  0
ENDBLK
  5
AF
330
AD
100
AcDbEntity
  8
0
100
AcDbBlockEnd
  0
BLOCK
  5
B1
330
B0
100
AcDbEntity
  8
0
100
AcDbBlockBegin
  2
*D19
 70
    1
 10
0
 20
0
  3
*D19
  1

  0
LINE
  5
1CD
100
AcDbEntity
  8
1 Dims
  6
ByBlock
 62
    0
370
   -2
100
AcDbLine
 10
-815
 20
65
 11
-765
 21
65
  0
MTEXT
  5
1CE
100
AcDbEntity
  8
1 Dims
  6
CONTINUOUS
 62
    0
370
   -2
100
AcDbMText
 10
-790
 20
72.5
 30
0
 40
10
 41
12.22222222222284
 71
    5
 72
    1
  1
50
  7
standard
210
0
220
0
230
1
 50
0
 73
    2
 44
1
  0
SOLID
  5
1CF
100
AcDbEntity
  8
1 Dims
  6
ByBlock
 62
    0
370
   -2
100
AcDbTrace
 10
-815
 20
65
 30
0
 11
-805
 21
66.66513863109137
 31
0
 12
-805
 22
63.33486136890863
 32
0
 13
-805
 23
63.33486136890863
 33
0
  0
SOLID
  5
1D0
100
AcDbEntity
  8
1 Dims
  6
ByBlock
 62
    0
370
   -2
100
AcDbTrace
 10
-765
 20
65
 30
0
 11
-775
 21
63.33486136890864
 31
0
 12
-775
 22
66.66513863109137
 32
0
 13
-775
 23
66.66513863109137
 33
0
  0
LINE
  5
1D1
100
AcDbEntity
  8
1 Dims
  6
ByBlock
 62
    0
370
   -2
100
AcDbLine
 10
-815
 20
82.5
 11
-815
 21
60
  0
LINE
  5
1D2
100
AcDbEntity
  8
1 Dims
  6
ByBlock
 62
    0
370
   -2
100
AcDbLine
 10
-765
 20
82.5
 11
-765
 21
60
  0
ENDBLK
  5
B2
330
B0
100
AcDbEntity
  8
0
100
AcDbBlockEnd
  0
BLOCK
  5
B4
330
B3
100
AcDbEntity
  8
0
100
AcDbBlockBegin
  2
*D40
 70
    1
 10
0
 20
0
  3
*D40
  1

  0
LINE
  5
1D3
100
AcDbEntity
  8
1 Dims
  6
ByBlock
 62
    0
370
   -2
100
AcDbLine
 10
-115
 20
-680
 11
-235
 21
-680
  0
MTEXT
  5
1D4
100
AcDbEntity
  8
1 Dims
  6
CONTINUOUS
 62
    0
370
   -2
100
AcDbMText
 10
-175
 20
-672.5
 30
0
 40
10
 41
17.77777777777778
 71
    5
 72
    1
  1
120
  7
standard
210
0
220
0
230
1
 50
0
 73
    2
 44
1
  0
SOLID
  5
1D5
100
AcDbEntity
  8
1 Dims
  6
ByBlock
 62
    0
370
   -2
100
AcDbTrace
 10
-115
 20
-680
 30
0
 11
-125
 21
-681.6651386310914
 31
0
 12
-125
 22
-678.3348613689086
 32
0
 13
-125
 23
-678.3348613689086
 33
0
  0
SOLID
  5
1D6
100
AcDbEntity
  8
1 Dims
  6
ByBlock
 62
    0
370
   -2
100
AcDbTrace
 10
-235
 20
-680
 30
0
 11
-225
 21
-678.3348613689086
 31
0
 12
-225
 22
-681.6651386310914
 32
0
 13
-225
 23
-681.6651386310914
 33
0
  0
LINE
  5
1D7
100
AcDbEntity
  8
1 Dims
  6
ByBlock
 62
    0
370
   -2
100
AcDbLine
 10
-115
 20
-717.5
 11
-115
 21
-675
  0
LINE
  5
1D8
100
AcDbEntity
  8
1 Dims
  6
ByBlock
 62
    0
370
   -2
100
AcDbLine
 10
-235
 20
-717.5
 11
-235
 21
-675
  0
ENDBLK
  5
B5
330
B3
100
AcDbEntity
  8
0
100
AcDbBlockEnd
  0
BLOCK
  5
B7
330
B6
100
AcDbEntity
  8
0
100
AcDbBlockBegin
  2
*D62
 70
    1
 10
0
 20
0
  3
*D62
  1

  0
LINE
  5
1D9
100
AcDbEntity
  8
1 Dims
  6
ByBlock
 62
    0
370
   -2
100
AcDbLine
 10
1027.5
 20
200
 11
945
 21
200
  0
LINE
  5
1DA
100
AcDbEntity
  8
1 Dims
  6
ByBlock
 62
    0
370
   -2
100
AcDbLine
 10
1027.5
 20
-220
 11
945
 21
-220
  0
LINE
  5
1DB
100
AcDbEntity
  8
1 Dims
  6
ByBlock
 62
    0
370
   -2
100
AcDbLine
 10
950
 20
200
 11
950
 21
-220
  0
MTEXT
  5
1DC
100
AcDbEntity
  8
1 Dims
  6
CONTINUOUS
 62
    0
370
   -2
100
AcDbMText
 10
942.5
 20
-10
 30
0
 40
10
 41
21.11111111111111
 71
    5
 72
    1
  1
420
  7
standard
210
0
220
0
230
1
 50
90
 73
    2
 44
1
  0
SOLID
  5
1DD
100
AcDbEntity
  8
1 Dims
  6
ByBlock
 62
    0
370
   -2
100
AcDbTrace
 10
950
 20
200
 30
0
 11
951.6651386310914
 21
190
 31
0
 12
948.3348613689086
 22
190
 32
0
 13
948.3348613689086
 23
190
 33
0
  0
SOLID
  5
1DE
100
AcDbEntity
  8
1 Dims
  6
ByBlock
 62
    0
370
   -2
100
AcDbTrace
 10
950
 20
-220
 30
0
 11
948.3348613689086
 21
-210
 31
0
 12
951.6651386310914
 22
-210
 32
0
 13
951.6651386310914
 23
-210
 33
0
  0
ENDBLK
  5
B8
330
B6
100
AcDbEntity
  8
0
100
AcDbBlockEnd
  0
BLOCK
  5
BA
330
B9
100
AcDbEntity
  8
0
100
AcDbBlockBegin
  2
*D50
 70
    1
 10
0
 20
0
  3
*D50
  1

  0
LINE
  5
1DF
100
AcDbEntity
  8
1 Dims
  6
ByBlock
 62
    0
370
   -2
100
AcDbLine
 10
1802.5
 20
-950
 11
1855
 21
-950
  0
LINE
  5
1E0
100
AcDbEntity
  8
1 Dims
  6
ByBlock
 62
    0
370
   -2
100
AcDbLine
 10
1802.5
 20
-980
 11
1855
 21
-980
  0
LINE
  5
1E1
100
AcDbEntity
  8
1 Dims
  6
ByBlock
 62
    0
370
   -2
100
AcDbLine
 10
1850
 20
-950
 11
1850
 21
-980
  0
MTEXT
  5
1E2
100
AcDbEntity
  8
1 Dims
  6
CONTINUOUS
 62
    0
370
   -2
100
AcDbMText
 10
1842.5
 20
-965
 30
0
 40
10
 41
12.22222222222284
 71
    5
 72
    1
  1
30
  7
standard
210
0
220
0
230
1
 50
90
 73
    2
 44
1
  0
SOLID
  5
1E3
100
AcDbEntity
  8
1 Dims
  6
ByBlock
 62
    0
370
   -2
100
AcDbTrace
 10
1850
 20
-950
 30
0
 11
1851.665138631091
 21
-960
 31
0
 12
1848.334861368909
 22
-960
 32
0
 13
1848.334861368909
 23
-960
 33
0
  0
SOLID
  5
1E4
100
AcDbEntity
  8
1 Dims
  6
ByBlock
 62
    0
370
   -2
100
AcDbTrace
 10
1850
 20
-980
 30
0
 11
1848.334861368909
 21
-970
 31
0
 12
1851.665138631091
 22
-970
 32
0
 13
1851.665138631091
 23
-970
 33
0
  0
ENDBLK
  5
BB
330
B9
100
AcDbEntity
  8
0
100
AcDbBlockEnd
  0
BLOCK
  5
BD
330
BC
100
AcDbEntity
  8
0
100
AcDbBlockBegin
  2
*D22
 70
    1
 10
0
 20
0
  3
*D22
  1

  0
LINE
  5
1E5
100
AcDbEntity
  8
1 Dims
  6
ByBlock
 62
    0
370
   -2
100
AcDbLine
 10
-500
 20
65
 11
-285
 21
65
  0
MTEXT
  5
1E6
100
AcDbEntity
  8
1 Dims
  6
CONTINUOUS
 62
    0
370
   -2
100
AcDbMText
 10
-392.5
 20
72.5
 30
0
 40
10
 41
17.7777777777784
 71
    5
 72
    1
  1
215
  7
standard
210
0
220
0
230
1
 50
0
 73
    2
 44
1
  0
SOLID
  5
1E7
100
AcDbEntity
  8
1 Dims
  6
ByBlock
 62
    0
370
   -2
100
AcDbTrace
 10
-500
 20
65
 30
0
 11
-490
 21
66.66513863109137
 31
0
 12
-490
 22
63.33486136890863
 32
0
 13
-490
 23
63.33486136890863
 33
0
  0
SOLID
  5
1E8
100
AcDbEntity
  8
1 Dims
  6
ByBlock
 62
    0
370
   -2
100
AcDbTrace
 10
-285
 20
65
 30
0
 11
-295
 21
63.33486136890864
 31
0
 12
-295
 22
66.66513863109137
 32
0
 13
-295
 23
66.66513863109137
 33
0
  0
LINE
  5
1E9
100
AcDbEntity
  8
1 Dims
  6
ByBlock
 62
    0
370
   -2
100
AcDbLine
 10
-500
 20
82.49999999999999
 11
-500
 21
60
  0
LINE
  5
1EA
100
AcDbEntity
  8
1 Dims
  6
ByBlock
 62
    0
370
   -2
100
AcDbLine
 10
-285
 20
82.5
 11
-285
 21
60
  0
ENDBLK
  5
BE
330
BC
100
AcDbEntity
  8
0
100
AcDbBlockEnd
  0
BLOCK
  5
C0
330
BF
100
AcDbEntity
  8
0
100
AcDbBlockBegin
  2
*D45
 70
    1
 10
0
 20
0
  3
*D45
  1

  0
LINE
  5
1EB
100
AcDbEntity
  8
1 Dims
  6
ByBlock
 62
    0
370
   -2
100
AcDbLine
 10
135
 20
-700
 11
79.99999999999989
 21
-700
  0
MTEXT
  5
1EC
100
AcDbEntity
  8
1 Dims
  6
CONTINUOUS
 62
    0
370
   -2
100
AcDbMText
 10
107.4999999999999
 20
-692.5
 30
0
 40
10
 41
10.00000000000062
 71
    5
 72
    1
  1
15
  7
standard
210
0
220
0
230
1
 50
0
 73
    2
 44
1
  0
SOLID
  5
1ED
100
AcDbEntity
  8
1 Dims
  6
ByBlock
 62
    0
370
   -2
100
AcDbTrace
 10
115
 20
-700
 30
0
 11
125
 21
-698.3348613689086
 31
0
 12
125
 22
-701.6651386310914
 32
0
 13
125
 23
-701.6651386310914
 33
0
  0
SOLID
  5
1EE
100
AcDbEntity
  8
1 Dims
  6
ByBlock
 62
    0
370
   -2
100
AcDbTrace
 10
99.99999999999989
 20
-700
 30
0
 11
89.99999999999989
 21
-701.6651386310914
 31
0
 12
89.99999999999989
 22
-698.3348613689086
 32
0
 13
89.99999999999989
 23
-698.3348613689086
 33
0
  0
LINE
  5
1EF
100
AcDbEntity
  8
1 Dims
  6
ByBlock
 62
    0
370
   -2
100
AcDbLine
 10
115
 20
-732.5
 11
115
 21
-695
  0
LINE
  5
1F0
100
AcDbEntity
  8
1 Dims
  6
ByBlock
 62
    0
370
   -2
100
AcDbLine
 10
99.99999999999989
 20
-717.5000000000001
 11
99.99999999999989
 21
-695
  0
ENDBLK
  5
C1
330
BF
100
AcDbEntity
  8
0
100
AcDbBlockEnd
  0
BLOCK
  5
C3
330
C2
100
AcDbEntity
  8
0
100
AcDbBlockBegin
  2
*D15
 70
    1
 10
0
 20
0
  3
*D15
  1

  0
LINE
  5
1F1
100
AcDbEntity
  8
1 Dims
  6
ByBlock
 62
    0
370
   -2
100
AcDbLine
 10
-1005
 20
-165
 11
-1005
 21
-455
  0
MTEXT
  5
1F2
100
AcDbEntity
  8
1 Dims
  6
CONTINUOUS
 62
    0
370
   -2
100
AcDbMText
 10
-1012.5
 20
-310
 30
0
 40
10
 41
20.00000000000063
 71
    5
 72
    1
  1
290
  7
standard
210
0
220
0
230
1
 50
90
 73
    2
 44
1
  0
SOLID
  5
1F3
100
AcDbEntity
  8
1 Dims
  6
ByBlock
 62
    0
370
   -2
100
AcDbTrace
 10
-1005
 20
-165
 30
0
 11
-1003.334861368909
 21
-175
 31
0
 12
-1006.665138631091
 22
-175
 32
0
 13
-1006.665138631091
 23
-175
 33
0
  0
SOLID
  5
1F4
100
AcDbEntity
  8
1 Dims
  6
ByBlock
 62
    0
370
   -2
100
AcDbTrace
 10
-1005
 20
-455
 30
0
 11
-1006.665138631091
 21
-445
 31
0
 12
-1003.334861368909
 22
-445
 32
0
 13
-1003.334861368909
 23
-445
 33
0
  0
LINE
  5
1F5
100
AcDbEntity
  8
1 Dims
  6
ByBlock
 62
    0
370
   -2
100
AcDbLine
 10
-987.5
 20
-165
 11
-1010
 21
-165
  0
LINE
  5
1F6
100
AcDbEntity
  8
1 Dims
  6
ByBlock
 62
    0
370
   -2
100
AcDbLine
 10
-987.5
 20
-455
 11
-1010
 21
-455
  0
ENDBLK
  5
C4
330
C2
100
AcDbEntity
  8
0
100
AcDbBlockEnd
  0
BLOCK
  5
C6
330
C5
100
AcDbEntity
  8
0
100
AcDbBlockBegin
  2
*D34
 70
    1
 10
0
 20
0
  3
*D34
  1

  0
LINE
  5
1F7
100
AcDbEntity
  8
1 Dims
  6
ByBlock
 62
    0
370
   -2
100
AcDbLine
 10
-525
 20
-1160
 11
-285
 21
-1160
  0
MTEXT
  5
1F8
100
AcDbEntity
  8
1 Dims
  6
CONTINUOUS
 62
    0
370
   -2
100
AcDbMText
 10
-405
 20
-1152.5
 30
0
 40
10
 41
21.11111111111111
 71
    5
 72
    1
  1
240
  7
standard
210
0
220
0
230
1
 50
0
 73
    2
 44
1
  0
SOLID
  5
1F9
100
AcDbEntity
  8
1 Dims
  6
ByBlock
 62
    0
370
   -2
100
AcDbTrace
 10
-525
 20
-1160
 30
0
 11
-515
 21
-1158.334861368909
 31
0
 12
-515
 22
-1161.665138631091
 32
0
 13
-515
 23
-1161.665138631091
 33
0
  0
SOLID
  5
1FA
100
AcDbEntity
  8
1 Dims
  6
ByBlock
 62
    0
370
   -2
100
AcDbTrace
 10
-285
 20
-1160
 30
0
 11
-295
 21
-1161.665138631091
 31
0
 12
-295
 22
-1158.334861368909
 32
0
 13
-295
 23
-1158.334861368909
 33
0
  0
LINE
  5
1FB
100
AcDbEntity
  8
1 Dims
  6
ByBlock
 62
    0
370
   -2
100
AcDbLine
 10
-525
 20
-1142.5
 11
-525
 21
-1165
  0
LINE
  5
1FC
100
AcDbEntity
  8
1 Dims
  6
ByBlock
 62
    0
370
   -2
100
AcDbLine
 10
-285
 20
-1142.5
 11
-285
 21
-1165
  0
ENDBLK
  5
C7
330
C5
100
AcDbEntity
  8
0
100
AcDbBlockEnd
  0
BLOCK
  5
C9
330
C8
100
AcDbEntity
  8
0
100
AcDbBlockBegin
  2
*D7
 70
    1
 10
0
 20
0
  3
*D7
  1

  0
LINE
  5
1FD
100
AcDbEntity
  8
1 Dims
  6
ByBlock
 62
    0
370
   -2
100
AcDbLine
 10
522.4999999999999
 20
414.9999999999999
 11
545
 21
414.9999999999999
  0
LINE
  5
1FE
100
AcDbEntity
  8
1 Dims
  6
ByBlock
 62
    0
370
   -2
100
AcDbLine
 10
522.4999999999999
 20
114.9999999999999
 11
545
 21
114.9999999999999
  0
LINE
  5
1FF
100
AcDbEntity
  8
1 Dims
  6
ByBlock
 62
    0
370
   -2
100
AcDbLine
 10
540
 20
414.9999999999999
 11
540
 21
114.9999999999999
  0
MTEXT
  5
200
100
AcDbEntity
  8
1 Dims
  6
CONTINUOUS
 62
    0
370
   -2
100
AcDbMText
 10
532.5
 20
264.9999999999999
 30
0
 40
10
 41
20.00000000000062
 71
    5
 72
    1
  1
300
  7
standard
210
0
220
0
230
1
 50
90
 73
    2
 44
1
  0
SOLID
  5
201
100
AcDbEntity
  8
1 Dims
  6
ByBlock
 62
    0
370
   -2
100
AcDbTrace
 10
540
 20
414.9999999999999
 30
0
 11
541.6651386310914
 21
404.9999999999999
 31
0
 12
538.3348613689086
 22
404.9999999999999
 32
0
 13
538.3348613689086
 23
404.9999999999999
 33
0
  0
SOLID
  5
202
100
AcDbEntity
  8
1 Dims
  6
ByBlock
 62
    0
370
   -2
100
AcDbTrace
 10
540
 20
114.9999999999999
 30
0
 11
538.3348613689086
 21
124.9999999999999
 31
0
 12
541.6651386310914
 22
124.9999999999999
 32
0
 13
541.6651386310914
 23
124.9999999999999
 33
0
  0
ENDBLK
  5
CA
330
C8
100
AcDbEntity
  8
0
100
AcDbBlockEnd
  0
BLOCK
  5
CC
330
CB
100
AcDbEntity
  8
0
100
AcDbBlockBegin
  2
*D43
 70
    1
 10
0
 20
0
  3
*D43
  1

  0
LINE
  5
203
100
AcDbEntity
  8
1 Dims
  6
ByBlock
 62
    0
370
   -2
100
AcDbLine
 10
135
 20
-755
 11
135
 21
-700.0000000000001
  0
MTEXT
  5
204
100
AcDbEntity
  8
1 Dims
  6
CONTINUOUS
 62
    0
370
   -2
100
AcDbMText
 10
127.5
 20
-727.5
 30
0
 40
10
 41
10.00000000000062
 71
    5
 72
    1
  1
15
  7
standard
210
0
220
0
230
1
 50
90
 73
    2
 44
1
  0
SOLID
  5
205
100
AcDbEntity
  8
1 Dims
  6
ByBlock
 62
    0
370
   -2
100
AcDbTrace
 10
135
 20
-735
 30
0
 11
136.6651386310914
 21
-745
 31
0
 12
133.3348613689086
 22
-745
 32
0
 13
133.3348613689086
 23
-745
 33
0
  0
SOLID
  5
206
100
AcDbEntity
  8
1 Dims
  6
ByBlock
 62
    0
370
   -2
100
AcDbTrace
 10
135
 20
-720.0000000000001
 30
0
 11
133.3348613689086
 21
-710.0000000000001
 31
0
 12
136.6651386310914
 22
-710.0000000000001
 32
0
 13
136.6651386310914
 23
-710.0000000000001
 33
0
  0
LINE
  5
207
100
AcDbEntity
  8
1 Dims
  6
ByBlock
 62
    0
370
   -2
100
AcDbLine
 10
117.5
 20
-735
 11
140
 21
-735
  0
LINE
  5
208
100
AcDbEntity
  8
1 Dims
  6
ByBlock
 62
    0
370
   -2
100
AcDbLine
 10
102.4999999999999
 20
-720.0000000000001
 11
140
 21
-720.0000000000001
  0
ENDBLK
  5
CD
330
CB
100
AcDbEntity
  8
0
100
AcDbBlockEnd
  0
BLOCK
  5
CF
330
CE
100
AcDbEntity
  8
0
100
AcDbBlockBegin
  2
*D47
 70
    1
 10
0
 20
0
  3
*D47
  1

  0
LINE
  5
209
100
AcDbEntity
  8
1 Dims
  6
ByBlock
 62
    0
370
   -2
100
AcDbLine
 10
-952.5
 20
-115
 11
-1055
 21
-115
  0
LINE
  5
20A
100
AcDbEntity
  8
1 Dims
  6
ByBlock
 62
    0
370
   -2
100
AcDbLine
 10
-952.5
 20
-505
 11
-1055
 21
-505
  0
LINE
  5
20B
100
AcDbEntity
  8
1 Dims
  6
ByBlock
 62
    0
370
   -2
100
AcDbLine
 10
-1050
 20
-115
 11
-1050
 21
-505
  0
MTEXT
  5
20C
100
AcDbEntity
  8
1 Dims
  6
CONTINUOUS
 62
    0
370
   -2
100
AcDbMText
 10
-1057.5
 20
-310
 30
0
 40
10
 41
20.00000000000124
 71
    5
 72
    1
  1
390
  7
standard
210
0
220
0
230
1
 50
90
 73
    2
 44
1
  0
SOLID
  5
20D
100
AcDbEntity
  8
1 Dims
  6
ByBlock
 62
    0
370
   -2
100
AcDbTrace
 10
-1050
 20
-115
 30
0
 11
-1048.334861368909
 21
-125
 31
0
 12
-1051.665138631091
 22
-125
 32
0
 13
-1051.665138631091
 23
-125
 33
0
  0
SOLID
  5
20E
100
AcDbEntity
  8
1 Dims
  6
ByBlock
 62
    0
370
   -2
100
AcDbTrace
 10
-1050
 20
-505
 30
0
 11
-1051.665138631091
 21
-495
 31
0
 12
-1048.334861368909
 22
-495
 32
0
 13
-1048.334861368909
 23
-495
 33
0
  0
ENDBLK
  5
D0
330
CE
100
AcDbEntity
  8
0
100
AcDbBlockEnd
  0
BLOCK
  5
D2
330
D1
100
AcDbEntity
  8
0
100
AcDbBlockBegin
  2
*D25
 70
    1
 10
0
 20
0
  3
*D25
  1

  0
LINE
  5
20F
100
AcDbEntity
  8
1 Dims
  6
ByBlock
 62
    0
370
   -2
100
AcDbLine
 10
-970
 20
465
 11
-915
 21
465
  0
MTEXT
  5
210
100
AcDbEntity
  8
1 Dims
  6
CONTINUOUS
 62
    0
370
   -2
100
AcDbMText
 10
-942.5
 20
472.5
 30
0
 40
10
 41
10.00000000000062
 71
    5
 72
    1
  1
15
  7
standard
210
0
220
0
230
1
 50
0
 73
    2
 44
1
  0
SOLID
  5
211
100
AcDbEntity
  8
1 Dims
  6
ByBlock
 62
    0
370
   -2
100
AcDbTrace
 10
-950
 20
465
 30
0
 11
-960
 21
463.3348613689087
 31
0
 12
-960
 22
466.6651386310913
 32
0
 13
-960
 23
466.6651386310913
 33
0
  0
SOLID
  5
212
100
AcDbEntity
  8
1 Dims
  6
ByBlock
 62
    0
370
   -2
100
AcDbTrace
 10
-935
 20
465
 30
0
 11
-925
 21
466.6651386310913
 31
0
 12
-925
 22
463.3348613689087
 32
0
 13
-925
 23
463.3348613689087
 33
0
  0
LINE
  5
213
100
AcDbEntity
  8
1 Dims
  6
ByBlock
 62
    0
370
   -2
100
AcDbLine
 10
-950
 20
432.5
 11
-950
 21
470
  0
LINE
  5
214
100
AcDbEntity
  8
1 Dims
  6
ByBlock
 62
    0
370
   -2
100
AcDbLine
 10
-935
 20
432.5
 11
-935
 21
470
  0
ENDBLK
  5
D3
330
D1
100
AcDbEntity
  8
0
100
AcDbBlockEnd
  0
BLOCK
  5
D5
330
D4
100
AcDbEntity
  8
0
100
AcDbBlockBegin
  2
*D60
 70
    1
 10
0
 20
0
  3
*D60
  1

  0
LINE
  5
215
100
AcDbEntity
  8
1 Dims
  6
ByBlock
 62
    0
370
   -2
100
AcDbLine
 10
1077.5
 20
-750
 11
945
 21
-750
  0
LINE
  5
216
100
AcDbEntity
  8
1 Dims
  6
ByBlock
 62
    0
370
   -2
100
AcDbLine
 10
1077.5
 20
-700
 11
945
 21
-700
  0
LINE
  5
217
100
AcDbEntity
  8
1 Dims
  6
ByBlock
 62
    0
370
   -2
100
AcDbLine
 10
950
 20
-750
 11
950
 21
-700
  0
MTEXT
  5
218
100
AcDbEntity
  8
1 Dims
  6
CONTINUOUS
 62
    0
370
   -2
100
AcDbMText
 10
942.5
 20
-725
 30
0
 40
10
 41
12.22222222222284
 71
    5
 72
    1
  1
50
  7
standard
210
0
220
0
230
1
 50
90
 73
    2
 44
1
  0
SOLID
  5
219
100
AcDbEntity
  8
1 Dims
  6
ByBlock
 62
    0
370
   -2
100
AcDbTrace
 10
950
 20
-750
 30
0
 11
948.3348613689086
 21
-740
 31
0
 12
951.6651386310914
 22
-740
 32
0
 13
951.6651386310914
 23
-740
 33
0
  0
SOLID
  5
21A
100
AcDbEntity
  8
1 Dims
  6
ByBlock
 62
    0
370
   -2
100
AcDbTrace
 10
950
 20
-700
 30
0
 11
951.6651386310914
 21
-710
 31
0
 12
948.3348613689086
 22
-710
 32
0
 13
948.3348613689086
 23
-710
 33
0
  0
ENDBLK
  5
D6
330
D4
100
AcDbEntity
  8
0
100
AcDbBlockEnd
  0
BLOCK
  5
D8
330
D7
100
AcDbEntity
  8
0
100
AcDbBlockBegin
  2
*D33
 70
    1
 10
0
 20
0
  3
*D33
  1

  0
LINE
  5
21B
100
AcDbEntity
  8
1 Dims
  6
ByBlock
 62
    0
370
   -2
100
AcDbLine
 10
-235
 20
-1160
 11
-115
 21
-1160
  0
MTEXT
  5
21C
100
AcDbEntity
  8
1 Dims
  6
CONTINUOUS
 62
    0
370
   -2
100
AcDbMText
 10
-175
 20
-1152.5
 30
0
 40
10
 41
17.77777777777778
 71
    5
 72
    1
  1
120
  7
standard
210
0
220
0
230
1
 50
0
 73
    2
 44
1
  0
SOLID
  5
21D
100
AcDbEntity
  8
1 Dims
  6
ByBlock
 62
    0
370
   -2
100
AcDbTrace
 10
-235
 20
-1160
 30
0
 11
-225
 21
-1158.334861368909
 31
0
 12
-225
 22
-1161.665138631091
 32
0
 13
-225
 23
-1161.665138631091
 33
0
  0
SOLID
  5
21E
100
AcDbEntity
  8
1 Dims
  6
ByBlock
 62
    0
370
   -2
100
AcDbTrace
 10
-115
 20
-1160
 30
0
 11
-125
 21
-1161.665138631091
 31
0
 12
-125
 22
-1158.334861368909
 32
0
 13
-125
 23
-1158.334861368909
 33
0
  0
LINE
  5
21F
100
AcDbEntity
  8
1 Dims
  6
ByBlock
 62
    0
370
   -2
100
AcDbLine
 10
-235
 20
-1142.5
 11
-235
 21
-1165
  0
LINE
  5
220
100
AcDbEntity
  8
1 Dims
  6
ByBlock
 62
    0
370
   -2
100
AcDbLine
 10
-115
 20
-1142.5
 11
-115
 21
-1165
  0
ENDBLK
  5
D9
330
D7
100
AcDbEntity
  8
0
100
AcDbBlockEnd
  0
BLOCK
  5
DB
330
DA
100
AcDbEntity
  8
0
100
AcDbBlockBegin
  2
*D20
 70
    1
 10
0
 20
0
  3
*D20
  1

  0
LINE
  5
221
100
AcDbEntity
  8
1 Dims
  6
ByBlock
 62
    0
370
   -2
100
AcDbLine
 10
-765
 20
65
 11
-550
 21
65
  0
MTEXT
  5
222
100
AcDbEntity
  8
1 Dims
  6
CONTINUOUS
 62
    0
370
   -2
100
AcDbMText
 10
-657.5
 20
72.5
 30
0
 40
10
 41
17.7777777777784
 71
    5
 72
    1
  1
215
  7
standard
210
0
220
0
230
1
 50
0
 73
    2
 44
1
  0
SOLID
  5
223
100
AcDbEntity
  8
1 Dims
  6
ByBlock
 62
    0
370
   -2
100
AcDbTrace
 10
-765
 20
65
 30
0
 11
-755
 21
66.66513863109137
 31
0
 12
-755
 22
63.33486136890863
 32
0
 13
-755
 23
63.33486136890863
 33
0
  0
SOLID
  5
224
100
AcDbEntity
  8
1 Dims
  6
ByBlock
 62
    0
370
   -2
100
AcDbTrace
 10
-550
 20
65
 30
0
 11
-560
 21
63.33486136890864
 31
0
 12
-560
 22
66.66513863109137
 32
0
 13
-560
 23
66.66513863109137
 33
0
  0
LINE
  5
225
100
AcDbEntity
  8
1 Dims
  6
ByBlock
 62
    0
370
   -2
100
AcDbLine
 10
-765
 20
82.49999999999999
 11
-765
 21
60
  0
LINE
  5
226
100
AcDbEntity
  8
1 Dims
  6
ByBlock
 62
    0
370
   -2
100
AcDbLine
 10
-550
 20
82.49999999999999
 11
-550
 21
60
  0
ENDBLK
  5
DC
330
DA
100
AcDbEntity
  8
0
100
AcDbBlockEnd
  0
BLOCK
  5
DE
330
DD
100
AcDbEntity
  8
0
100
AcDbBlockBegin
  2
*D13
 70
    1
 10
0
 20
0
  3
*D13
  1

  0
LINE
  5
227
100
AcDbEntity
  8
1 Dims
  6
ByBlock
 62
    0
370
   -2
100
AcDbLine
 10
-80
 20
-455
 11
-80
 21
-505
  0
MTEXT
  5
228
100
AcDbEntity
  8
1 Dims
  6
CONTINUOUS
 62
    0
370
   -2
100
AcDbMText
 10
-87.5
 20
-480
 30
0
 40
10
 41
12.22222222222284
 71
    5
 72
    1
  1
50
  7
standard
210
0
220
0
230
1
 50
90
 73
    2
 44
1
  0
SOLID
  5
229
100
AcDbEntity
  8
1 Dims
  6
ByBlock
 62
    0
370
   -2
100
AcDbTrace
 10
-80
 20
-455
 30
0
 11
-78.33486136890863
 21
-465
 31
0
 12
-81.66513863109137
 22
-465
 32
0
 13
-81.66513863109137
 23
-465
 33
0
  0
SOLID
  5
22A
100
AcDbEntity
  8
1 Dims
  6
ByBlock
 62
    0
370
   -2
100
AcDbTrace
 10
-80
 20
-505
 30
0
 11
-81.66513863109137
 21
-495
 31
0
 12
-78.33486136890863
 22
-495
 32
0
 13
-78.33486136890863
 23
-495
 33
0
  0
LINE
  5
22B
100
AcDbEntity
  8
1 Dims
  6
ByBlock
 62
    0
370
   -2
100
AcDbLine
 10
-97.5
 20
-455
 11
-75
 21
-455
  0
LINE
  5
22C
100
AcDbEntity
  8
1 Dims
  6
ByBlock
 62
    0
370
   -2
100
AcDbLine
 10
-97.5
 20
-505
 11
-75
 21
-505
  0
ENDBLK
  5
DF
330
DD
100
AcDbEntity
  8
0
100
AcDbBlockEnd
  0
BLOCK
  5
E1
330
E0
100
AcDbEntity
  8
0
100
AcDbBlockBegin
  2
*D3
 70
    1
 10
0
 20
0
  3
*D3
  1

  0
LINE
  5
22D
100
AcDbEntity
  8
1 Dims
  6
ByBlock
 62
    0
370
   -2
100
AcDbLine
 10
-765
 20
465
 11
-285
 21
465
  0
MTEXT
  5
22E
100
AcDbEntity
  8
1 Dims
  6
CONTINUOUS
 62
    0
370
   -2
100
AcDbMText
 10
-525
 20
472.5
 30
0
 40
10
 41
21.11111111111111
 71
    5
 72
    1
  1
480
  7
standard
210
0
220
0
230
1
 50
0
 73
    2
 44
1
  0
SOLID
  5
22F
100
AcDbEntity
  8
1 Dims
  6
ByBlock
 62
    0
370
   -2
100
AcDbTrace
 10
-765
 20
465
 30
0
 11
-755
 21
466.6651386310913
 31
0
 12
-755
 22
463.3348613689087
 32
0
 13
-755
 23
463.3348613689087
 33
0
  0
SOLID
  5
230
100
AcDbEntity
  8
1 Dims
  6
ByBlock
 62
    0
370
   -2
100
AcDbTrace
 10
-285
 20
465
 30
0
 11
-295
 21
463.3348613689087
 31
0
 12
-295
 22
466.6651386310913
 32
0
 13
-295
 23
466.6651386310913
 33
0
  0
LINE
  5
231
100
AcDbEntity
  8
1 Dims
  6
ByBlock
 62
    0
370
   -2
100
AcDbLine
 10
-765
 20
447.5
 11
-765
 21
470
  0
LINE
  5
232
100
AcDbEntity
  8
1 Dims
  6
ByBlock
 62
    0
370
   -2
100
AcDbLine
 10
-285
 20
447.5
 11
-285
 21
470
  0
ENDBLK
  5
E2
330
E0
100
AcDbEntity
  8
0
100
AcDbBlockEnd
  0
BLOCK
  5
E4
330
E3
100
AcDbEntity
  8
0
100
AcDbBlockBegin
  2
*D21
 70
    1
 10
0
 20
0
  3
*D21
  1

  0
LINE
  5
233
100
AcDbEntity
  8
1 Dims
  6
ByBlock
 62
    0
370
   -2
100
AcDbLine
 10
-550
 20
65
 11
-500
 21
65
  0
MTEXT
  5
234
100
AcDbEntity
  8
1 Dims
  6
CONTINUOUS
 62
    0
370
   -2
100
AcDbMText
 10
-525
 20
72.5
 30
0
 40
10
 41
12.22222222222284
 71
    5
 72
    1
  1
50
  7
standard
210
0
220
0
230
1
 50
0
 73
    2
 44
1
  0
SOLID
  5
235
100
AcDbEntity
  8
1 Dims
  6
ByBlock
 62
    0
370
   -2
100
AcDbTrace
 10
-550
 20
65
 30
0
 11
-540
 21
66.66513863109137
 31
0
 12
-540
 22
63.33486136890863
 32
0
 13
-540
 23
63.33486136890863
 33
0
  0
SOLID
  5
236
100
AcDbEntity
  8
1 Dims
  6
ByBlock
 62
    0
370
   -2
100
AcDbTrace
 10
-500
 20
65
 30
0
 11
-510
 21
63.33486136890864
 31
0
 12
-510
 22
66.66513863109137
 32
0
 13
-510
 23
66.66513863109137
 33
0
  0
LINE
  5
237
100
AcDbEntity
  8
1 Dims
  6
ByBlock
 62
    0
370
   -2
100
AcDbLine
 10
-550
 20
82.49999999999999
 11
-550
 21
60
  0
LINE
  5
238
100
AcDbEntity
  8
1 Dims
  6
ByBlock
 62
    0
370
   -2
100
AcDbLine
 10
-500
 20
82.5
 11
-500
 21
60
  0
ENDBLK
  5
E5
330
E3
100
AcDbEntity
  8
0
100
AcDbBlockEnd
  0
BLOCK
  5
E7
330
E6
100
AcDbEntity
  8
0
100
AcDbBlockBegin
  2
*D41
 70
    1
 10
0
 20
0
  3
*D41
  1

  0
LINE
  5
239
100
AcDbEntity
  8
1 Dims
  6
ByBlock
 62
    0
370
   -2
100
AcDbLine
 10
135
 20
-735.0000000000001
 11
135
 21
-1125
  0
MTEXT
  5
23A
100
AcDbEntity
  8
1 Dims
  6
CONTINUOUS
 62
    0
370
   -2
100
AcDbMText
 10
127.5
 20
-930
 30
0
 40
10
 41
20.00000000000124
 71
    5
 72
    1
  1
390
  7
standard
210
0
220
0
230
1
 50
90
 73
    2
 44
1
  0
SOLID
  5
23B
100
AcDbEntity
  8
1 Dims
  6
ByBlock
 62
    0
370
   -2
100
AcDbTrace
 10
135
 20
-735.0000000000001
 30
0
 11
136.6651386310914
 21
-745.0000000000001
 31
0
 12
133.3348613689086
 22
-745.0000000000001
 32
0
 13
133.3348613689086
 23
-745.0000000000001
 33
0
  0
SOLID
  5
23C
100
AcDbEntity
  8
1 Dims
  6
ByBlock
 62
    0
370
   -2
100
AcDbTrace
 10
135
 20
-1125
 30
0
 11
133.3348613689086
 21
-1115
 31
0
 12
136.6651386310914
 22
-1115
 32
0
 13
136.6651386310914
 23
-1115
 33
0
  0
LINE
  5
23D
100
AcDbEntity
  8
1 Dims
  6
ByBlock
 62
    0
370
   -2
100
AcDbLine
 10
117.4999999999999
 20
-735.0000000000001
 11
140
 21
-735.0000000000001
  0
LINE
  5
23E
100
AcDbEntity
  8
1 Dims
  6
ByBlock
 62
    0
370
   -2
100
AcDbLine
 10
117.5
 20
-1125
 11
140
 21
-1125
  0
ENDBLK
  5
E8
330
E6
100
AcDbEntity
  8
0
100
AcDbBlockEnd
  0
BLOCK
  5
EA
330
E9
100
AcDbEntity
  8
0
100
AcDbBlockBegin
  2
*D9
 70
    1
 10
0
 20
0
  3
*D9
  1

  0
LINE
  5
23F
100
AcDbEntity
  8
1 Dims
  6
ByBlock
 62
    0
370
   -2
100
AcDbLine
 10
-145
 20
290
 11
-145
 21
415
  0
MTEXT
  5
240
100
AcDbEntity
  8
1 Dims
  6
CONTINUOUS
 62
    0
370
   -2
100
AcDbMText
 10
-152.5
 20
352.5
 30
0
 40
10
 41
17.7777777777784
 71
    5
 72
    1
  1
125
  7
standard
210
0
220
0
230
1
 50
90
 73
    2
 44
1
  0
SOLID
  5
241
100
AcDbEntity
  8
1 Dims
  6
ByBlock
 62
    0
370
   -2
100
AcDbTrace
 10
-145
 20
290
 30
0
 11
-146.6651386310914
 21
300
 31
0
 12
-143.3348613689086
 22
300
 32
0
 13
-143.3348613689086
 23
300
 33
0
  0
SOLID
  5
242
100
AcDbEntity
  8
1 Dims
  6
ByBlock
 62
    0
370
   -2
100
AcDbTrace
 10
-145
 20
415
 30
0
 11
-143.3348613689086
 21
405
 31
0
 12
-146.6651386310914
 22
405
 32
0
 13
-146.6651386310914
 23
405
 33
0
  0
LINE
  5
243
100
AcDbEntity
  8
1 Dims
  6
ByBlock
 62
    0
370
   -2
100
AcDbLine
 10
-147.5000000000001
 20
290
 11
-150
 21
290
  0
LINE
  5
244
100
AcDbEntity
  8
1 Dims
  6
ByBlock
 62
    0
370
   -2
100
AcDbLine
 10
-132.5000000000001
 20
415
 11
-150
 21
415
  0
ENDBLK
  5
EB
330
E9
100
AcDbEntity
  8
0
100
AcDbBlockEnd
  0
BLOCK
  5
ED
330
EC
100
AcDbEntity
  8
0
100
AcDbBlockBegin
  2
*D32
 70
    1
 10
0
 20
0
  3
*D32
  1

  0
LINE
  5
245
100
AcDbEntity
  8
1 Dims
  6
ByBlock
 62
    0
370
   -2
100
AcDbLine
 10
-285
 20
-1160
 11
-235
 21
-1160
  0
MTEXT
  5
246
100
AcDbEntity
  8
1 Dims
  6
CONTINUOUS
 62
    0
370
   -2
100
AcDbMText
 10
-260
 20
-1152.5
 30
0
 40
10
 41
12.22222222222284
 71
    5
 72
    1
  1
50
  7
standard
210
0
220
0
230
1
 50
0
 73
    2
 44
1
  0
SOLID
  5
247
100
AcDbEntity
  8
1 Dims
  6
ByBlock
 62
    0
370
   -2
100
AcDbTrace
 10
-285
 20
-1160
 30
0
 11
-275
 21
-1158.334861368909
 31
0
 12
-275
 22
-1161.665138631091
 32
0
 13
-275
 23
-1161.665138631091
 33
0
  0
SOLID
  5
248
100
AcDbEntity
  8
1 Dims
  6
ByBlock
 62
    0
370
   -2
100
AcDbTrace
 10
-235
 20
-1160
 30
0
 11
-245
 21
-1161.665138631091
 31
0
 12
-245
 22
-1158.334861368909
 32
0
 13
-245
 23
-1158.334861368909
 33
0
  0
LINE
  5
249
100
AcDbEntity
  8
1 Dims
  6
ByBlock
 62
    0
370
   -2
100
AcDbLine
 10
-285
 20
-1142.5
 11
-285
 21
-1165
  0
LINE
  5
24A
100
AcDbEntity
  8
1 Dims
  6
ByBlock
 62
    0
370
   -2
100
AcDbLine
 10
-235
 20
-1142.5
 11
-235
 21
-1165
  0
ENDBLK
  5
EE
330
EC
100
AcDbEntity
  8
0
100
AcDbBlockEnd
  0
BLOCK
  5
F0
330
EF
100
AcDbEntity
  8
0
100
AcDbBlockBegin
  2
*D5
 70
    1
 10
0
 20
0
  3
*D5
  1

  0
LINE
  5
24B
100
AcDbEntity
  8
1 Dims
  6
ByBlock
 62
    0
370
   -2
100
AcDbLine
 10
-235
 20
465
 11
-115
 21
465
  0
MTEXT
  5
24C
100
AcDbEntity
  8
1 Dims
  6
CONTINUOUS
 62
    0
370
   -2
100
AcDbMText
 10
-175
 20
472.5
 30
0
 40
10
 41
17.77777777777778
 71
    5
 72
    1
  1
120
  7
standard
210
0
220
0
230
1
 50
0
 73
    2
 44
1
  0
SOLID
  5
24D
100
AcDbEntity
  8
1 Dims
  6
ByBlock
 62
    0
370
   -2
100
AcDbTrace
 10
-235
 20
465
 30
0
 11
-225
 21
466.6651386310913
 31
0
 12
-225
 22
463.3348613689087
 32
0
 13
-225
 23
463.3348613689087
 33
0
  0
SOLID
  5
24E
100
AcDbEntity
  8
1 Dims
  6
ByBlock
 62
    0
370
   -2
100
AcDbTrace
 10
-115
 20
465
 30
0
 11
-125
 21
463.3348613689087
 31
0
 12
-125
 22
466.6651386310913
 32
0
 13
-125
 23
466.6651386310913
 33
0
  0
LINE
  5
24F
100
AcDbEntity
  8
1 Dims
  6
ByBlock
 62
    0
370
   -2
100
AcDbLine
 10
-235
 20
447.5
 11
-235
 21
470
  0
LINE
  5
250
100
AcDbEntity
  8
1 Dims
  6
ByBlock
 62
    0
370
   -2
100
AcDbLine
 10
-115
 20
432.5
 11
-115
 21
470
  0
ENDBLK
  5
F1
330
EF
100
AcDbEntity
  8
0
100
AcDbBlockEnd
  0
BLOCK
  5
F3
330
F2
100
AcDbEntity
  8
0
100
AcDbBlockBegin
  2
*D57
 70
    1
 10
0
 20
0
  3
*D57
  1

  0
LINE
  5
251
100
AcDbEntity
  8
1 Dims
  6
ByBlock
 62
    0
370
   -2
100
AcDbLine
 10
1410
 20
-1050
 11
1080
 21
-1050
  0
MTEXT
  5
252
100
AcDbEntity
  8
1 Dims
  6
CONTINUOUS
 62
    0
370
   -2
100
AcDbMText
 10
1245
 20
-1042.5
 30
0
 40
10
 41
20.00000000000124
 71
    5
 72
    1
  1
330
  7
standard
210
0
220
0
230
1
 50
0
 73
    2
 44
1
  0
SOLID
  5
253
100
AcDbEntity
  8
1 Dims
  6
ByBlock
 62
    0
370
   -2
100
AcDbTrace
 10
1410
 20
-1050
 30
0
 11
1400
 21
-1051.665138631091
 31
0
 12
1400
 22
-1048.334861368909
 32
0
 13
1400
 23
-1048.334861368909
 33
0
  0
SOLID
  5
254
100
AcDbEntity
  8
1 Dims
  6
ByBlock
 62
    0
370
   -2
100
AcDbTrace
 10
1080
 20
-1050
 30
0
 11
1090
 21
-1048.334861368909
 31
0
 12
1090
 22
-1051.665138631091
 32
0
 13
1090
 23
-1051.665138631091
 33
0
  0
LINE
  5
255
100
AcDbEntity
  8
1 Dims
  6
ByBlock
 62
    0
370
   -2
100
AcDbLine
 10
1410
 20
-982.5
 11
1410
 21
-1055
  0
LINE
  5
256
100
AcDbEntity
  8
1 Dims
  6
ByBlock
 62
    0
370
   -2
100
AcDbLine
 10
1080
 20
-752.5
 11
1080
 21
-1055
  0
ENDBLK
  5
F4
330
F2
100
AcDbEntity
  8
0
100
AcDbBlockEnd
  0
BLOCK
  5
F6
330
F5
100
AcDbEntity
  8
0
100
AcDbBlockBegin
  2
*D35
 70
    1
 10
0
 20
0
  3
*D35
  1

  0
LINE
  5
257
100
AcDbEntity
  8
1 Dims
  6
ByBlock
 62
    0
370
   -2
100
AcDbLine
 10
-765
 20
-1160
 11
-525
 21
-1160
  0
MTEXT
  5
258
100
AcDbEntity
  8
1 Dims
  6
CONTINUOUS
 62
    0
370
   -2
100
AcDbMText
 10
-645
 20
-1152.5
 30
0
 40
10
 41
21.11111111111111
 71
    5
 72
    1
  1
240
  7
standard
210
0
220
0
230
1
 50
0
 73
    2
 44
1
  0
SOLID
  5
259
100
AcDbEntity
  8
1 Dims
  6
ByBlock
 62
    0
370
   -2
100
AcDbTrace
 10
-765
 20
-1160
 30
0
 11
-755
 21
-1158.334861368909
 31
0
 12
-755
 22
-1161.665138631091
 32
0
 13
-755
 23
-1161.665138631091
 33
0
  0
SOLID
  5
25A
100
AcDbEntity
  8
1 Dims
  6
ByBlock
 62
    0
370
   -2
100
AcDbTrace
 10
-525
 20
-1160
 30
0
 11
-535
 21
-1161.665138631091
 31
0
 12
-535
 22
-1158.334861368909
 32
0
 13
-535
 23
-1158.334861368909
 33
0
  0
LINE
  5
25B
100
AcDbEntity
  8
1 Dims
  6
ByBlock
 62
    0
370
   -2
100
AcDbLine
 10
-765
 20
-1142.5
 11
-765
 21
-1165
  0
LINE
  5
25C
100
AcDbEntity
  8
1 Dims
  6
ByBlock
 62
    0
370
   -2
100
AcDbLine
 10
-525
 20
-1140
 11
-525
 21
-1165
  0
ENDBLK
  5
F7
330
F5
100
AcDbEntity
  8
0
100
AcDbBlockEnd
  0
BLOCK
  5
F9
330
F8
100
AcDbEntity
  8
0
100
AcDbBlockBegin
  2
*D49
 70
    1
 10
0
 20
0
  3
*D49
  1

  0
LINE
  5
25D
100
AcDbEntity
  8
1 Dims
  6
ByBlock
 62
    0
370
   -2
100
AcDbLine
 10
1802.5
 20
-650
 11
1855
 21
-650
  0
LINE
  5
25E
100
AcDbEntity
  8
1 Dims
  6
ByBlock
 62
    0
370
   -2
100
AcDbLine
 10
1802.5
 20
-950
 11
1855
 21
-950
  0
LINE
  5
25F
100
AcDbEntity
  8
1 Dims
  6
ByBlock
 62
    0
370
   -2
100
AcDbLine
 10
1850
 20
-650
 11
1850
 21
-950
  0
MTEXT
  5
260
100
AcDbEntity
  8
1 Dims
  6
CONTINUOUS
 62
    0
370
   -2
100
AcDbMText
 10
1842.5
 20
-800
 30
0
 40
10
 41
20.00000000000062
 71
    5
 72
    1
  1
300
  7
standard
210
0
220
0
230
1
 50
90
 73
    2
 44
1
  0
SOLID
  5
261
100
AcDbEntity
  8
1 Dims
  6
ByBlock
 62
    0
370
   -2
100
AcDbTrace
 10
1850
 20
-650
 30
0
 11
1851.665138631091
 21
-660
 31
0
 12
1848.334861368909
 22
-660
 32
0
 13
1848.334861368909
 23
-660
 33
0
  0
SOLID
  5
262
100
AcDbEntity
  8
1 Dims
  6
ByBlock
 62
    0
370
   -2
100
AcDbTrace
 10
1850
 20
-950
 30
0
 11
1848.334861368909
 21
-940
 31
0
 12
1851.665138631091
 22
-940
 32
0
 13
1851.665138631091
 23
-940
 33
0
  0
ENDBLK
  5
FA
330
F8
100
AcDbEntity
  8
0
100
AcDbBlockEnd
  0
BLOCK
  5
FC
330
FB
100
AcDbEntity
  8
0
100
AcDbBlockBegin
  2
*D58
 70
    1
 10
0
 20
0
  3
*D58
  1

  0
LINE
  5
263
100
AcDbEntity
  8
1 Dims
  6
ByBlock
 62
    0
370
   -2
100
AcDbLine
 10
1030
 20
-1050
 11
1080
 21
-1050
  0
MTEXT
  5
264
100
AcDbEntity
  8
1 Dims
  6
CONTINUOUS
 62
    0
370
   -2
100
AcDbMText
 10
1055
 20
-1042.5
 30
0
 40
10
 41
12.22222222222284
 71
    5
 72
    1
  1
50
  7
standard
210
0
220
0
230
1
 50
0
 73
    2
 44
1
  0
SOLID
  5
265
100
AcDbEntity
  8
1 Dims
  6
ByBlock
 62
    0
370
   -2
100
AcDbTrace
 10
1030
 20
-1050
 30
0
 11
1040
 21
-1048.334861368909
 31
0
 12
1040
 22
-1051.665138631091
 32
0
 13
1040
 23
-1051.665138631091
 33
0
  0
SOLID
  5
266
100
AcDbEntity
  8
1 Dims
  6
ByBlock
 62
    0
370
   -2
100
AcDbTrace
 10
1080
 20
-1050
 30
0
 11
1070
 21
-1051.665138631091
 31
0
 12
1070
 22
-1048.334861368909
 32
0
 13
1070
 23
-1048.334861368909
 33
0
  0
LINE
  5
267
100
AcDbEntity
  8
1 Dims
  6
ByBlock
 62
    0
370
   -2
100
AcDbLine
 10
1030
 20
-642.5
 11
1030
 21
-1055
  0
LINE
  5
268
100
AcDbEntity
  8
1 Dims
  6
ByBlock
 62
    0
370
   -2
100
AcDbLine
 10
1080
 20
-752.5
 11
1080
 21
-1055
  0
ENDBLK
  5
FD
330
FB
100
AcDbEntity
  8
0
100
AcDbBlockEnd
  0
BLOCK
  5
FF
330
FE
100
AcDbEntity
  8
0
100
AcDbBlockBegin
  2
*D42
 70
    1
 10
0
 20
0
  3
*D42
  1

  0
LINE
  5
269
100
AcDbEntity
  8
1 Dims
  6
ByBlock
 62
    0
370
   -2
100
AcDbLine
 10
155
 20
-1140
 11
155
 21
-720.0000000000001
  0
MTEXT
  5
26A
100
AcDbEntity
  8
1 Dims
  6
CONTINUOUS
 62
    0
370
   -2
100
AcDbMText
 10
147.5
 20
-930
 30
0
 40
10
 41
21.11111111111111
 71
    5
 72
    1
  1
420
  7
standard
210
0
220
0
230
1
 50
90
 73
    2
 44
1
  0
SOLID
  5
26B
100
AcDbEntity
  8
1 Dims
  6
ByBlock
 62
    0
370
   -2
100
AcDbTrace
 10
155
 20
-1140
 30
0
 11
153.3348613689086
 21
-1130
 31
0
 12
156.6651386310914
 22
-1130
 32
0
 13
156.6651386310914
 23
-1130
 33
0
  0
SOLID
  5
26C
100
AcDbEntity
  8
1 Dims
  6
ByBlock
 62
    0
370
   -2
100
AcDbTrace
 10
155
 20
-720.0000000000001
 30
0
 11
156.6651386310914
 21
-730.0000000000001
 31
0
 12
153.3348613689086
 22
-730.0000000000001
 32
0
 13
153.3348613689086
 23
-730.0000000000001
 33
0
  0
LINE
  5
26D
100
AcDbEntity
  8
1 Dims
  6
ByBlock
 62
    0
370
   -2
100
AcDbLine
 10
102.5
 20
-1140
 11
160
 21
-1140
  0
LINE
  5
26E
100
AcDbEntity
  8
1 Dims
  6
ByBlock
 62
    0
370
   -2
100
AcDbLine
 10
102.4999999999999
 20
-720.0000000000001
 11
160
 21
-720.0000000000001
  0
ENDBLK
  5
100
330
FE
100
AcDbEntity
  8
0
100
AcDbBlockEnd
  0
BLOCK
  5
102
330
101
100
AcDbEntity
  8
0
100
AcDbBlockBegin
  2
*D59
 70
    1
 10
0
 20
0
  3
*D59
  1

  0
LINE
  5
26F
100
AcDbEntity
  8
1 Dims
  6
ByBlock
 62
    0
370
   -2
100
AcDbLine
 10
1800
 20
-1002.5
 11
1800
 21
-1105
  0
LINE
  5
270
100
AcDbEntity
  8
1 Dims
  6
ByBlock
 62
    0
370
   -2
100
AcDbLine
 10
1000
 20
-1002.5
 11
1000
 21
-1105
  0
LINE
  5
271
100
AcDbEntity
  8
1 Dims
  6
ByBlock
 62
    0
370
   -2
100
AcDbLine
 10
1800
 20
-1100
 11
1000
 21
-1100
  0
MTEXT
  5
272
100
AcDbEntity
  8
1 Dims
  6
CONTINUOUS
 62
    0
370
   -2
100
AcDbMText
 10
1400
 20
-1092.5
 30
0
 40
10
 41
20
 71
    5
 72
    1
  1
800
  7
standard
210
0
220
0
230
1
 50
0
 73
    2
 44
1
  0
SOLID
  5
273
100
AcDbEntity
  8
1 Dims
  6
ByBlock
 62
    0
370
   -2
100
AcDbTrace
 10
1800
 20
-1100
 30
0
 11
1790
 21
-1101.665138631091
 31
0
 12
1790
 22
-1098.334861368909
 32
0
 13
1790
 23
-1098.334861368909
 33
0
  0
SOLID
  5
274
100
AcDbEntity
  8
1 Dims
  6
ByBlock
 62
    0
370
   -2
100
AcDbTrace
 10
1000
 20
-1100
 30
0
 11
1010
 21
-1098.334861368909
 31
0
 12
1010
 22
-1101.665138631091
 32
0
 13
1010
 23
-1101.665138631091
 33
0
  0
ENDBLK
  5
103
330
101
100
AcDbEntity
  8
0
100
AcDbBlockEnd
  0
BLOCK
  5
105
330
104
100
AcDbEntity
  8
0
100
AcDbBlockBegin
  2
*D31
 70
    1
 10
0
 20
0
  3
*D31
  1

  0
LINE
  5
275
100
AcDbEntity
  8
1 Dims
  6
ByBlock
 62
    0
370
   -2
100
AcDbLine
 10
-815
 20
-1160
 11
-765
 21
-1160
  0
MTEXT
  5
276
100
AcDbEntity
  8
1 Dims
  6
CONTINUOUS
 62
    0
370
   -2
100
AcDbMText
 10
-790
 20
-1152.5
 30
0
 40
10
 41
12.22222222222284
 71
    5
 72
    1
  1
50
  7
standard
210
0
220
0
230
1
 50
0
 73
    2
 44
1
  0
SOLID
  5
277
100
AcDbEntity
  8
1 Dims
  6
ByBlock
 62
    0
370
   -2
100
AcDbTrace
 10
-815
 20
-1160
 30
0
 11
-805
 21
-1158.334861368909
 31
0
 12
-805
 22
-1161.665138631091
 32
0
 13
-805
 23
-1161.665138631091
 33
0
  0
SOLID
  5
278
100
AcDbEntity
  8
1 Dims
  6
ByBlock
 62
    0
370
   -2
100
AcDbTrace
 10
-765
 20
-1160
 30
0
 11
-775
 21
-1161.665138631091
 31
0
 12
-775
 22
-1158.334861368909
 32
0
 13
-775
 23
-1158.334861368909
 33
0
  0
LINE
  5
279
100
AcDbEntity
  8
1 Dims
  6
ByBlock
 62
    0
370
   -2
100
AcDbLine
 10
-815
 20
-1142.5
 11
-815
 21
-1165
  0
LINE
  5
27A
100
AcDbEntity
  8
1 Dims
  6
ByBlock
 62
    0
370
   -2
100
AcDbLine
 10
-765
 20
-1142.5
 11
-765
 21
-1165
  0
ENDBLK
  5
106
330
104
100
AcDbEntity
  8
0
100
AcDbBlockEnd
  0
BLOCK
  5
108
330
107
100
AcDbEntity
  8
0
100
AcDbBlockBegin
  2
*D44
 70
    1
 10
0
 20
0
  3
*D44
  1

  0
LINE
  5
27B
100
AcDbEntity
  8
1 Dims
  6
ByBlock
 62
    0
370
   -2
100
AcDbLine
 10
135
 20
-1160
 11
135
 21
-1105
  0
MTEXT
  5
27C
100
AcDbEntity
  8
1 Dims
  6
CONTINUOUS
 62
    0
370
   -2
100
AcDbMText
 10
127.5
 20
-1132.5
 30
0
 40
10
 41
10.00000000000062
 71
    5
 72
    1
  1
15
  7
standard
210
0
220
0
230
1
 50
90
 73
    2
 44
1
  0
SOLID
  5
27D
100
AcDbEntity
  8
1 Dims
  6
ByBlock
 62
    0
370
   -2
100
AcDbTrace
 10
135
 20
-1140
 30
0
 11
136.6651386310914
 21
-1150
 31
0
 12
133.3348613689086
 22
-1150
 32
0
 13
133.3348613689086
 23
-1150
 33
0
  0
SOLID
  5
27E
100
AcDbEntity
  8
1 Dims
  6
ByBlock
 62
    0
370
   -2
100
AcDbTrace
 10
135
 20
-1125
 30
0
 11
133.3348613689086
 21
-1115
 31
0
 12
136.6651386310914
 22
-1115
 32
0
 13
136.6651386310914
 23
-1115
 33
0
  0
LINE
  5
27F
100
AcDbEntity
  8
1 Dims
  6
ByBlock
 62
    0
370
   -2
100
AcDbLine
 10
102.5
 20
-1140
 11
140
 21
-1140
  0
LINE
  5
280
100
AcDbEntity
  8
1 Dims
  6
ByBlock
 62
    0
370
   -2
100
AcDbLine
 10
117.5
 20
-1125
 11
140
 21
-1125
  0
ENDBLK
  5
109
330
107
100
AcDbEntity
  8
0
100
AcDbBlockEnd
  0
BLOCK
  5
10B
330
10A
100
AcDbEntity
  8
0
100
AcDbBlockBegin
  2
*D23
 70
    1
 10
0
 20
0
  3
*D23
  1

  0
LINE
  5
281
100
AcDbEntity
  8
1 Dims
  6
ByBlock
 62
    0
370
   -2
100
AcDbLine
 10
-285
 20
65
 11
-235
 21
65
  0
MTEXT
  5
282
100
AcDbEntity
  8
1 Dims
  6
CONTINUOUS
 62
    0
370
   -2
100
AcDbMText
 10
-260
 20
72.5
 30
0
 40
10
 41
12.22222222222284
 71
    5
 72
    1
  1
50
  7
standard
210
0
220
0
230
1
 50
0
 73
    2
 44
1
  0
SOLID
  5
283
100
AcDbEntity
  8
1 Dims
  6
ByBlock
 62
    0
370
   -2
100
AcDbTrace
 10
-285
 20
65
 30
0
 11
-275
 21
66.66513863109137
 31
0
 12
-275
 22
63.33486136890863
 32
0
 13
-275
 23
63.33486136890863
 33
0
  0
SOLID
  5
284
100
AcDbEntity
  8
1 Dims
  6
ByBlock
 62
    0
370
   -2
100
AcDbTrace
 10
-235
 20
65
 30
0
 11
-245
 21
63.33486136890864
 31
0
 12
-245
 22
66.66513863109137
 32
0
 13
-245
 23
66.66513863109137
 33
0
  0
LINE
  5
285
100
AcDbEntity
  8
1 Dims
  6
ByBlock
 62
    0
370
   -2
100
AcDbLine
 10
-285
 20
82.49999999999999
 11
-285
 21
60
  0
LINE
  5
286
100
AcDbEntity
  8
1 Dims
  6
ByBlock
 62
    0
370
   -2
100
AcDbLine
 10
-235
 20
82.5
 11
-235
 21
60
  0
ENDBLK
  5
10C
330
10A
100
AcDbEntity
  8
0
100
AcDbBlockEnd
  0
ENDSEC
  0
SECTION
  2
ENTITIES
  0
LINE
  5
287
100
AcDbEntity
  8
0
  6
ByLayer
 62
  256
370
   -1
100
AcDbLine
 10
-950.0000000000002
 20
-90.00000000000011
 11
-950.0000000000001
 21
109.9999999999999
  0
LINE
  5
288
100
AcDbEntity
  8
3 Draw
  6
ByLayer
 62
  256
370
   -1
100
AcDbLine
 10
-100
 20
-100
 11
-100
 21
-115
  0
LINE
  5
289
100
AcDbEntity
  8
3 Draw
  6
ByLayer
 62
  256
370
   -1
100
AcDbLine
 10
-950
 20
-100
 11
-950
 21
-115
  0
LINE
  5
28A
100
AcDbEntity
  8
3 Draw
  6
ByLayer
 62
  256
370
   -1
100
AcDbLine
 10
-100
 20
-520
 11
-100
 21
-505
  0
LINE
  5
28B
100
AcDbEntity
  8
3 Draw
  6
ByLayer
 62
  256
370
   -1
100
AcDbLine
 10
-100
 20
-505
 11
-100
 21
-455
  0
LINE
  5
28C
100
AcDbEntity
  8
3 Draw
  6
ByLayer
 62
  256
370
   -1
100
AcDbLine
 10
-100
 20
-115
 11
-100
 21
-165
  0
LINE
  5
28D
100
AcDbEntity
  8
3 Draw
  6
ByLayer
 62
  256
370
   -1
100
AcDbLine
 10
-950
 20
-115
 11
-950
 21
-165
  0
LINE
  5
28E
100
AcDbEntity
  8
3 Draw
  6
ByLayer
 62
  256
370
   -1
100
AcDbLine
 10
-950
 20
-505
 11
-950
 21
-455
  0
LINE
  5
28F
100
AcDbEntity
  8
3 Draw
  6
ByLayer
 62
  256
370
   -1
100
AcDbLine
 10
-950
 20
-520
 11
-950
 21
-505
  0
LINE
  5
290
100
AcDbEntity
  8
3 Draw
  6
ByLayer
 62
  256
370
   -1
100
AcDbLine
 10
-100
 20
-115
 11
-950
 21
-115
  0
LINE
  5
291
100
AcDbEntity
  8
3 Draw
  6
ByLayer
 62
  256
370
   -1
100
AcDbLine
 10
-950
 20
-505
 11
-100
 21
-505
  0
LINE
  5
292
100
AcDbEntity
  8
3 Draw
  6
ByLayer
 62
  256
370
   -1
100
AcDbLine
 10
-130
 20
-115
 11
-130
 21
-505
  0
LINE
  5
293
100
AcDbEntity
  8
3 Draw
  6
ByLayer
 62
  256
370
   -1
100
AcDbLine
 10
-920
 20
-115
 11
-920
 21
-505
  0
LINE
  5
294
100
AcDbEntity
  8
3 Draw
  6
ByLayer
 62
  256
370
   -1
100
AcDbLine
 10
-985
 20
-165
 11
-985
 21
-455
  0
LINE
  5
295
100
AcDbEntity
  8
3 Draw
  6
ByLayer
 62
  256
370
   -1
100
AcDbLine
 10
-935
 20
-165
 11
-985
 21
-165
  0
LINE
  5
296
100
AcDbEntity
  8
3 Draw
  6
ByLayer
 62
  256
370
   -1
100
AcDbLine
 10
-985
 20
-455
 11
-935
 21
-455
  0
LINE
  5
297
100
AcDbEntity
  8
3 Draw
  6
ByLayer
 62
  256
370
   -1
100
AcDbLine
 10
-100
 20
-100
 11
-950
 21
-100
  0
LINE
  5
298
100
AcDbEntity
  8
3 Draw
  6
ByLayer
 62
  256
370
   -1
100
AcDbLine
 10
-100
 20
-520
 11
-950
 21
-520
  0
LINE
  5
299
100
AcDbEntity
  8
3 Draw
  6
ByLayer
 62
  256
370
   -1
100
AcDbLine
 10
-935
 20
-115
 11
-935
 21
-505
  0
LINE
  5
29A
100
AcDbEntity
  8
3 Draw
  6
ByLayer
 62
  256
370
   -1
100
AcDbLine
 10
-115
 20
-115
 11
-115
 21
-505
  0
LINE
  5
29B
100
AcDbEntity
  8
3 Draw
  6
ByLayer
 62
  256
370
   -1
100
AcDbLine
 10
-115
 20
-165
 11
-65.00000000000001
 21
-165
  0
LINE
  5
29C
100
AcDbEntity
  8
3 Draw
  6
ByLayer
 62
  256
370
   -1
100
AcDbLine
 10
-65.00000000000001
 20
-165
 11
-65.00000000000001
 21
-455
  0
LINE
  5
29D
100
AcDbEntity
  8
3 Draw
  6
ByLayer
 62
  256
370
   -1
100
AcDbLine
 10
-65.00000000000001
 20
-455
 11
-115
 21
-455
  0
LINE
  5
29E
100
AcDbEntity
  8
3 Draw
  6
ByLayer
 62
  256
370
   -1
100
AcDbLine
 10
-145
 20
-145
 11
-145
 21
-475
  0
LINE
  5
29F
100
AcDbEntity
  8
3 Draw
  6
ByLayer
 62
  256
370
   -1
100
AcDbLine
 10
-145
 20
-475
 11
-130
 21
-475
  0
LINE
  5
2A0
100
AcDbEntity
  8
3 Draw
  6
ByLayer
 62
  256
370
   -1
100
AcDbLine
 10
-145
 20
-145
 11
-130
 21
-145
  0
LINE
  5
2A1
100
AcDbEntity
  8
3 Draw
  6
ByLayer
 62
  256
370
   -1
100
AcDbLine
 10
-905
 20
-475
 11
-920
 21
-475
  0
LINE
  5
2A2
100
AcDbEntity
  8
3 Draw
  6
ByLayer
 62
  256
370
   -1
100
AcDbLine
 10
-920
 20
-145
 11
-905
 21
-145
  0
LINE
  5
2A3
100
AcDbEntity
  8
3 Draw
  6
ByLayer
 62
  256
370
   -1
100
AcDbLine
 10
-905
 20
-145
 11
-905
 21
-475
  0
LINE
  5
2A4
100
AcDbEntity
  8
3 Draw
  6
ByLayer
 62
  256
370
   -1
100
AcDbLine
 10
-980
 20
-165
 11
-980
 21
-455
  0
LINE
  5
2A5
100
AcDbEntity
  8
3 Draw
  6
ByLayer
 62
  256
370
   -1
100
AcDbLine
 10
-70.00000000000001
 20
-165
 11
-70.00000000000001
 21
-455
  0
LINE
  5
2A6
100
AcDbEntity
  8
0
  6
ByLayer
 62
  256
370
   -1
100
AcDbLine
 10
-100
 20
-100
 11
0
 21
-100
  0
ARC
  5
2A7
100
AcDbEntity
  8
0
  6
ByLayer
 62
  256
370
   -1
100
AcDbCircle
 10
0
 20
0
 40
100
100
AcDbArc
 50
270
 51
0
  0
LINE
  5
2A8
100
AcDbEntity
  8
0
  6
ByLayer
 62
  256
370
   -1
100
AcDbLine
 10
-100
 20
-520
 11
0
 21
-520
  0
ARC
  5
2A9
100
AcDbEntity
  8
0
  6
ByLayer
 62
  256
370
   -1
100
AcDbCircle
 10
0
 20
0
 40
520
100
AcDbArc
 50
270
 51
0
  0
LINE
  5
2AA
100
AcDbEntity
  8
0
  6
ByLayer
 62
  256
370
   -1
100
AcDbLine
 10
-65
 20
-165
 11
0
 21
-165
  0
LINE
  5
2AB
100
AcDbEntity
  8
0
  6
ByLayer
 62
  256
370
   -1
100
AcDbLine
 10
-65
 20
-455
 11
0
 21
-455
  0
ARC
  5
2AC
100
AcDbEntity
  8
0
  6
ByLayer
 62
  256
370
   -1
100
AcDbCircle
 10
0
 20
0
 40
165
100
AcDbArc
 50
270
 51
0
  0
ARC
  5
2AD
100
AcDbEntity
  8
0
  6
ByLayer
 62
  256
370
   -1
100
AcDbCircle
 10
0
 20
0
 40
455
100
AcDbArc
 50
270
 51
0
  0
LWPOLYLINE
  5
2AE
100
AcDbEntity
  8
3 Draw
  6
ByLayer
 62
  256
370
   -1
100
AcDbPolyline
 90
    4
 70
    1
 43
0
 10
-950
 20
115
 10
-100
 20
115
 10
-100
 20
415
 10
-950
 20
415
  0
LINE
  5
2AF
100
AcDbEntity
  8
3 Draw
  6
ByLayer
 62
  256
370
   -1
100
AcDbLine
 10
-935
 20
415
 11
-935
 21
430
  0
LINE
  5
2B0
100
AcDbEntity
  8
3 Draw
  6
ByLayer
 62
  256
370
   -1
100
AcDbLine
 10
-935
 20
430
 11
-115
 21
430
  0
LINE
  5
2B1
100
AcDbEntity
  8
3 Draw
  6
ByLayer
 62
  256
370
   -1
100
AcDbLine
 10
-115
 20
430
 11
-115
 21
415
  0
LINE
  5
2B2
100
AcDbEntity
  8
3 Draw
  6
ByLayer
 62
  256
370
   -1
100
AcDbLine
 10
-115
 20
115
 11
-115
 21
100
  0
LINE
  5
2B3
100
AcDbEntity
  8
3 Draw
  6
ByLayer
 62
  256
370
   -1
100
AcDbLine
 10
-115
 20
100
 11
-935
 21
100
  0
LINE
  5
2B4
100
AcDbEntity
  8
3 Draw
  6
ByLayer
 62
  256
370
   -1
100
AcDbLine
 10
-935
 20
100
 11
-935
 21
115
  0
LINE
  5
2B5
100
AcDbEntity
  8
3 Draw
  6
ByLayer
 62
  256
370
   -1
100
AcDbLine
 10
-950
 20
115
 11
-950
 21
100
  0
LINE
  5
2B6
100
AcDbEntity
  8
3 Draw
  6
ByLayer
 62
  256
370
   -1
100
AcDbLine
 10
-950
 20
100
 11
-935
 21
100
  0
LINE
  5
2B7
100
AcDbEntity
  8
3 Draw
  6
ByLayer
 62
  256
370
   -1
100
AcDbLine
 10
-950
 20
415
 11
-950
 21
430
  0
LINE
  5
2B8
100
AcDbEntity
  8
3 Draw
  6
ByLayer
 62
  256
370
   -1
100
AcDbLine
 10
-950
 20
430
 11
-935
 21
430
  0
LINE
  5
2B9
100
AcDbEntity
  8
3 Draw
  6
ByLayer
 62
  256
370
   -1
100
AcDbLine
 10
-100
 20
415
 11
-100
 21
430
  0
LINE
  5
2BA
100
AcDbEntity
  8
3 Draw
  6
ByLayer
 62
  256
370
   -1
100
AcDbLine
 10
-100
 20
430
 11
-115
 21
430
  0
LINE
  5
2BB
100
AcDbEntity
  8
3 Draw
  6
ByLayer
 62
  256
370
   -1
100
AcDbLine
 10
-115
 20
100
 11
-100
 21
100
  0
LINE
  5
2BC
100
AcDbEntity
  8
3 Draw
  6
ByLayer
 62
  256
370
   -1
100
AcDbLine
 10
-100
 20
100
 11
-100
 21
115
  0
LINE
  5
2BD
100
AcDbEntity
  8
3 Draw
  6
ByLayer
 62
  256
370
   -1
100
AcDbLine
 10
-815
 20
100
 11
-815
 21
84.99999999999999
  0
LINE
  5
2BE
100
AcDbEntity
  8
3 Draw
  6
ByLayer
 62
  256
370
   -1
100
AcDbLine
 10
-815
 20
84.99999999999999
 11
-765
 21
84.99999999999999
  0
LINE
  5
2BF
100
AcDbEntity
  8
3 Draw
  6
ByLayer
 62
  256
370
   -1
100
AcDbLine
 10
-765
 20
84.99999999999999
 11
-765
 21
100
  0
LINE
  5
2C0
100
AcDbEntity
  8
3 Draw
  6
ByLayer
 62
  256
370
   -1
100
AcDbLine
 10
-235
 20
100
 11
-235
 21
84.99999999999999
  0
LINE
  5
2C1
100
AcDbEntity
  8
3 Draw
  6
ByLayer
 62
  256
370
   -1
100
AcDbLine
 10
-235
 20
84.99999999999999
 11
-285
 21
84.99999999999999
  0
LINE
  5
2C2
100
AcDbEntity
  8
3 Draw
  6
ByLayer
 62
  256
370
   -1
100
AcDbLine
 10
-285
 20
84.99999999999999
 11
-285
 21
100
  0
LINE
  5
2C3
100
AcDbEntity
  8
3 Draw
  6
ByLayer
 62
  256
370
   -1
100
AcDbLine
 10
-500
 20
100
 11
-500
 21
84.99999999999999
  0
LINE
  5
2C4
100
AcDbEntity
  8
3 Draw
  6
ByLayer
 62
  256
370
   -1
100
AcDbLine
 10
-500
 20
84.99999999999999
 11
-550
 21
84.99999999999999
  0
LINE
  5
2C5
100
AcDbEntity
  8
3 Draw
  6
ByLayer
 62
  256
370
   -1
100
AcDbLine
 10
-550
 20
84.99999999999999
 11
-550
 21
100
  0
LINE
  5
2C6
100
AcDbEntity
  8
3 Draw
  6
ByLayer
 62
  256
370
   -1
100
AcDbLine
 10
-815
 20
430
 11
-815
 21
445
  0
LINE
  5
2C7
100
AcDbEntity
  8
3 Draw
  6
ByLayer
 62
  256
370
   -1
100
AcDbLine
 10
-815
 20
445
 11
-765
 21
445
  0
LINE
  5
2C8
100
AcDbEntity
  8
3 Draw
  6
ByLayer
 62
  256
370
   -1
100
AcDbLine
 10
-765
 20
445
 11
-765
 21
430
  0
LINE
  5
2C9
100
AcDbEntity
  8
3 Draw
  6
ByLayer
 62
  256
370
   -1
100
AcDbLine
 10
-235
 20
430
 11
-235
 21
445
  0
LINE
  5
2CA
100
AcDbEntity
  8
3 Draw
  6
ByLayer
 62
  256
370
   -1
100
AcDbLine
 10
-235
 20
445
 11
-285
 21
445
  0
LINE
  5
2CB
100
AcDbEntity
  8
3 Draw
  6
ByLayer
 62
  256
370
   -1
100
AcDbLine
 10
-285
 20
445
 11
-285
 21
430
  0
LINE
  5
2CC
100
AcDbEntity
  8
3 Draw
  6
ByLayer
 62
  256
370
   -1
100
AcDbLine
 10
-70.00000000000001
 20
250
 11
-100
 21
250
  0
LINE
  5
2CD
100
AcDbEntity
  8
3 Draw
  6
ByLayer
 62
  256
370
   -1
100
AcDbLine
 10
-65.00000000000001
 20
295
 11
-65.00000000000001
 21
255
  0
LINE
  5
2CE
100
AcDbEntity
  8
3 Draw
  6
ByLayer
 62
  256
370
   -1
100
AcDbLine
 10
-100
 20
300
 11
-70.00000000000001
 21
300
  0
LINE
  5
2CF
100
AcDbEntity
  8
3 Draw
  6
ByLayer
 62
  256
370
   -1
100
AcDbLine
 10
-70.00000000000001
 20
250
 11
-65.00000000000001
 21
255
  0
LINE
  5
2D0
100
AcDbEntity
  8
3 Draw
  6
ByLayer
 62
  256
370
   -1
100
AcDbLine
 10
-65.00000000000001
 20
295
 11
-70.00000000000001
 21
300
  0
LINE
  5
2D1
100
AcDbEntity
  8
3 Draw
  6
ByLayer
 62
  256
370
   -1
100
AcDbLine
 10
-950
 20
300
 11
-980
 21
300
  0
LINE
  5
2D2
100
AcDbEntity
  8
3 Draw
  6
ByLayer
 62
  256
370
   -1
100
AcDbLine
 10
-980
 20
250
 11
-950
 21
250
  0
LINE
  5
2D3
100
AcDbEntity
  8
3 Draw
  6
ByLayer
 62
  256
370
   -1
100
AcDbLine
 10
-985
 20
295
 11
-985
 21
255
  0
LINE
  5
2D4
100
AcDbEntity
  8
3 Draw
  6
ByLayer
 62
  256
370
   -1
100
AcDbLine
 10
-985
 20
295
 11
-980
 21
300
  0
LINE
  5
2D5
100
AcDbEntity
  8
3 Draw
  6
ByLayer
 62
  256
370
   -1
100
AcDbLine
 10
-980
 20
250
 11
-985
 21
255
  0
LINE
  5
2D6
100
AcDbEntity
  8
3 Draw
  6
ByLayer
 62
  256
370
   -1
100
AcDbLine
 10
99.99999999999989
 20
114.9999999999999
 11
99.99999999999989
 21
99.9999999999999
  0
LINE
  5
2D7
100
AcDbEntity
  8
3 Draw
  6
ByLayer
 62
  256
370
   -1
100
AcDbLine
 10
99.99999999999989
 20
99.9999999999999
 11
114.9999999999999
 21
84.99999999999989
  0
LINE
  5
2D8
100
AcDbEntity
  8
3 Draw
  6
ByLayer
 62
  256
370
   -1
100
AcDbLine
 10
99.99999999999989
 20
429.9999999999999
 11
114.9999999999999
 21
444.9999999999999
  0
LINE
  5
2D9
100
AcDbEntity
  8
3 Draw
  6
ByLayer
 62
  256
370
   -1
100
AcDbLine
 10
114.9999999999999
 20
429.9999999999999
 11
114.9999999999999
 21
99.9999999999999
  0
LINE
  5
2DA
100
AcDbEntity
  8
3 Draw
  6
ByLayer
 62
  256
370
   -1
100
AcDbLine
 10
164.9999999999999
 20
99.9999999999999
 11
164.9999999999999
 21
429.9999999999999
  0
LINE
  5
2DB
100
AcDbEntity
  8
3 Draw
  6
ByLayer
 62
  256
370
   -1
100
AcDbLine
 10
99.99999999999989
 20
114.9999999999999
 11
99.99999999999989
 21
429.9999999999999
  0
LINE
  5
2DC
100
AcDbEntity
  8
3 Draw
  6
ByLayer
 62
  256
370
   -1
100
AcDbLine
 10
114.9999999999999
 20
414.9999999999999
 11
99.99999999999989
 21
414.9999999999999
  0
LINE
  5
2DD
100
AcDbEntity
  8
3 Draw
  6
ByLayer
 62
  256
370
   -1
100
AcDbLine
 10
99.99999999999989
 20
114.9999999999999
 11
114.9999999999999
 21
114.9999999999999
  0
LINE
  5
2DE
100
AcDbEntity
  8
3 Draw
  6
ByLayer
 62
  256
370
   -1
100
AcDbLine
 10
519.9999999999999
 20
429.9999999999999
 11
519.9999999999999
 21
414.9999999999999
  0
LINE
  5
2DF
100
AcDbEntity
  8
3 Draw
  6
ByLayer
 62
  256
370
   -1
100
AcDbLine
 10
114.9999999999999
 20
444.9999999999999
 11
504.9999999999999
 21
444.9999999999999
  0
LINE
  5
2E0
100
AcDbEntity
  8
3 Draw
  6
ByLayer
 62
  256
370
   -1
100
AcDbLine
 10
99.99999999999989
 20
429.9999999999999
 11
519.9999999999999
 21
429.9999999999999
  0
LINE
  5
2E1
100
AcDbEntity
  8
3 Draw
  6
ByLayer
 62
  256
370
   -1
100
AcDbLine
 10
504.9999999999999
 20
444.9999999999999
 11
519.9999999999999
 21
429.9999999999999
  0
LINE
  5
2E2
100
AcDbEntity
  8
3 Draw
  6
ByLayer
 62
  256
370
   -1
100
AcDbLine
 10
504.9999999999999
 20
414.9999999999999
 11
519.9999999999999
 21
414.9999999999999
  0
LINE
  5
2E3
100
AcDbEntity
  8
3 Draw
  6
ByLayer
 62
  256
370
   -1
100
AcDbLine
 10
454.9999999999999
 20
414.9999999999999
 11
164.9999999999999
 21
414.9999999999999
  0
LINE
  5
2E4
100
AcDbEntity
  8
3 Draw
  6
ByLayer
 62
  256
370
   -1
100
AcDbLine
 10
454.9999999999999
 20
429.9999999999999
 11
454.9999999999999
 21
99.9999999999999
  0
LINE
  5
2E5
100
AcDbEntity
  8
3 Draw
  6
ByLayer
 62
  256
370
   -1
100
AcDbLine
 10
164.9999999999999
 20
299.9999999999999
 11
454.9999999999999
 21
299.9999999999999
  0
LINE
  5
2E6
100
AcDbEntity
  8
3 Draw
  6
ByLayer
 62
  256
370
   -1
100
AcDbLine
 10
164.9999999999999
 20
294.9999999999999
 11
454.9999999999999
 21
294.9999999999999
  0
LINE
  5
2E7
100
AcDbEntity
  8
3 Draw
  6
ByLayer
 62
  256
370
   -1
100
AcDbLine
 10
454.9999999999999
 20
254.9999999999999
 11
164.9999999999999
 21
254.9999999999999
  0
LINE
  5
2E8
100
AcDbEntity
  8
3 Draw
  6
ByLayer
 62
  256
370
   -1
100
AcDbLine
 10
454.9999999999999
 20
249.9999999999999
 11
164.9999999999999
 21
249.9999999999999
  0
LINE
  5
2E9
100
AcDbEntity
  8
3 Draw
  6
ByLayer
 62
  256
370
   -1
100
AcDbLine
 10
504.9999999999999
 20
99.9999999999999
 11
504.9999999999999
 21
429.9999999999999
  0
LINE
  5
2EA
100
AcDbEntity
  8
3 Draw
  6
ByLayer
 62
  256
370
   -1
100
AcDbLine
 10
454.9999999999999
 20
114.9999999999999
 11
164.9999999999999
 21
114.9999999999999
  0
LINE
  5
2EB
100
AcDbEntity
  8
3 Draw
  6
ByLayer
 62
  256
370
   -1
100
AcDbLine
 10
519.9999999999999
 20
114.9999999999999
 11
519.9999999999999
 21
414.9999999999999
  0
LINE
  5
2EC
100
AcDbEntity
  8
3 Draw
  6
ByLayer
 62
  256
370
   -1
100
AcDbLine
 10
519.9999999999999
 20
99.9999999999999
 11
519.9999999999999
 21
114.9999999999999
  0
LINE
  5
2ED
100
AcDbEntity
  8
3 Draw
  6
ByLayer
 62
  256
370
   -1
100
AcDbLine
 10
99.99999999999989
 20
99.9999999999999
 11
519.9999999999999
 21
99.9999999999999
  0
LINE
  5
2EE
100
AcDbEntity
  8
3 Draw
  6
ByLayer
 62
  256
370
   -1
100
AcDbLine
 10
504.9999999999999
 20
114.9999999999999
 11
519.9999999999999
 21
114.9999999999999
  0
LINE
  5
2EF
100
AcDbEntity
  8
3 Draw
  6
ByLayer
 62
  256
370
   -1
100
AcDbLine
 10
504.9999999999999
 20
84.99999999999989
 11
519.9999999999999
 21
99.9999999999999
  0
LINE
  5
2F0
100
AcDbEntity
  8
3 Draw
  6
ByLayer
 62
  256
370
   -1
100
AcDbLine
 10
114.9999999999999
 20
84.99999999999989
 11
504.9999999999999
 21
84.99999999999989
  0
LINE
  5
2F1
100
AcDbEntity
  8
0
  6
ByLayer
 62
  256
370
   -1
100
AcDbLine
 10
100
 20
100
 11
100
 21
0
  0
LINE
  5
2F2
100
AcDbEntity
  8
0
  6
ByLayer
 62
  256
370
   -1
100
AcDbLine
 10
-100
 20
100
 11
99.99999999999989
 21
99.9999999999999
  0
LINE
  5
2F3
100
AcDbEntity
  8
0
  6
ByLayer
 62
  256
370
   -1
100
AcDbLine
 10
-100
 20
-100
 11
-100
 21
100
  0
LINE
  5
2F4
100
AcDbEntity
  8
0
  6
ByLayer
 62
  256
370
   -1
100
AcDbLine
 10
520
 20
99.9999999999999
 11
520
 21
0
  0
LINE
  5
2F5
100
AcDbEntity
  8
0
  6
ByLayer
 62
  256
370
   -1
100
AcDbLine
 10
454.9999999999999
 20
99.9999999999999
 11
455
 21
0
  0
LINE
  5
2F6
100
AcDbEntity
  8
0
  6
ByLayer
 62
  256
370
   -1
100
AcDbLine
 10
164.9999999999999
 20
99.9999999999999
 11
165
 21
0
  0
LINE
  5
2F7
100
AcDbEntity
  8
0
  6
ByLayer
 62
  256
370
   -1
100
AcDbLine
 10
-70
 20
300
 11
164.9999999999999
 21
299.9999999999999
  0
LINE
  5
2F8
100
AcDbEntity
  8
0
  6
ByLayer
 62
  256
370
   -1
100
AcDbLine
 10
-70
 20
250
 11
165
 21
250
  0
LINE
  5
2F9
100
AcDbEntity
  8
0
  6
ByLayer
 62
  256
370
   -1
100
AcDbLine
 10
-100
 20
430
 11
100
 21
430
  0
LWPOLYLINE
  5
2FA
100
AcDbEntity
  8
3 Draw
  6
ByLayer
 62
  256
370
   -1
100
AcDbPolyline
 90
    4
 70
    1
 43
0
 10
-115
 20
-720
 10
-935
 20
-720
 10
-935
 20
-1140
 10
-115
 20
-1140
  0
LINE
  5
2FB
100
AcDbEntity
  8
3 Draw
  6
ByLayer
 62
  256
370
   -1
100
AcDbLine
 10
-115
 20
-720
 11
-100
 21
-720
  0
LINE
  5
2FC
100
AcDbEntity
  8
3 Draw
  6
ByLayer
 62
  256
370
   -1
100
AcDbLine
 10
-100
 20
-720
 11
-100
 21
-735
  0
LINE
  5
2FD
100
AcDbEntity
  8
3 Draw
  6
ByLayer
 62
  256
370
   -1
100
AcDbLine
 10
-100
 20
-735
 11
-115
 21
-735
  0
LINE
  5
2FE
100
AcDbEntity
  8
3 Draw
  6
ByLayer
 62
  256
370
   -1
100
AcDbLine
 10
-100
 20
-735
 11
-100
 21
-785
  0
LINE
  5
2FF
100
AcDbEntity
  8
3 Draw
  6
ByLayer
 62
  256
370
   -1
100
AcDbLine
 10
-115
 20
-1140
 11
-100
 21
-1140
  0
LINE
  5
300
100
AcDbEntity
  8
3 Draw
  6
ByLayer
 62
  256
370
   -1
100
AcDbLine
 10
-100
 20
-1140
 11
-100
 21
-1125
  0
LINE
  5
301
100
AcDbEntity
  8
3 Draw
  6
ByLayer
 62
  256
370
   -1
100
AcDbLine
 10
-100
 20
-1125
 11
-115
 21
-1125
  0
LINE
  5
302
100
AcDbEntity
  8
3 Draw
  6
ByLayer
 62
  256
370
   -1
100
AcDbLine
 10
-100
 20
-1125
 11
-100
 21
-1075
  0
LINE
  5
303
100
AcDbEntity
  8
3 Draw
  6
ByLayer
 62
  256
370
   -1
100
AcDbLine
 10
-65.00000000000001
 20
-1075
 11
-115
 21
-1075
  0
LINE
  5
304
100
AcDbEntity
  8
3 Draw
  6
ByLayer
 62
  256
370
   -1
100
AcDbLine
 10
-65.00000000000001
 20
-785
 11
-115
 21
-785
  0
LINE
  5
305
100
AcDbEntity
  8
3 Draw
  6
ByLayer
 62
  256
370
   -1
100
AcDbLine
 10
-65.00000000000001
 20
-785
 11
-65.00000000000001
 21
-1075
  0
LINE
  5
306
100
AcDbEntity
  8
3 Draw
  6
ByLayer
 62
  256
370
   -1
100
AcDbLine
 10
-935
 20
-720
 11
-950
 21
-720
  0
LINE
  5
307
100
AcDbEntity
  8
3 Draw
  6
ByLayer
 62
  256
370
   -1
100
AcDbLine
 10
-950
 20
-720
 11
-950
 21
-735
  0
LINE
  5
308
100
AcDbEntity
  8
3 Draw
  6
ByLayer
 62
  256
370
   -1
100
AcDbLine
 10
-950
 20
-735
 11
-935
 21
-735
  0
LINE
  5
309
100
AcDbEntity
  8
3 Draw
  6
ByLayer
 62
  256
370
   -1
100
AcDbLine
 10
-950
 20
-735
 11
-950
 21
-785
  0
LINE
  5
30A
100
AcDbEntity
  8
3 Draw
  6
ByLayer
 62
  256
370
   -1
100
AcDbLine
 10
-935
 20
-785
 11
-985
 21
-785
  0
LINE
  5
30B
100
AcDbEntity
  8
3 Draw
  6
ByLayer
 62
  256
370
   -1
100
AcDbLine
 10
-935
 20
-1140
 11
-950
 21
-1140
  0
LINE
  5
30C
100
AcDbEntity
  8
3 Draw
  6
ByLayer
 62
  256
370
   -1
100
AcDbLine
 10
-950
 20
-1140
 11
-950
 21
-1125
  0
LINE
  5
30D
100
AcDbEntity
  8
3 Draw
  6
ByLayer
 62
  256
370
   -1
100
AcDbLine
 10
-950
 20
-1125
 11
-935
 21
-1125
  0
LINE
  5
30E
100
AcDbEntity
  8
3 Draw
  6
ByLayer
 62
  256
370
   -1
100
AcDbLine
 10
-950
 20
-1125
 11
-950
 21
-1075
  0
LINE
  5
30F
100
AcDbEntity
  8
3 Draw
  6
ByLayer
 62
  256
370
   -1
100
AcDbLine
 10
-985
 20
-785
 11
-985
 21
-1075
  0
LINE
  5
310
100
AcDbEntity
  8
3 Draw
  6
ByLayer
 62
  256
370
   -1
100
AcDbLine
 10
-985
 20
-1075
 11
-935
 21
-1075
  0
LINE
  5
311
100
AcDbEntity
  8
3 Draw
  6
ByLayer
 62
  256
370
   -1
100
AcDbLine
 10
-815
 20
-720
 11
-815
 21
-1140
  0
LINE
  5
312
100
AcDbEntity
  8
3 Draw
  6
ByLayer
 62
  256
370
   -1
100
AcDbLine
 10
-765
 20
-1140
 11
-765
 21
-720
  0
LINE
  5
313
100
AcDbEntity
  8
3 Draw
  6
ByLayer
 62
  256
370
   -1
100
AcDbLine
 10
-815
 20
-735
 11
-765
 21
-735
  0
LINE
  5
314
100
AcDbEntity
  8
3 Draw
  6
ByLayer
 62
  256
370
   -1
100
AcDbLine
 10
-815
 20
-1125
 11
-765
 21
-1125
  0
LINE
  5
315
100
AcDbEntity
  8
3 Draw
  6
ByLayer
 62
  256
370
   -1
100
AcDbLine
 10
-235
 20
-720
 11
-235
 21
-1140
  0
LINE
  5
316
100
AcDbEntity
  8
3 Draw
  6
ByLayer
 62
  256
370
   -1
100
AcDbLine
 10
-285
 20
-1140
 11
-285
 21
-720
  0
LINE
  5
317
100
AcDbEntity
  8
3 Draw
  6
ByLayer
 62
  256
370
   -1
100
AcDbLine
 10
-285
 20
-735
 11
-235
 21
-735
  0
LINE
  5
318
100
AcDbEntity
  8
3 Draw
  6
ByLayer
 62
  256
370
   -1
100
AcDbLine
 10
-285
 20
-1125
 11
-235
 21
-1125
  0
LINE
  5
319
100
AcDbEntity
  8
3 Draw
  6
ByLayer
 62
  256
370
   -1
100
AcDbLine
 10
-545
 20
-720
 11
-545
 21
-780
  0
LINE
  5
31A
100
AcDbEntity
  8
3 Draw
  6
ByLayer
 62
  256
370
   -1
100
AcDbLine
 10
-505
 20
-720
 11
-505
 21
-780
  0
ARC
  5
31B
100
AcDbEntity
  8
3 Draw
  6
ByLayer
 62
  256
370
   -1
100
AcDbCircle
 10
-525
 20
-742.5
 40
42.5
100
AcDbArc
 50
241.927513064147
 51
298.072486935853
  0
CIRCLE
  5
31C
100
AcDbEntity
  8
3 Draw
  6
ByLayer
 62
  256
370
   -1
100
AcDbCircle
 10
-525
 20
-775
 40
5
  0
LINE
  5
31D
100
AcDbEntity
  8
3 Draw
  6
ByLayer
 62
  256
370
   -1
100
AcDbLine
 10
-865
 20
-720
 11
-865
 21
-780
  0
LINE
  5
31E
100
AcDbEntity
  8
3 Draw
  6
ByLayer
 62
  256
370
   -1
100
AcDbLine
 10
-825
 20
-720
 11
-825
 21
-780
  0
ARC
  5
31F
100
AcDbEntity
  8
3 Draw
  6
ByLayer
 62
  256
370
   -1
100
AcDbCircle
 10
-845
 20
-742.5
 40
42.5
100
AcDbArc
 50
241.927513064147
 51
298.072486935853
  0
CIRCLE
  5
320
100
AcDbEntity
  8
3 Draw
  6
ByLayer
 62
  256
370
   -1
100
AcDbCircle
 10
-845
 20
-775
 40
5
  0
LINE
  5
321
100
AcDbEntity
  8
3 Draw
  6
ByLayer
 62
  256
370
   -1
100
AcDbLine
 10
-225
 20
-720
 11
-225
 21
-780
  0
LINE
  5
322
100
AcDbEntity
  8
3 Draw
  6
ByLayer
 62
  256
370
   -1
100
AcDbLine
 10
-185
 20
-720
 11
-185
 21
-780
  0
ARC
  5
323
100
AcDbEntity
  8
3 Draw
  6
ByLayer
 62
  256
370
   -1
100
AcDbCircle
 10
-205
 20
-742.5
 40
42.5
100
AcDbArc
 50
241.927513064147
 51
298.072486935853
  0
CIRCLE
  5
324
100
AcDbEntity
  8
3 Draw
  6
ByLayer
 62
  256
370
   -1
100
AcDbCircle
 10
-205
 20
-775
 40
5
  0
LINE
  5
325
100
AcDbEntity
  8
3 Draw
  6
ByLayer
 62
  256
370
   -1
100
AcDbLine
 10
-545
 20
-1140
 11
-545
 21
-1100
  0
LINE
  5
326
100
AcDbEntity
  8
3 Draw
  6
ByLayer
 62
  256
370
   -1
100
AcDbLine
 10
-505
 20
-1140
 11
-505
 21
-1100
  0
ARC
  5
327
100
AcDbEntity
  8
3 Draw
  6
ByLayer
 62
  256
370
   -1
100
AcDbCircle
 10
-525
 20
-1137.5
 40
42.5
100
AcDbArc
 50
61.92751306414704
 51
118.072486935853
  0
CIRCLE
  5
328
100
AcDbEntity
  8
3 Draw
  6
ByLayer
 62
  256
370
   -1
100
AcDbCircle
 10
-535
 20
-1130
 40
5
  0
CIRCLE
  5
329
100
AcDbEntity
  8
3 Draw
  6
ByLayer
 62
  256
370
   -1
100
AcDbCircle
 10
-515
 20
-1130
 40
5
  0
CIRCLE
  5
32A
100
AcDbEntity
  8
3 Draw
  6
ByLayer
 62
  256
370
   -1
100
AcDbCircle
 10
-535
 20
-1110
 40
5
  0
CIRCLE
  5
32B
100
AcDbEntity
  8
3 Draw
  6
ByLayer
 62
  256
370
   -1
100
AcDbCircle
 10
-515
 20
-1110
 40
5
  0
LINE
  5
32C
100
AcDbEntity
  8
3 Draw
  6
ByLayer
 62
  256
370
   -1
100
AcDbLine
 10
-70.00000000000001
 20
-785
 11
-70.00000000000001
 21
-1075
  0
LINE
  5
32D
100
AcDbEntity
  8
3 Draw
  6
ByLayer
 62
  256
370
   -1
100
AcDbLine
 10
-980
 20
-785
 11
-980
 21
-1075
  0
CIRCLE
  5
32E
100
AcDbEntity
  8
3 Draw
  6
ByLayer
 62
  256
370
   -1
100
AcDbCircle
 10
-854.9999999999999
 20
-744.9999999999999
 40
5
  0
CIRCLE
  5
32F
100
AcDbEntity
  8
3 Draw
  6
ByLayer
 62
  256
370
   -1
100
AcDbCircle
 10
-834.9999999999999
 20
-744.9999999999999
 40
5
  0
CIRCLE
  5
330
100
AcDbEntity
  8
3 Draw
  6
ByLayer
 62
  256
370
   -1
100
AcDbCircle
 10
-534.9999999999999
 20
-744.9999999999999
 40
5
  0
CIRCLE
  5
331
100
AcDbEntity
  8
3 Draw
  6
ByLayer
 62
  256
370
   -1
100
AcDbCircle
 10
-514.9999999999999
 20
-744.9999999999999
 40
5
  0
CIRCLE
  5
332
100
AcDbEntity
  8
3 Draw
  6
ByLayer
 62
  256
370
   -1
100
AcDbCircle
 10
-214.9999999999999
 20
-744.9999999999999
 40
5
  0
CIRCLE
  5
333
100
AcDbEntity
  8
3 Draw
  6
ByLayer
 62
  256
370
   -1
100
AcDbCircle
 10
-194.9999999999999
 20
-744.9999999999999
 40
5
  0
LINE
  5
334
100
AcDbEntity
  8
0
  6
ByLayer
 62
  256
370
   -1
100
AcDbLine
 10
-100
 20
-520
 11
-100
 21
-720
  0
LINE
  5
335
100
AcDbEntity
  8
0
  6
ByLayer
 62
  256
370
   -1
100
AcDbLine
 10
-950
 20
-520
 11
-950
 21
-720
  0
LINE
  5
336
100
AcDbEntity
  8
3 Draw
  6
ByLayer
 62
  256
370
   -1
100
AcDbLine
 10
99.99999999999989
 20
-720.0000000000001
 11
99.99999999999989
 21
-1140
  0
LINE
  5
337
100
AcDbEntity
  8
3 Draw
  6
ByLayer
 62
  256
370
   -1
100
AcDbLine
 10
99.99999999999989
 20
-1140
 11
114.9999999999999
 21
-1125
  0
LINE
  5
338
100
AcDbEntity
  8
3 Draw
  6
ByLayer
 62
  256
370
   -1
100
AcDbLine
 10
114.9999999999999
 20
-1125
 11
114.9999999999999
 21
-735.0000000000001
  0
LINE
  5
339
100
AcDbEntity
  8
3 Draw
  6
ByLayer
 62
  256
370
   -1
100
AcDbLine
 10
114.9999999999999
 20
-735.0000000000001
 11
99.99999999999989
 21
-720.0000000000001
  0
LINE
  5
33A
100
AcDbEntity
  8
0
  6
ByLayer
 62
  256
370
   -1
100
AcDbLine
 10
-100
 20
-720
 11
99.99999999999989
 21
-720.0000000000001
  0
LINE
  5
33B
100
AcDbEntity
  8
0
  6
ByLayer
 62
  256
370
   -1
100
AcDbLine
 10
-100
 20
-1140
 11
99.99999999999989
 21
-1140
  0
LINE
  5
33C
100
AcDbEntity
  8
3 Draw
  6
ByLayer
 62
  256
370
   -1
100
AcDbLine
 10
-1570
 20
115
 11
-1570
 21
100
  0
LINE
  5
33D
100
AcDbEntity
  8
3 Draw
  6
ByLayer
 62
  256
370
   -1
100
AcDbLine
 10
-1570
 20
100
 11
-1555
 21
84.99999999999999
  0
LINE
  5
33E
100
AcDbEntity
  8
3 Draw
  6
ByLayer
 62
  256
370
   -1
100
AcDbLine
 10
-1555
 20
430
 11
-1555
 21
100
  0
LINE
  5
33F
100
AcDbEntity
  8
3 Draw
  6
ByLayer
 62
  256
370
   -1
100
AcDbLine
 10
-1505
 20
100
 11
-1505
 21
430
  0
LINE
  5
340
100
AcDbEntity
  8
3 Draw
  6
ByLayer
 62
  256
370
   -1
100
AcDbLine
 10
-1570
 20
115
 11
-1555
 21
115
  0
LINE
  5
341
100
AcDbEntity
  8
3 Draw
  6
ByLayer
 62
  256
370
   -1
100
AcDbLine
 10
-1215
 20
430
 11
-1215
 21
100
  0
LINE
  5
342
100
AcDbEntity
  8
3 Draw
  6
ByLayer
 62
  256
370
   -1
100
AcDbLine
 10
-1505
 20
300
 11
-1215
 21
300
  0
LINE
  5
343
100
AcDbEntity
  8
3 Draw
  6
ByLayer
 62
  256
370
   -1
100
AcDbLine
 10
-1505
 20
295
 11
-1215
 21
295
  0
LINE
  5
344
100
AcDbEntity
  8
3 Draw
  6
ByLayer
 62
  256
370
   -1
100
AcDbLine
 10
-1215
 20
255
 11
-1505
 21
255
  0
LINE
  5
345
100
AcDbEntity
  8
3 Draw
  6
ByLayer
 62
  256
370
   -1
100
AcDbLine
 10
-1215
 20
250
 11
-1505
 21
250
  0
LINE
  5
346
100
AcDbEntity
  8
3 Draw
  6
ByLayer
 62
  256
370
   -1
100
AcDbLine
 10
-1165
 20
100
 11
-1165
 21
430
  0
LINE
  5
347
100
AcDbEntity
  8
3 Draw
  6
ByLayer
 62
  256
370
   -1
100
AcDbLine
 10
-1215
 20
115
 11
-1505
 21
115
  0
LINE
  5
348
100
AcDbEntity
  8
3 Draw
  6
ByLayer
 62
  256
370
   -1
100
AcDbLine
 10
-1150
 20
115
 11
-1150
 21
415
  0
LINE
  5
349
100
AcDbEntity
  8
3 Draw
  6
ByLayer
 62
  256
370
   -1
100
AcDbLine
 10
-1150
 20
100
 11
-1150
 21
115
  0
LINE
  5
34A
100
AcDbEntity
  8
3 Draw
  6
ByLayer
 62
  256
370
   -1
100
AcDbLine
 10
-1570
 20
100
 11
-1150
 21
100
  0
LINE
  5
34B
100
AcDbEntity
  8
3 Draw
  6
ByLayer
 62
  256
370
   -1
100
AcDbLine
 10
-1165
 20
115
 11
-1150
 21
115
  0
LINE
  5
34C
100
AcDbEntity
  8
3 Draw
  6
ByLayer
 62
  256
370
   -1
100
AcDbLine
 10
-1165
 20
84.99999999999999
 11
-1150
 21
100
  0
LINE
  5
34D
100
AcDbEntity
  8
3 Draw
  6
ByLayer
 62
  256
370
   -1
100
AcDbLine
 10
-1555
 20
84.99999999999999
 11
-1165
 21
84.99999999999999
  0
LINE
  5
34E
100
AcDbEntity
  8
3 Draw
  6
ByLayer
 62
  256
370
   -1
100
AcDbLine
 10
-1570
 20
115
 11
-1570
 21
415
  0
LINE
  5
34F
100
AcDbEntity
  8
3 Draw
  6
ByLayer
 62
  256
370
   -1
100
AcDbLine
 10
-1570
 20
415
 11
-1555
 21
415
  0
LINE
  5
350
100
AcDbEntity
  8
3 Draw
  6
ByLayer
 62
  256
370
   -1
100
AcDbLine
 10
-1505
 20
415
 11
-1215
 21
415
  0
LINE
  5
351
100
AcDbEntity
  8
3 Draw
  6
ByLayer
 62
  256
370
   -1
100
AcDbLine
 10
-1165
 20
415
 11
-1150
 21
415
  0
LINE
  5
352
100
AcDbEntity
  8
3 Draw
  6
ByLayer
 62
  256
370
   -1
100
AcDbLine
 10
-1165
 20
430
 11
-1215
 21
430
  0
LINE
  5
353
100
AcDbEntity
  8
3 Draw
  6
ByLayer
 62
  256
370
   -1
100
AcDbLine
 10
-1505
 20
430
 11
-1555
 21
430
  0
LINE
  5
354
100
AcDbEntity
  8
3 Draw
  6
ByLayer
 62
  256
370
   -1
100
AcDbLine
 10
-1575.679491799637
 20
428.8832047056094
 11
-1567.475778893665
 21
448.4459012108559
  0
LINE
  5
355
100
AcDbEntity
  8
3 Draw
  6
ByLayer
 62
  256
370
   -1
100
AcDbLine
 10
-1186.949760042574
 20
587.9089750954482
 11
-1181.270268242937
 21
574.0257703898388
  0
LINE
  5
356
100
AcDbEntity
  8
3 Draw
  6
ByLayer
 62
  256
370
   -1
100
AcDbLine
 10
-1567.475778893665
 20
448.4459012108559
 11
-1206.512456547821
 21
596.1126880014206
  0
LINE
  5
357
100
AcDbEntity
  8
3 Draw
  6
ByLayer
 62
  256
370
   -1
100
AcDbLine
 10
-1206.512456547821
 20
596.1126880014206
 11
-1186.949760042574
 21
587.9089750954482
  0
LINE
  5
358
100
AcDbEntity
  8
3 Draw
  6
ByLayer
 62
  256
370
   -1
100
AcDbLine
 10
-1570
 20
415
 11
-1575.679491799637
 21
428.8832047056094
  0
LINE
  5
359
100
AcDbEntity
  8
3 Draw
  6
ByLayer
 62
  256
370
   -1
100
AcDbLine
 10
-1181.270268242937
 20
574.0257703898388
 11
-1533.333326654782
 21
429.9999999999999
  0
LINE
  5
35A
100
AcDbEntity
  8
3 Draw
  6
ByLayer
 62
  256
370
   -1
100
AcDbLine
 10
-1555
 20
421.1363625186722
 11
-1570
 21
415
  0
LINE
  5
35B
100
AcDbEntity
  8
3 Draw
  6
ByLayer
 62
  256
370
   -1
100
AcDbLine
 10
-1576.605038780011
 20
428.5045719189669
 11
-1186.949760042574
 21
587.9089750954482
  0
LINE
  5
35C
100
AcDbEntity
  8
0
  6
ByLayer
 62
  256
370
   -1
100
AcDbLine
 10
-1150
 20
100
 11
-950.0000000000001
 21
100
  0
LINE
  5
35D
100
AcDbEntity
  8
0
  6
ByLayer
 62
  256
370
   -1
100
AcDbLine
 10
-950
 20
415
 11
-1150
 21
415
  0
LINE
  5
35E
100
AcDbEntity
  8
2 Dashed
  6
ByLayer
 62
  256
370
   -1
100
AcDbLine
 10
-1525
 20
260
 11
-1525
 21
290
  0
LINE
  5
35F
100
AcDbEntity
  8
2 Dashed
  6
ByLayer
 62
  256
370
   -1
100
AcDbLine
 10
-1525
 20
290
 11
-1195
 21
290
  0
LINE
  5
360
100
AcDbEntity
  8
2 Dashed
  6
ByLayer
 62
  256
370
   -1
100
AcDbLine
 10
-1195
 20
290
 11
-1195
 21
260
  0
LINE
  5
361
100
AcDbEntity
  8
2 Dashed
  6
ByLayer
 62
  256
370
   -1
100
AcDbLine
 10
-1195
 20
260
 11
-1525
 21
260
  0
LINE
  5
362
100
AcDbEntity
  8
2 Dashed
  6
ByLayer
 62
  256
370
   -1
100
AcDbLine
 10
-1215
 20
415
 11
-1165
 21
415
  0
LINE
  5
363
100
AcDbEntity
  8
2 Dashed
  6
ByLayer
 62
  256
370
   -1
100
AcDbLine
 10
-1555
 20
415
 11
-1505
 21
415
  0
LINE
  5
364
100
AcDbEntity
  8
2 Dashed
  6
ByLayer
 62
  256
370
   -1
100
AcDbLine
 10
-1555
 20
421.1363625186722
 11
-1533.333326654782
 21
430
  0
LINE
  5
365
100
AcDbEntity
  8
2 Dashed
  6
ByLayer
 62
  256
370
   -1
100
AcDbLine
 10
-1165
 20
115
 11
-1215
 21
115
  0
LINE
  5
366
100
AcDbEntity
  8
2 Dashed
  6
ByLayer
 62
  256
370
   -1
100
AcDbLine
 10
-1505
 20
115
 11
-1555
 21
115
  0
LINE
  5
367
100
AcDbEntity
  8
2 Dashed
  6
ByLayer
 62
  256
370
   -1
100
AcDbLine
 10
-115.0000000000001
 20
415
 11
-115.0000000000001
 21
115
  0
LINE
  5
368
100
AcDbEntity
  8
2 Dashed
  6
ByLayer
 62
  256
370
   -1
100
AcDbLine
 10
-130.0000000000001
 20
115
 11
-130.0000000000001
 21
415
  0
LINE
  5
369
100
AcDbEntity
  8
2 Dashed
  6
ByLayer
 62
  256
370
   -1
100
AcDbLine
 10
-130.0000000000001
 20
290
 11
-145.0000000000001
 21
290
  0
LINE
  5
36A
100
AcDbEntity
  8
2 Dashed
  6
ByLayer
 62
  256
370
   -1
100
AcDbLine
 10
-145.0000000000001
 20
290
 11
-145.0000000000001
 21
260
  0
LINE
  5
36B
100
AcDbEntity
  8
2 Dashed
  6
ByLayer
 62
  256
370
   -1
100
AcDbLine
 10
-145.0000000000001
 20
260
 11
-130.0000000000001
 21
260
  0
LINE
  5
36C
100
AcDbEntity
  8
2 Dashed
  6
ByLayer
 62
  256
370
   -1
100
AcDbLine
 10
-100.0000000000001
 20
300
 11
-115.0000000000001
 21
300
  0
LINE
  5
36D
100
AcDbEntity
  8
2 Dashed
  6
ByLayer
 62
  256
370
   -1
100
AcDbLine
 10
-100.0000000000001
 20
250
 11
-115.0000000000001
 21
250
  0
LINE
  5
36E
100
AcDbEntity
  8
2 Dashed
  6
ByLayer
 62
  256
370
   -1
100
AcDbLine
 10
145
 20
260
 11
145
 21
290
  0
LINE
  5
36F
100
AcDbEntity
  8
2 Dashed
  6
ByLayer
 62
  256
370
   -1
100
AcDbLine
 10
145
 20
290
 11
475
 21
290
  0
LINE
  5
370
100
AcDbEntity
  8
2 Dashed
  6
ByLayer
 62
  256
370
   -1
100
AcDbLine
 10
475
 20
290
 11
475
 21
260
  0
LINE
  5
371
100
AcDbEntity
  8
2 Dashed
  6
ByLayer
 62
  256
370
   -1
100
AcDbLine
 10
475
 20
260
 11
145
 21
260
  0
LINE
  5
372
100
AcDbEntity
  8
2 Dashed
  6
ByLayer
 62
  256
370
   -1
100
AcDbLine
 10
-935.0000000000001
 20
414.9999999999999
 11
-935.0000000000001
 21
114.9999999999999
  0
LINE
  5
373
100
AcDbEntity
  8
2 Dashed
  6
ByLayer
 62
  256
370
   -1
100
AcDbLine
 10
-920.0000000000001
 20
414.9999999999999
 11
-920.0000000000001
 21
114.9999999999999
  0
LINE
  5
374
100
AcDbEntity
  8
2 Dashed
  6
ByLayer
 62
  256
370
   -1
100
AcDbLine
 10
-950.0000000000001
 20
299.9999999999999
 11
-935.0000000000001
 21
299.9999999999999
  0
LINE
  5
375
100
AcDbEntity
  8
2 Dashed
  6
ByLayer
 62
  256
370
   -1
100
AcDbLine
 10
-950.0000000000001
 20
249.9999999999999
 11
-935.0000000000001
 21
249.9999999999999
  0
LINE
  5
376
100
AcDbEntity
  8
2 Dashed
  6
ByLayer
 62
  256
370
   -1
100
AcDbLine
 10
-920.0000000000001
 20
289.9999999999999
 11
-905.0000000000001
 21
289.9999999999999
  0
LINE
  5
377
100
AcDbEntity
  8
2 Dashed
  6
ByLayer
 62
  256
370
   -1
100
AcDbLine
 10
-905.0000000000001
 20
289.9999999999999
 11
-905.0000000000001
 21
259.9999999999999
  0
LINE
  5
378
100
AcDbEntity
  8
2 Dashed
  6
ByLayer
 62
  256
370
   -1
100
AcDbLine
 10
-905.0000000000001
 20
259.9999999999999
 11
-920.0000000000001
 21
259.9999999999999
  0
LINE
  5
379
100
AcDbEntity
  8
2 Dashed
  6
ByLayer
 62
  256
370
   -1
100
AcDbLine
 10
115
 20
415
 11
165
 21
415
  0
LINE
  5
37A
100
AcDbEntity
  8
2 Dashed
  6
ByLayer
 62
  256
370
   -1
100
AcDbLine
 10
455
 20
415
 11
505
 21
415
  0
LINE
  5
37B
100
AcDbEntity
  8
2 Dashed
  6
ByLayer
 62
  256
370
   -1
100
AcDbLine
 10
505
 20
115
 11
454.9999999999999
 21
114.9999999999999
  0
LINE
  5
37C
100
AcDbEntity
  8
2 Dashed
  6
ByLayer
 62
  256
370
   -1
100
AcDbLine
 10
165
 20
115
 11
115
 21
115
  0
LINE
  5
37D
100
AcDbEntity
  8
0
  6
ByLayer
 62
  256
370
   -1
100
AcDbLine
 10
-525
 20
-1160
 11
-525
 21
450
  0
LINE
  5
37E
100
AcDbEntity
  8
0
  6
ByLayer
 62
  256
370
   -1
100
AcDbLine
 10
-985
 20
-455
 11
-985
 21
-785
  0
LINE
  5
37F
100
AcDbEntity
  8
0
  6
ByLayer
 62
  256
370
   -1
100
AcDbLine
 10
-985
 20
-165
 11
-985
 21
255
  0
DIMENSION
  5
380
100
AcDbEntity
  8
1 Dims
  6
ByLayer
 62
  256
370
   -1
100
AcDbDimension
  2
*D1
 10
-815
 20
465
 30
0
 11
-875
 21
472.5
 31
0
 70
   32
 71
    5
  3
Standard
 53
0
210
0
220
0
230
1
100
AcDbAlignedDimension
 13
-935
 23
430
 33
0
 14
-815
 24
445
 34
0
100
AcDbRotatedDimension
  0
DIMENSION
  5
381
100
AcDbEntity
  8
1 Dims
  6
ByLayer
 62
  256
370
   -1
100
AcDbDimension
  2
*D2
 10
-765
 20
465
 30
0
 11
-790
 21
472.5
 31
0
 70
   32
 71
    5
  3
Standard
 53
0
210
0
220
0
230
1
100
AcDbAlignedDimension
 13
-815
 23
445
 33
0
 14
-765
 24
445
 34
0
100
AcDbRotatedDimension
  0
DIMENSION
  5
382
100
AcDbEntity
  8
1 Dims
  6
ByLayer
 62
  256
370
   -1
100
AcDbDimension
  2
*D3
 10
-285
 20
465
 30
0
 11
-525
 21
472.5
 31
0
 70
   32
 71
    5
  3
Standard
 53
0
210
0
220
0
230
1
100
AcDbAlignedDimension
 13
-765
 23
445
 33
0
 14
-285
 24
445
 34
0
100
AcDbRotatedDimension
  0
DIMENSION
  5
383
100
AcDbEntity
  8
1 Dims
  6
ByLayer
 62
  256
370
   -1
100
AcDbDimension
  2
*D4
 10
-235
 20
465
 30
0
 11
-260
 21
472.5
 31
0
 70
   32
 71
    5
  3
Standard
 53
0
210
0
220
0
230
1
100
AcDbAlignedDimension
 13
-285
 23
445
 33
0
 14
-235
 24
445
 34
0
100
AcDbRotatedDimension
  0
DIMENSION
  5
384
100
AcDbEntity
  8
1 Dims
  6
ByLayer
 62
  256
370
   -1
100
AcDbDimension
  2
*D5
 10
-115
 20
465
 30
0
 11
-175
 21
472.5
 31
0
 70
   32
 71
    5
  3
Standard
 53
0
210
0
220
0
230
1
100
AcDbAlignedDimension
 13
-235
 23
445
 33
0
 14
-115
 24
430
 34
0
100
AcDbRotatedDimension
  0
DIMENSION
  5
385
100
AcDbEntity
  8
1 Dims
  6
ByLayer
 62
  256
370
   -1
100
AcDbDimension
  2
*D6
 10
520
 20
465
 30
0
 11
309.9999999999999
 21
472.5
 31
0
 70
   32
 71
    5
  3
Standard
 53
0
210
0
220
0
230
1
100
AcDbAlignedDimension
 13
99.99999999999989
 23
429.9999999999999
 33
0
 14
520
 24
430
 34
0
100
AcDbRotatedDimension
  0
DIMENSION
  5
386
100
AcDbEntity
  8
1 Dims
  6
ByLayer
 62
  256
370
   -1
100
AcDbDimension
  2
*D7
 10
540
 20
114.9999999999999
 30
0
 11
532.5
 21
264.9999999999999
 31
0
 70
   33
 71
    5
  3
Standard
 53
0
210
0
220
0
230
1
100
AcDbAlignedDimension
 13
519.9999999999999
 23
414.9999999999999
 33
0
 14
519.9999999999999
 24
114.9999999999999
 34
0
  0
DIMENSION
  5
387
100
AcDbEntity
  8
1 Dims
  6
ByLayer
 62
  256
370
   -1
100
AcDbDimension
  2
*D8
 10
560
 20
99.99999999999989
 30
0
 11
552.5
 21
264.9999999999999
 31
0
 70
   33
 71
    5
  3
Standard
 53
0
210
0
220
0
230
1
100
AcDbAlignedDimension
 13
519.9999999999999
 23
429.9999999999999
 33
0
 14
519.9999999999999
 24
99.9999999999999
 34
0
  0
DIMENSION
  5
388
100
AcDbEntity
  8
1 Dims
  6
ByLayer
 62
  256
370
   -1
100
AcDbDimension
  2
*D9
 10
-145
 20
415
 30
0
 11
-152.5
 21
352.5
 31
0
 70
   32
 71
    5
  3
Standard
 53
0
210
0
220
0
230
1
100
AcDbAlignedDimension
 13
-145.0000000000001
 23
290
 33
0
 14
-130.0000000000001
 24
415
 34
0
 50
90
100
AcDbRotatedDimension
  0
DIMENSION
  5
389
100
AcDbEntity
  8
1 Dims
  6
ByLayer
 62
  256
370
   -1
100
AcDbDimension
  2
*D10
 10
-145
 20
-475
 30
0
 11
-152.5
 21
-490
 31
0
 70
   32
 71
    5
  3
Standard
 53
0
210
0
220
0
230
1
100
AcDbAlignedDimension
 13
-145
 23
-505
 33
0
 14
-145
 24
-475
 34
0
 50
90
100
AcDbRotatedDimension
  0
DIMENSION
  5
38A
100
AcDbEntity
  8
1 Dims
  6
ByLayer
 62
  256
370
   -1
100
AcDbDimension
  2
*D11
 10
-145
 20
-115
 30
0
 11
-152.5
 21
-130
 31
0
 70
   32
 71
    5
  3
Standard
 53
0
210
0
220
0
230
1
100
AcDbAlignedDimension
 13
-145
 23
-145
 33
0
 14
-145
 24
-115
 34
0
 50
90
100
AcDbRotatedDimension
  0
DIMENSION
  5
38B
100
AcDbEntity
  8
1 Dims
  6
ByLayer
 62
  256
370
   -1
100
AcDbDimension
  2
*D12
 10
-80
 20
-165
 30
0
 11
-87.5
 21
-140
 31
0
 70
   32
 71
    5
  3
Standard
 53
0
210
0
220
0
230
1
100
AcDbAlignedDimension
 13
-100
 23
-115
 33
0
 14
-100
 24
-165
 34
0
 50
90
100
AcDbRotatedDimension
  0
DIMENSION
  5
38C
100
AcDbEntity
  8
1 Dims
  6
ByLayer
 62
  256
370
   -1
100
AcDbDimension
  2
*D13
 10
-80
 20
-505
 30
0
 11
-87.5
 21
-480
 31
0
 70
   32
 71
    5
  3
Standard
 53
0
210
0
220
0
230
1
100
AcDbAlignedDimension
 13
-100
 23
-455
 33
0
 14
-100
 24
-505
 34
0
 50
90
100
AcDbRotatedDimension
  0
DIMENSION
  5
38D
100
AcDbEntity
  8
1 Dims
  6
ByLayer
 62
  256
370
   -1
100
AcDbDimension
  2
*D14
 10
-100
 20
-80
 30
0
 11
-525
 21
-72.5
 31
0
 70
   32
 71
    5
  3
Standard
 53
0
210
0
220
0
230
1
100
AcDbAlignedDimension
 13
-950
 23
-100
 33
0
 14
-100
 24
-100
 34
0
100
AcDbRotatedDimension
  0
DIMENSION
  5
38E
100
AcDbEntity
  8
1 Dims
  6
ByLayer
 62
  256
370
   -1
100
AcDbDimension
  2
*D15
 10
-1005
 20
-455
 30
0
 11
-1012.5
 21
-310
 31
0
 70
   32
 71
    5
  3
Standard
 53
0
210
0
220
0
230
1
100
AcDbAlignedDimension
 13
-985
 23
-165
 33
0
 14
-985
 24
-455
 34
0
 50
90
100
AcDbRotatedDimension
  0
DIMENSION
  5
38F
100
AcDbEntity
  8
1 Dims
  6
ByLayer
 62
  256
370
   -1
100
AcDbDimension
  2
*D16
 10
-885
 20
-475
 30
0
 11
-892.5
 21
-310
 31
0
 70
   32
 71
    5
  3
Standard
 53
0
210
0
220
0
230
1
100
AcDbAlignedDimension
 13
-905
 23
-145
 33
0
 14
-905
 24
-475
 34
0
 50
90
100
AcDbRotatedDimension
  0
DIMENSION
  5
390
100
AcDbEntity
  8
1 Dims
  6
ByLayer
 62
  256
370
   -1
100
AcDbDimension
  2
*D17
 10
504.9999999999999
 20
65
 30
0
 11
309.9999999999999
 21
72.5
 31
0
 70
   32
 71
    5
  3
Standard
 53
0
210
0
220
0
230
1
100
AcDbAlignedDimension
 13
114.9999999999999
 23
99.9999999999999
 33
0
 14
504.9999999999999
 24
99.9999999999999
 34
0
100
AcDbRotatedDimension
  0
DIMENSION
  5
391
100
AcDbEntity
  8
1 Dims
  6
ByLayer
 62
  256
370
   -1
100
AcDbDimension
  2
*D18
 10
-815
 20
65
 30
0
 11
-875
 21
72.5
 31
0
 70
   32
 71
    5
  3
Standard
 53
0
210
0
220
0
230
1
100
AcDbAlignedDimension
 13
-935
 23
100
 33
0
 14
-815
 24
84.99999999999999
 34
0
100
AcDbRotatedDimension
  0
DIMENSION
  5
392
100
AcDbEntity
  8
1 Dims
  6
ByLayer
 62
  256
370
   -1
100
AcDbDimension
  2
*D19
 10
-765
 20
65
 30
0
 11
-790
 21
72.5
 31
0
 70
   32
 71
    5
  3
Standard
 53
0
210
0
220
0
230
1
100
AcDbAlignedDimension
 13
-815
 23
85
 33
0
 14
-765
 24
85
 34
0
100
AcDbRotatedDimension
  0
DIMENSION
  5
393
100
AcDbEntity
  8
1 Dims
  6
ByLayer
 62
  256
370
   -1
100
AcDbDimension
  2
*D20
 10
-550
 20
65
 30
0
 11
-657.5
 21
72.5
 31
0
 70
   32
 71
    5
  3
Standard
 53
0
210
0
220
0
230
1
100
AcDbAlignedDimension
 13
-765
 23
84.99999999999999
 33
0
 14
-550
 24
84.99999999999999
 34
0
100
AcDbRotatedDimension
  0
DIMENSION
  5
394
100
AcDbEntity
  8
1 Dims
  6
ByLayer
 62
  256
370
   -1
100
AcDbDimension
  2
*D21
 10
-500
 20
65
 30
0
 11
-525
 21
72.5
 31
0
 70
   32
 71
    5
  3
Standard
 53
0
210
0
220
0
230
1
100
AcDbAlignedDimension
 13
-550
 23
84.99999999999999
 33
0
 14
-500
 24
85
 34
0
100
AcDbRotatedDimension
  0
DIMENSION
  5
395
100
AcDbEntity
  8
1 Dims
  6
ByLayer
 62
  256
370
   -1
100
AcDbDimension
  2
*D22
 10
-285
 20
65
 30
0
 11
-392.5
 21
72.5
 31
0
 70
   32
 71
    5
  3
Standard
 53
0
210
0
220
0
230
1
100
AcDbAlignedDimension
 13
-500
 23
84.99999999999999
 33
0
 14
-285
 24
85
 34
0
100
AcDbRotatedDimension
  0
DIMENSION
  5
396
100
AcDbEntity
  8
1 Dims
  6
ByLayer
 62
  256
370
   -1
100
AcDbDimension
  2
*D23
 10
-235
 20
65
 30
0
 11
-260
 21
72.5
 31
0
 70
   32
 71
    5
  3
Standard
 53
0
210
0
220
0
230
1
100
AcDbAlignedDimension
 13
-285
 23
84.99999999999999
 33
0
 14
-235
 24
85
 34
0
100
AcDbRotatedDimension
  0
DIMENSION
  5
397
100
AcDbEntity
  8
1 Dims
  6
ByLayer
 62
  256
370
   -1
100
AcDbDimension
  2
*D24
 10
-115
 20
65
 30
0
 11
-175
 21
72.5
 31
0
 70
   32
 71
    5
  3
Standard
 53
0
210
0
220
0
230
1
100
AcDbAlignedDimension
 13
-235
 23
84.99999999999999
 33
0
 14
-115
 24
100
 34
0
100
AcDbRotatedDimension
  0
DIMENSION
  5
398
100
AcDbEntity
  8
1 Dims
  6
ByLayer
 62
  256
370
   -1
100
AcDbDimension
  2
*D25
 10
-935
 20
465
 30
0
 11
-942.5
 21
472.5
 31
0
 70
   32
 71
    5
  3
Standard
 53
0
210
0
220
0
230
1
100
AcDbAlignedDimension
 13
-950
 23
430
 33
0
 14
-935
 24
430
 34
0
100
AcDbRotatedDimension
  0
DIMENSION
  5
399
100
AcDbEntity
  8
1 Dims
  6
ByLayer
 62
  256
370
   -1
100
AcDbDimension
  2
*D26
 10
-100
 20
465
 30
0
 11
-107.5
 21
472.5
 31
0
 70
   32
 71
    5
  3
Standard
 53
0
210
0
220
0
230
1
100
AcDbAlignedDimension
 13
-115
 23
430
 33
0
 14
-100
 24
430
 34
0
100
AcDbRotatedDimension
  0
DIMENSION
  5
39A
100
AcDbEntity
  8
1 Dims
  6
ByLayer
 62
  256
370
   -1
100
AcDbDimension
  2
*D27
 10
-1005
 20
250
 30
0
 11
-1012.5
 21
275
 31
0
 70
   32
 71
    5
  3
Standard
 53
0
210
0
220
0
230
1
100
AcDbAlignedDimension
 13
-980
 23
300
 33
0
 14
-980
 24
250
 34
0
 50
90
100
AcDbRotatedDimension
  0
DIMENSION
  5
39B
100
AcDbEntity
  8
1 Dims
  6
ByLayer
 62
  256
370
   -1
100
AcDbDimension
  2
*D28
 10
-885
 20
259.9999999999999
 30
0
 11
-892.5
 21
274.9999999999999
 31
0
 70
   32
 71
    5
  3
Standard
 53
0
210
0
220
0
230
1
100
AcDbAlignedDimension
 13
-905
 23
290
 33
0
 14
-905.0000000000001
 24
259.9999999999999
 34
0
 50
90
100
AcDbRotatedDimension
  0
DIMENSION
  5
39C
100
AcDbEntity
  8
1 Dims
  6
ByLayer
 62
  256
370
   -1
100
AcDbDimension
  2
*D29
 10
-935
 20
-540
 30
0
 11
-960
 21
-532.5
 31
0
 70
   32
 71
    5
  3
Standard
 53
0
210
0
220
0
230
1
100
AcDbAlignedDimension
 13
-985
 23
-455
 33
0
 14
-935
 24
-455
 34
0
100
AcDbRotatedDimension
  0
DIMENSION
  5
39D
100
AcDbEntity
  8
1 Dims
  6
ByLayer
 62
  256
370
   -1
100
AcDbDimension
  2
*D30
 10
-815
 20
-1160
 30
0
 11
-875
 21
-1152.5
 31
0
 70
   32
 71
    5
  3
Standard
 53
0
210
0
220
0
230
1
100
AcDbAlignedDimension
 13
-935
 23
-1140
 33
0
 14
-815
 24
-1140
 34
0
100
AcDbRotatedDimension
  0
DIMENSION
  5
39E
100
AcDbEntity
  8
1 Dims
  6
ByLayer
 62
  256
370
   -1
100
AcDbDimension
  2
*D31
 10
-765
 20
-1160
 30
0
 11
-790
 21
-1152.5
 31
0
 70
   32
 71
    5
  3
Standard
 53
0
210
0
220
0
230
1
100
AcDbAlignedDimension
 13
-815
 23
-1140
 33
0
 14
-765
 24
-1140
 34
0
100
AcDbRotatedDimension
  0
DIMENSION
  5
39F
100
AcDbEntity
  8
1 Dims
  6
ByLayer
 62
  256
370
   -1
100
AcDbDimension
  2
*D32
 10
-235
 20
-1160
 30
0
 11
-260
 21
-1152.5
 31
0
 70
   32
 71
    5
  3
Standard
 53
0
210
0
220
0
230
1
100
AcDbAlignedDimension
 13
-285
 23
-1140
 33
0
 14
-235
 24
-1140
 34
0
100
AcDbRotatedDimension
  0
DIMENSION
  5
3A0
100
AcDbEntity
  8
1 Dims
  6
ByLayer
 62
  256
370
   -1
100
AcDbDimension
  2
*D33
 10
-115
 20
-1160
 30
0
 11
-175
 21
-1152.5
 31
0
 70
   32
 71
    5
  3
Standard
 53
0
210
0
220
0
230
1
100
AcDbAlignedDimension
 13
-235
 23
-1140
 33
0
 14
-115
 24
-1140
 34
0
100
AcDbRotatedDimension
  0
DIMENSION
  5
3A1
100
AcDbEntity
  8
1 Dims
  6
ByLayer
 62
  256
370
   -1
100
AcDbDimension
  2
*D34
 10
-285
 20
-1160
 30
0
 11
-405
 21
-1152.5
 31
0
 70
   32
 71
    5
  3
Standard
 53
0
210
0
220
0
230
1
100
AcDbAlignedDimension
 13
-525
 23
-1140
 33
0
 14
-285
 24
-1140
 34
0
100
AcDbRotatedDimension
  0
DIMENSION
  5
3A2
100
AcDbEntity
  8
1 Dims
  6
ByLayer
 62
  256
370
   -1
100
AcDbDimension
  2
*D35
 10
-545
 20
-1160
 30
0
 11
-645
 21
-1152.5
 31
0
 70
   32
 71
    5
  3
Standard
 53
0
210
0
220
0
230
1
100
AcDbAlignedDimension
 13
-765
 23
-1140
 33
0
 14
-525
 24
-1137.5
 34
0
100
AcDbRotatedDimension
  0
DIMENSION
  5
3A3
100
AcDbEntity
  8
1 Dims
  6
ByLayer
 62
  256
370
   -1
100
AcDbDimension
  2
*D36
 10
-115
 20
-1180
 30
0
 11
-525
 21
-1172.5
 31
0
 70
   32
 71
    5
  3
Standard
 53
0
210
0
220
0
230
1
100
AcDbAlignedDimension
 13
-935
 23
-1140
 33
0
 14
-115
 24
-1140
 34
0
100
AcDbRotatedDimension
  0
DIMENSION
  5
3A4
100
AcDbEntity
  8
1 Dims
  6
ByLayer
 62
  256
370
   -1
100
AcDbDimension
  2
*D37
 10
-865
 20
-700
 30
0
 11
-900
 21
-692.5
 31
0
 70
   32
 71
    5
  3
Standard
 53
0
210
0
220
0
230
1
100
AcDbAlignedDimension
 13
-935
 23
-720
 33
0
 14
-865
 24
-720
 34
0
100
AcDbRotatedDimension
  0
DIMENSION
  5
3A5
100
AcDbEntity
  8
1 Dims
  6
ByLayer
 62
  256
370
   -1
100
AcDbDimension
  2
*D38
 10
-115
 20
-700
 30
0
 11
-150
 21
-692.5
 31
0
 70
   32
 71
    5
  3
Standard
 53
0
210
0
220
0
230
1
100
AcDbAlignedDimension
 13
-185
 23
-720
 33
0
 14
-115
 24
-720
 34
0
100
AcDbRotatedDimension
  0
DIMENSION
  5
3A6
100
AcDbEntity
  8
1 Dims
  6
ByLayer
 62
  256
370
   -1
100
AcDbDimension
  2
*D39
 10
-815
 20
-680
 30
0
 11
-875
 21
-672.5
 31
0
 70
   32
 71
    5
  3
Standard
 53
0
210
0
220
0
230
1
100
AcDbAlignedDimension
 13
-935
 23
-720
 33
0
 14
-815
 24
-720
 34
0
100
AcDbRotatedDimension
  0
DIMENSION
  5
3A7
100
AcDbEntity
  8
1 Dims
  6
ByLayer
 62
  256
370
   -1
100
AcDbDimension
  2
*D40
 10
-235
 20
-680
 30
0
 11
-175
 21
-672.5
 31
0
 70
   32
 71
    5
  3
Standard
 53
0
210
0
220
0
230
1
100
AcDbAlignedDimension
 13
-115
 23
-720
 33
0
 14
-235
 24
-720
 34
0
100
AcDbRotatedDimension
  0
DIMENSION
  5
3A8
100
AcDbEntity
  8
1 Dims
  6
ByLayer
 62
  256
370
   -1
100
AcDbDimension
  2
*D41
 10
135
 20
-1125
 30
0
 11
127.5
 21
-930
 31
0
 70
   32
 71
    5
  3
Standard
 53
0
210
0
220
0
230
1
100
AcDbAlignedDimension
 13
114.9999999999999
 23
-735.0000000000001
 33
0
 14
115
 24
-1125
 34
0
 50
90
100
AcDbRotatedDimension
  0
DIMENSION
  5
3A9
100
AcDbEntity
  8
1 Dims
  6
ByLayer
 62
  256
370
   -1
100
AcDbDimension
  2
*D42
 10
155
 20
-720.0000000000001
 30
0
 11
147.5
 21
-930
 31
0
 70
   32
 71
    5
  3
Standard
 53
0
210
0
220
0
230
1
100
AcDbAlignedDimension
 13
100
 23
-1140
 33
0
 14
99.99999999999989
 24
-720.0000000000001
 34
0
 50
90
100
AcDbRotatedDimension
  0
DIMENSION
  5
3AA
100
AcDbEntity
  8
1 Dims
  6
ByLayer
 62
  256
370
   -1
100
AcDbDimension
  2
*D43
 10
135
 20
-720.0000000000001
 30
0
 11
127.5
 21
-727.5
 31
0
 70
   32
 71
    5
  3
Standard
 53
0
210
0
220
0
230
1
100
AcDbAlignedDimension
 13
115
 23
-735
 33
0
 14
99.99999999999989
 24
-720.0000000000001
 34
0
 50
90
100
AcDbRotatedDimension
  0
DIMENSION
  5
3AB
100
AcDbEntity
  8
1 Dims
  6
ByLayer
 62
  256
370
   -1
100
AcDbDimension
  2
*D44
 10
135
 20
-1125
 30
0
 11
127.5
 21
-1132.5
 31
0
 70
   32
 71
    5
  3
Standard
 53
0
210
0
220
0
230
1
100
AcDbAlignedDimension
 13
100
 23
-1140
 33
0
 14
115
 24
-1125
 34
0
 50
90
100
AcDbRotatedDimension
  0
DIMENSION
  5
3AC
100
AcDbEntity
  8
1 Dims
  6
ByLayer
 62
  256
370
   -1
100
AcDbDimension
  2
*D45
 10
99.99999999999989
 20
-700
 30
0
 11
107.4999999999999
 21
-692.5
 31
0
 70
   32
 71
    5
  3
Standard
 53
0
210
0
220
0
230
1
100
AcDbAlignedDimension
 13
115
 23
-735
 33
0
 14
99.99999999999989
 24
-720.0000000000001
 34
0
100
AcDbRotatedDimension
  0
DIMENSION
  5
3AD
100
AcDbEntity
  8
1 Dims
  6
ByLayer
 62
  256
370
   -1
100
AcDbDimension
  2
*D46
 10
-130
 20
-550
 30
0
 11
-525
 21
-542.5
 31
0
 70
   33
 71
    5
  3
Standard
 53
0
210
0
220
0
230
1
100
AcDbAlignedDimension
 13
-920
 23
-505
 33
0
 14
-130
 24
-505
 34
0
  0
DIMENSION
  5
3AE
100
AcDbEntity
  8
1 Dims
  6
ByLayer
 62
  256
370
   -1
100
AcDbDimension
  2
*D47
 10
-1050
 20
-505
 30
0
 11
-1057.5
 21
-310
 31
0
 70
   33
 71
    5
  3
Standard
 53
0
210
0
220
0
230
1
100
AcDbAlignedDimension
 13
-950
 23
-115
 33
0
 14
-950
 24
-505
 34
0
  0
LWPOLYLINE
  5
3AF
100
AcDbEntity
  8
3 Draw
  6
ByLayer
 62
  256
370
   -1
100
AcDbPolyline
 90
    4
 70
    1
 43
0
 10
1000
 20
200
 10
1800
 20
200
 10
1800
 20
-1000
 10
1000
 20
-1000
  0
LINE
  5
3B0
100
AcDbEntity
  8
2 Dashed
  6
ByLayer
 62
  256
370
   -1
100
AcDbLine
 10
1380
 20
200
 11
1380
 21
-650
  0
LINE
  5
3B1
100
AcDbEntity
  8
2 Dashed
  6
ByLayer
 62
  256
370
   -1
100
AcDbLine
 10
1380
 20
-650
 11
1800
 21
-650
  0
LINE
  5
3B2
100
AcDbEntity
  8
2 Dashed
  6
ByLayer
 62
  256
370
   -1
100
AcDbLine
 10
1080
 20
200
 11
1080
 21
-650
  0
LINE
  5
3B3
100
AcDbEntity
  8
2 Dashed
  6
ByLayer
 62
  256
370
   -1
100
AcDbLine
 10
1080
 20
-650
 11
1380
 21
-650
  0
LINE
  5
3B4
100
AcDbEntity
  8
2 Dashed
  6
ByLayer
 62
  256
370
   -1
100
AcDbLine
 10
1080
 20
-220
 11
1030
 21
-220
  0
LINE
  5
3B5
100
AcDbEntity
  8
2 Dashed
  6
ByLayer
 62
  256
370
   -1
100
AcDbLine
 10
1080
 20
-640
 11
1030
 21
-640
  0
LINE
  5
3B6
100
AcDbEntity
  8
2 Dashed
  6
ByLayer
 62
  256
370
   -1
100
AcDbLine
 10
1030
 20
-640
 11
1030
 21
200
  0
LINE
  5
3B7
100
AcDbEntity
  8
2 Dashed
  6
ByLayer
 62
  256
370
   -1
100
AcDbLine
 10
1800
 20
-950
 11
1410
 21
-950
  0
LINE
  5
3B8
100
AcDbEntity
  8
2 Dashed
  6
ByLayer
 62
  256
370
   -1
100
AcDbLine
 10
1410
 20
-950
 11
1410
 21
-650
  0
LINE
  5
3B9
100
AcDbEntity
  8
2 Dashed
  6
ByLayer
 62
  256
370
   -1
100
AcDbLine
 10
1410
 20
-700
 11
1080
 21
-700
  0
LINE
  5
3BA
100
AcDbEntity
  8
2 Dashed
  6
ByLayer
 62
  256
370
   -1
100
AcDbLine
 10
1080
 20
-700
 11
1080
 21
-650
  0
LINE
  5
3BB
100
AcDbEntity
  8
2 Dashed
  6
ByLayer
 62
  256
370
   -1
100
AcDbLine
 10
1080
 20
-700
 11
1080
 21
-750
  0
LINE
  5
3BC
100
AcDbEntity
  8
2 Dashed
  6
ByLayer
 62
  256
370
   -1
100
AcDbLine
 10
1080
 20
-750
 11
1410
 21
-750
  0
LINE
  5
3BD
100
AcDbEntity
  8
2 Dashed
  6
ByLayer
 62
  256
370
   -1
100
AcDbLine
 10
1410
 20
-950
 11
1410
 21
-980
  0
LINE
  5
3BE
100
AcDbEntity
  8
2 Dashed
  6
ByLayer
 62
  256
370
   -1
100
AcDbLine
 10
1410
 20
-980
 11
1800
 21
-980
  0
DIMENSION
  5
3BF
100
AcDbEntity
  8
1 Dims
  6
ByLayer
 62
  256
370
   -1
100
AcDbDimension
  2
*D48
 10
1850
 20
-650
 30
0
 11
1842.5
 21
-225
 31
0
 70
   33
 71
    5
  3
Standard
 53
0
210
0
220
0
230
1
100
AcDbAlignedDimension
 13
1800
 23
200
 33
0
 14
1800
 24
-650
 34
0
  0
DIMENSION
  5
3C0
100
AcDbEntity
  8
1 Dims
  6
ByLayer
 62
  256
370
   -1
100
AcDbDimension
  2
*D49
 10
1850
 20
-950
 30
0
 11
1842.5
 21
-800
 31
0
 70
   33
 71
    5
  3
Standard
 53
0
210
0
220
0
230
1
100
AcDbAlignedDimension
 13
1800
 23
-650
 33
0
 14
1800
 24
-950
 34
0
  0
DIMENSION
  5
3C1
100
AcDbEntity
  8
1 Dims
  6
ByLayer
 62
  256
370
   -1
100
AcDbDimension
  2
*D50
 10
1850
 20
-980
 30
0
 11
1842.5
 21
-965
 31
0
 70
   33
 71
    5
  3
Standard
 53
0
210
0
220
0
230
1
100
AcDbAlignedDimension
 13
1800
 23
-950
 33
0
 14
1800
 24
-980
 34
0
  0
DIMENSION
  5
3C2
100
AcDbEntity
  8
1 Dims
  6
ByLayer
 62
  256
370
   -1
100
AcDbDimension
  2
*D51
 10
1900
 20
-1000
 30
0
 11
1892.5
 21
-400
 31
0
 70
   33
 71
    5
  3
Standard
 53
0
210
0
220
0
230
1
100
AcDbAlignedDimension
 13
1800
 23
200
 33
0
 14
1800
 24
-1000
 34
0
  0
DIMENSION
  5
3C3
100
AcDbEntity
  8
1 Dims
  6
ByLayer
 62
  256
370
   -1
100
AcDbDimension
  2
*D52
 10
1380
 20
250
 30
0
 11
1590
 21
257.5
 31
0
 70
   33
 71
    5
  3
Standard
 53
0
210
0
220
0
230
1
100
AcDbAlignedDimension
 13
1800
 23
200
 33
0
 14
1380
 24
200
 34
0
  0
DIMENSION
  5
3C4
100
AcDbEntity
  8
1 Dims
  6
ByLayer
 62
  256
370
   -1
100
AcDbDimension
  2
*D53
 10
1080
 20
250
 30
0
 11
1230
 21
257.5
 31
0
 70
   33
 71
    5
  3
Standard
 53
0
210
0
220
0
230
1
100
AcDbAlignedDimension
 13
1380
 23
200
 33
0
 14
1080
 24
200
 34
0
  0
DIMENSION
  5
3C5
100
AcDbEntity
  8
1 Dims
  6
ByLayer
 62
  256
370
   -1
100
AcDbDimension
  2
*D54
 10
1030
 20
250
 30
0
 11
1055
 21
257.5
 31
0
 70
   33
 71
    5
  3
Standard
 53
0
210
0
220
0
230
1
100
AcDbAlignedDimension
 13
1080
 23
200
 33
0
 14
1030
 24
200
 34
0
  0
DIMENSION
  5
3C6
100
AcDbEntity
  8
1 Dims
  6
ByLayer
 62
  256
370
   -1
100
AcDbDimension
  2
*D55
 10
1800
 20
300
 30
0
 11
1400
 21
307.5
 31
0
 70
   33
 71
    5
  3
Standard
 53
0
210
0
220
0
230
1
100
AcDbAlignedDimension
 13
1000
 23
200
 33
0
 14
1800
 24
200
 34
0
  0
DIMENSION
  5
3C7
100
AcDbEntity
  8
1 Dims
  6
ByLayer
 62
  256
370
   -1
100
AcDbDimension
  2
*D56
 10
1410
 20
-1050
 30
0
 11
1605
 21
-1042.5
 31
0
 70
   32
 71
    5
  3
Standard
 53
0
210
0
220
0
230
1
100
AcDbAlignedDimension
 13
1800
 23
-1000
 33
0
 14
1410
 24
-980
 34
0
100
AcDbRotatedDimension
  0
DIMENSION
  5
3C8
100
AcDbEntity
  8
1 Dims
  6
ByLayer
 62
  256
370
   -1
100
AcDbDimension
  2
*D57
 10
1080
 20
-1050
 30
0
 11
1245
 21
-1042.5
 31
0
 70
   32
 71
    5
  3
Standard
 53
0
210
0
220
0
230
1
100
AcDbAlignedDimension
 13
1410
 23
-980
 33
0
 14
1080
 24
-750
 34
0
100
AcDbRotatedDimension
  0
DIMENSION
  5
3C9
100
AcDbEntity
  8
1 Dims
  6
ByLayer
 62
  256
370
   -1
100
AcDbDimension
  2
*D58
 10
1080
 20
-1050
 30
0
 11
1055
 21
-1042.5
 31
0
 70
   32
 71
    5
  3
Standard
 53
0
210
0
220
0
230
1
100
AcDbAlignedDimension
 13
1030
 23
-640
 33
0
 14
1080
 24
-750
 34
0
100
AcDbRotatedDimension
  0
DIMENSION
  5
3CA
100
AcDbEntity
  8
1 Dims
  6
ByLayer
 62
  256
370
   -1
100
AcDbDimension
  2
*D59
 10
1000
 20
-1100
 30
0
 11
1400
 21
-1092.5
 31
0
 70
   33
 71
    5
  3
Standard
 53
0
210
0
220
0
230
1
100
AcDbAlignedDimension
 13
1800
 23
-1000
 33
0
 14
1000
 24
-1000
 34
0
  0
DIMENSION
  5
3CB
100
AcDbEntity
  8
1 Dims
  6
ByLayer
 62
  256
370
   -1
100
AcDbDimension
  2
*D60
 10
950
 20
-700
 30
0
 11
942.5
 21
-725
 31
0
 70
   33
 71
    5
  3
Standard
 53
0
210
0
220
0
230
1
100
AcDbAlignedDimension
 13
1080
 23
-750
 33
0
 14
1080
 24
-700
 34
0
  0
DIMENSION
  5
3CC
100
AcDbEntity
  8
1 Dims
  6
ByLayer
 62
  256
370
   -1
100
AcDbDimension
  2
*D61
 10
950
 20
-650
 30
0
 11
942.5
 21
-675
 31
0
 70
   33
 71
    5
  3
Standard
 53
0
210
0
220
0
230
1
100
AcDbAlignedDimension
 13
1080
 23
-700
 33
0
 14
1080
 24
-650
 34
0
  0
DIMENSION
  5
3CD
100
AcDbEntity
  8
1 Dims
  6
ByLayer
 62
  256
370
   -1
100
AcDbDimension
  2
*D62
 10
950
 20
-220
 30
0
 11
942.5
 21
-10
 31
0
 70
   33
 71
    5
  3
Standard
 53
0
210
0
220
0
230
1
100
AcDbAlignedDimension
 13
1030
 23
200
 33
0
 14
1030
 24
-220
 34
0
  0
DIMENSION
  5
3CE
100
AcDbEntity
  8
1 Dims
  6
ByLayer
 62
  256
370
   -1
100
AcDbDimension
  2
*D63
 10
950
 20
-640
 30
0
 11
942.5
 21
-430
 31
0
 70
   33
 71
    5
  3
Standard
 53
0
210
0
220
0
230
1
100
AcDbAlignedDimension
 13
1030
 23
-220
 33
0
 14
1030
 24
-640
 34
0
  0
ENDSEC
  0
SECTION
  2
OBJECTS
  0
DICTIONARY
  5
C
330
0
100
AcDbDictionary
281
    1
  3
ACAD_GROUP
350
D
  0
DICTIONARY
  5
D
330
C
100
AcDbDictionary
281
    1
  0
PLOTSETTINGS
  5
3CF
100
AcDbPlotSettings
  6
1x1
 40
0
 41
0
 42
0
 43
0
  0
ENDSEC
  0
EOF
